<svg width="1919" height="267" viewBox="0 0 1919 267" fill="none" xmlns="http://www.w3.org/2000/svg">
<rect width="1920" height="267" transform="translate(-1)" fill="#C7C1DB"/>
<path d="M739.29 125.519C738.681 122.557 739.032 119.842 740.343 117.381C741.654 114.924 743.621 113.053 746.244 111.772C748.866 110.497 751.852 110.223 755.212 110.95C753.491 111.43 752.221 112.342 751.395 113.691C750.581 115.04 750.137 116.527 750.061 118.14C749.979 119.758 750.09 121.276 750.388 122.694C751.372 126.605 753.415 129.921 756.523 132.646C759.626 135.376 763.325 137.432 767.622 138.823C771.93 140.204 776.362 140.879 780.922 140.848C785.493 140.805 789.691 140.015 793.519 138.465C796.733 137.116 799.185 135.334 800.871 133.11C802.557 130.875 803.47 128.482 803.611 125.92C803.763 123.363 803.131 120.891 801.714 118.498C800.292 116.095 798.114 114.06 795.181 112.384C791.529 110.291 787.49 108.857 783.076 108.083C778.656 107.313 774.184 106.707 769.659 106.269C765.128 105.821 760.808 105.125 756.687 104.182C753.906 103.507 751.337 102.58 748.983 101.399C746.624 100.218 744.734 98.6526 743.317 96.697C741.894 94.7467 741.186 92.3536 741.186 89.5283C741.104 86.9718 741.684 84.8002 742.919 83.0133C744.166 81.2316 745.799 79.7241 747.813 78.5012C750.886 76.5509 754.755 75.1383 759.427 74.2633C764.11 73.3936 769.033 72.9561 774.201 72.9561C780.412 72.9561 786.436 73.5622 792.278 74.7693C798.114 75.9817 802.791 77.7316 806.304 80.0193L802.159 88.1157C798.331 85.1533 794.116 82.4756 789.515 80.0826C784.908 77.6789 780.061 76.0765 774.974 75.2753C773.113 74.938 770.906 74.7693 768.348 74.7693C765.801 74.7693 763.243 74.9907 760.668 75.4229C758.092 75.8604 755.75 76.5826 753.643 77.5946C750.956 78.8755 749.147 80.5464 748.211 82.6127C747.274 84.6684 747.274 86.6714 748.211 88.6217C749.147 90.5773 751.114 92.1586 754.111 93.3657C756.95 94.4515 760.234 95.1947 763.969 95.6006C767.715 95.9959 771.661 96.3807 775.817 96.7602C779.967 97.1292 784.065 97.8145 788.11 98.8265C792.149 99.8385 795.86 101.525 799.232 103.887C802.522 106.18 805.027 109.026 806.749 112.426C808.481 115.831 808.932 119.653 808.107 123.896C807.433 127.538 805.935 130.622 803.611 133.152C801.281 135.682 798.436 137.722 795.064 139.266C791.704 140.816 788.139 141.944 784.364 142.661C780.582 143.367 776.894 143.715 773.288 143.715C769.928 143.715 766.416 143.399 762.751 142.766C759.081 142.123 755.598 141.074 752.308 139.625C749.013 138.18 746.185 136.293 743.832 133.974C741.473 131.644 739.957 128.824 739.29 125.519Z" fill="white"/>
<path d="M866.099 105.276L882.223 130.976C883.004 132.162 883.955 133.622 885.078 135.347C886.212 137.06 887.371 138.696 888.541 140.245C889.712 141.782 890.645 142.941 891.347 143.715H880.589C878.796 143.715 877.455 143.386 876.564 142.727C875.668 142.057 874.79 141.052 873.93 139.718L852.756 106.221C851.89 104.815 851.055 104.024 850.244 103.848C849.426 103.673 848.201 103.585 846.56 103.585H842.243C841.297 106.748 840.828 109.911 840.828 113.074V132.14C840.828 135.231 841.023 137.933 841.413 140.245C841.804 142.562 841.999 143.715 841.999 143.715H827.729C827.729 143.715 827.924 142.562 828.314 140.245C828.704 137.933 828.899 135.231 828.899 132.14V81.5757C828.899 78.4896 828.704 75.7878 828.314 73.4705C827.924 71.1587 827.729 70 827.729 70H841.999C841.999 70 841.804 71.1587 841.413 73.4705C841.023 75.7878 840.828 78.4896 840.828 81.5757V101.476C841.834 97.5554 843.371 93.717 845.438 89.9664C847.518 86.2049 850.097 82.8167 853.171 79.7965C856.244 76.7653 859.763 74.3821 863.733 72.6358C867.715 70.8786 872.088 70 876.857 70C881.931 70 886.572 70.8457 890.786 72.526L885.98 83.267C884.419 81.8612 882.406 80.8948 879.955 80.3676C877.497 79.8404 875.101 79.6427 872.759 79.7745C867.929 79.9942 863.477 81.1474 859.416 83.2231C855.366 85.2878 851.89 87.9676 849 91.2624C846.121 94.5572 844.023 98.2144 842.706 102.223H859.782C861.568 102.223 862.855 102.388 863.636 102.706C864.416 103.014 865.233 103.87 866.099 105.276Z" fill="white"/>
<path d="M944.328 102.68V132.636C944.328 135.605 944.492 138.2 944.82 140.42C945.16 142.646 945.336 143.753 945.336 143.753H931.63C931.63 143.753 931.818 142.646 932.193 140.42C932.567 138.2 932.755 135.605 932.755 132.636V109.958L913.193 85.6979C912.302 84.5482 911.143 83.1137 909.725 81.3943C908.302 79.6803 906.873 78.0296 905.438 76.4369C904.015 74.8494 902.82 73.6891 901.854 72.9561H917.246L941.728 103.503L967.686 72.9561H975.089C973.589 73.6891 971.832 74.765 969.818 76.1837C967.803 77.6077 965.858 79.0738 963.984 80.5927C962.11 82.1011 960.61 83.4986 959.486 84.7908L944.328 102.68Z" fill="white"/>
<path d="M999.445 73.8545L1046.38 140.101V92.0259C1046.38 89.0251 1045.99 86.1285 1045.22 83.3361C1044.45 80.5437 1043.65 78.2671 1042.84 76.501C1042.02 74.7401 1041.61 73.8545 1041.61 73.8545H1048.95C1048.95 73.8545 1048.76 74.9537 1048.39 77.147C1048.02 79.3455 1047.84 81.9087 1047.84 84.8365V142.289L1048.95 143.789H1035.41L988.453 77.543V125.597C988.453 128.598 988.858 131.484 989.679 134.245C990.495 137.012 991.287 139.299 992.063 141.101C992.832 142.893 993.22 143.789 993.22 143.789H982.305C982.305 143.789 984.902 143.001 985.272 140.802C985.643 138.609 985.272 135.72 985.272 132.787V76.6796L982.305 73.8545H999.445Z" fill="white"/>
<path d="M1059.76 129.033C1059.12 125.873 1059.49 122.977 1060.87 120.351C1062.26 117.73 1064.34 115.734 1067.12 114.367C1069.89 113.006 1073.05 112.714 1076.61 113.49C1074.79 114.002 1073.44 114.975 1072.57 116.414C1071.71 117.854 1071.24 119.44 1071.16 121.16C1071.07 122.887 1071.19 124.506 1071.5 126.019C1072.54 130.192 1074.71 133.729 1077.99 136.636C1081.28 139.549 1085.19 141.742 1089.74 143.227C1094.3 144.7 1098.99 145.42 1103.81 145.386C1108.65 145.341 1113.09 144.498 1117.14 142.844C1120.54 141.405 1123.14 139.504 1124.92 137.131C1126.7 134.747 1127.67 132.194 1127.82 129.461C1127.98 126.733 1127.31 124.096 1125.81 121.543C1124.31 118.978 1122 116.808 1118.9 115.02C1115.03 112.787 1110.76 111.257 1106.09 110.431C1101.41 109.61 1096.68 108.963 1091.89 108.496C1087.1 108.018 1082.53 107.276 1078.17 106.269C1075.23 105.55 1072.51 104.56 1070.02 103.3C1067.52 102.041 1065.52 100.37 1064.02 98.2841C1062.52 96.2034 1061.77 93.6504 1061.77 90.6362C1061.68 87.9088 1062.29 85.592 1063.6 83.6856C1064.92 81.7849 1066.65 80.1766 1068.78 78.8719C1072.03 76.7913 1076.12 75.2842 1081.07 74.3507C1086.02 73.4228 1091.23 72.9561 1096.7 72.9561C1103.27 72.9561 1109.65 73.6028 1115.83 74.8905C1122 76.1839 1126.95 78.0509 1130.67 80.4915L1126.28 89.1291C1122.23 85.9687 1117.77 83.112 1112.9 80.559C1108.03 77.9947 1102.9 76.2851 1097.52 75.4304C1095.55 75.0705 1093.21 74.8905 1090.51 74.8905C1087.81 74.8905 1085.11 75.1267 1082.38 75.5878C1079.65 76.0546 1077.18 76.825 1074.95 77.9047C1072.1 79.2712 1070.19 81.0538 1069.2 83.2582C1068.21 85.4514 1068.21 87.5883 1069.2 89.669C1070.19 91.7553 1072.27 93.4423 1075.44 94.7301C1078.45 95.8885 1081.92 96.6814 1085.87 97.1144C1089.84 97.5362 1094.01 97.9467 1098.41 98.3516C1102.8 98.7452 1107.14 99.4763 1111.42 100.556C1115.69 101.636 1119.62 103.435 1123.19 105.955C1126.67 108.401 1129.32 111.437 1131.14 115.065C1132.97 118.697 1133.45 122.774 1132.58 127.301C1131.86 131.187 1130.28 134.477 1127.82 137.176C1125.35 139.875 1122.34 142.052 1118.78 143.699C1115.22 145.352 1111.45 146.556 1107.45 147.321C1103.45 148.074 1099.55 148.445 1095.73 148.445C1092.18 148.445 1088.46 148.108 1084.59 147.433C1080.7 146.747 1077.02 145.628 1073.53 144.082C1070.05 142.541 1067.06 140.528 1064.57 138.053C1062.07 135.568 1060.47 132.559 1059.76 129.033Z" fill="white"/>
<path d="M937.034 188V160H939.834V188H937.034ZM954.578 188.48C952.631 188.48 950.924 188.027 949.458 187.12C948.018 186.187 946.898 184.92 946.098 183.32C945.298 181.72 944.898 179.907 944.898 177.88C944.898 175.853 945.298 174.053 946.098 172.48C946.898 170.88 948.031 169.627 949.498 168.72C950.964 167.813 952.671 167.36 954.618 167.36C956.324 167.36 957.818 167.733 959.098 168.48C960.404 169.2 961.404 170.227 962.098 171.56V159.2H964.898V188H962.338L962.098 184.36C961.671 185.053 961.111 185.72 960.418 186.36C959.751 187 958.924 187.52 957.938 187.92C956.978 188.293 955.858 188.48 954.578 188.48ZM954.818 186.04C956.231 186.04 957.458 185.707 958.498 185.04C959.564 184.373 960.391 183.427 960.978 182.2C961.591 180.973 961.898 179.547 961.898 177.92C961.898 176.293 961.591 174.867 960.978 173.64C960.391 172.413 959.564 171.467 958.498 170.8C957.458 170.133 956.231 169.8 954.818 169.8C953.431 169.8 952.204 170.133 951.138 170.8C950.071 171.467 949.231 172.413 948.618 173.64C948.031 174.84 947.738 176.267 947.738 177.92C947.738 179.573 948.044 181.013 948.658 182.24C949.271 183.44 950.111 184.373 951.178 185.04C952.244 185.707 953.458 186.04 954.818 186.04ZM979.222 188.48C977.356 188.48 975.702 188.04 974.262 187.16C972.849 186.28 971.729 185.053 970.902 183.48C970.102 181.88 969.702 180.013 969.702 177.88C969.702 175.747 970.102 173.893 970.902 172.32C971.702 170.747 972.822 169.533 974.262 168.68C975.729 167.8 977.409 167.36 979.302 167.36C981.249 167.36 982.889 167.8 984.222 168.68C985.582 169.56 986.609 170.707 987.302 172.12C988.022 173.533 988.382 175.08 988.382 176.76C988.382 177.027 988.382 177.307 988.382 177.6C988.382 177.867 988.369 178.187 988.342 178.56H971.822V176.2H985.662C985.609 174.147 984.969 172.56 983.742 171.44C982.542 170.32 981.022 169.76 979.182 169.76C977.982 169.76 976.862 170.04 975.822 170.6C974.809 171.133 973.982 171.933 973.342 173C972.729 174.04 972.422 175.36 972.422 176.96V178C972.422 179.813 972.742 181.32 973.382 182.52C974.022 183.72 974.862 184.613 975.902 185.2C976.969 185.787 978.076 186.08 979.222 186.08C980.742 186.08 981.996 185.747 982.982 185.08C983.969 184.387 984.676 183.44 985.102 182.24H987.862C987.516 183.413 986.956 184.48 986.182 185.44C985.436 186.4 984.476 187.147 983.302 187.68C982.129 188.213 980.769 188.48 979.222 188.48ZM999.405 188.48C997.778 188.48 996.418 188.187 995.325 187.6C994.258 187.013 993.458 186.253 992.925 185.32C992.418 184.387 992.165 183.36 992.165 182.24C992.165 180.853 992.512 179.68 993.205 178.72C993.925 177.76 994.925 177.04 996.205 176.56C997.485 176.08 998.978 175.84 1000.68 175.84H1006.13C1006.13 174.533 1005.93 173.427 1005.53 172.52C1005.13 171.613 1004.54 170.933 1003.77 170.48C1002.99 170 1002.02 169.76 1000.85 169.76C999.485 169.76 998.312 170.107 997.325 170.8C996.338 171.493 995.725 172.507 995.485 173.84H992.565C992.725 172.427 993.205 171.24 994.005 170.28C994.832 169.32 995.845 168.6 997.045 168.12C998.245 167.613 999.512 167.36 1000.85 167.36C1002.71 167.36 1004.23 167.72 1005.41 168.44C1006.58 169.133 1007.46 170.093 1008.05 171.32C1008.63 172.547 1008.93 173.96 1008.93 175.56V188H1006.37L1006.21 184.32C1005.97 184.88 1005.63 185.413 1005.21 185.92C1004.81 186.427 1004.33 186.867 1003.77 187.24C1003.23 187.613 1002.61 187.907 1001.88 188.12C1001.17 188.36 1000.34 188.48 999.405 188.48ZM999.725 186.04C1000.71 186.04 1001.59 185.84 1002.37 185.44C1003.17 185.013 1003.85 184.467 1004.41 183.8C1004.97 183.133 1005.39 182.387 1005.69 181.56C1005.98 180.707 1006.13 179.827 1006.13 178.92V178.2H1000.89C999.472 178.2 998.338 178.373 997.485 178.72C996.632 179.067 996.018 179.533 995.645 180.12C995.272 180.707 995.085 181.387 995.085 182.16C995.085 182.933 995.258 183.613 995.605 184.2C995.952 184.76 996.472 185.213 997.165 185.56C997.885 185.88 998.738 186.04 999.725 186.04ZM1014.22 188V159.2H1017.02V188H1014.22ZM1033.71 196.8V167.84H1036.27L1036.51 171.48C1036.93 170.76 1037.49 170.093 1038.19 169.48C1038.88 168.84 1039.71 168.333 1040.67 167.96C1041.65 167.56 1042.77 167.36 1044.03 167.36C1045.97 167.36 1047.67 167.827 1049.11 168.76C1050.57 169.693 1051.71 170.96 1052.51 172.56C1053.31 174.133 1053.71 175.933 1053.71 177.96C1053.71 179.987 1053.29 181.8 1052.47 183.4C1051.67 184.973 1050.55 186.213 1049.11 187.12C1047.67 188.027 1045.96 188.48 1043.99 188.48C1042.28 188.48 1040.77 188.12 1039.47 187.4C1038.19 186.653 1037.2 185.613 1036.51 184.28V196.8H1033.71ZM1043.79 186.04C1045.17 186.04 1046.39 185.707 1047.43 185.04C1048.49 184.373 1049.33 183.44 1049.95 182.24C1050.56 181.013 1050.87 179.573 1050.87 177.92C1050.87 176.293 1050.56 174.867 1049.95 173.64C1049.33 172.413 1048.49 171.467 1047.43 170.8C1046.39 170.133 1045.17 169.8 1043.79 169.8C1042.4 169.8 1041.16 170.133 1040.07 170.8C1039 171.467 1038.16 172.413 1037.55 173.64C1036.96 174.84 1036.67 176.267 1036.67 177.92C1036.67 179.547 1036.96 180.973 1037.55 182.2C1038.16 183.427 1039 184.373 1040.07 185.04C1041.16 185.707 1042.4 186.04 1043.79 186.04ZM1064.95 188.48C1063.33 188.48 1061.97 188.187 1060.87 187.6C1059.81 187.013 1059.01 186.253 1058.47 185.32C1057.97 184.387 1057.71 183.36 1057.71 182.24C1057.71 180.853 1058.06 179.68 1058.75 178.72C1059.47 177.76 1060.47 177.04 1061.75 176.56C1063.03 176.08 1064.53 175.84 1066.23 175.84H1071.67C1071.67 174.533 1071.47 173.427 1071.07 172.52C1070.67 171.613 1070.09 170.933 1069.31 170.48C1068.54 170 1067.57 169.76 1066.39 169.76C1065.03 169.76 1063.86 170.107 1062.87 170.8C1061.89 171.493 1061.27 172.507 1061.03 173.84H1058.11C1058.27 172.427 1058.75 171.24 1059.55 170.28C1060.38 169.32 1061.39 168.6 1062.59 168.12C1063.79 167.613 1065.06 167.36 1066.39 167.36C1068.26 167.36 1069.78 167.72 1070.95 168.44C1072.13 169.133 1073.01 170.093 1073.59 171.32C1074.18 172.547 1074.47 173.96 1074.47 175.56V188H1071.91L1071.75 184.32C1071.51 184.88 1071.18 185.413 1070.75 185.92C1070.35 186.427 1069.87 186.867 1069.31 187.24C1068.78 187.613 1068.15 187.907 1067.43 188.12C1066.71 188.36 1065.89 188.48 1064.95 188.48ZM1065.27 186.04C1066.26 186.04 1067.14 185.84 1067.91 185.44C1068.71 185.013 1069.39 184.467 1069.95 183.8C1070.51 183.133 1070.94 182.387 1071.23 181.56C1071.53 180.707 1071.67 179.827 1071.67 178.92V178.2H1066.43C1065.02 178.2 1063.89 178.373 1063.03 178.72C1062.18 179.067 1061.57 179.533 1061.19 180.12C1060.82 180.707 1060.63 181.387 1060.63 182.16C1060.63 182.933 1060.81 183.613 1061.15 184.2C1061.5 184.76 1062.02 185.213 1062.71 185.56C1063.43 185.88 1064.29 186.04 1065.27 186.04ZM1079.76 188V167.84H1082.32L1082.52 171.72C1082.95 170.787 1083.52 170 1084.24 169.36C1084.96 168.72 1085.83 168.227 1086.84 167.88C1087.86 167.533 1089 167.36 1090.28 167.36V170.28H1089.2C1088.35 170.28 1087.52 170.4 1086.72 170.64C1085.92 170.853 1085.22 171.227 1084.6 171.76C1083.99 172.293 1083.5 173.013 1083.12 173.92C1082.75 174.827 1082.56 175.96 1082.56 177.32V188H1079.76ZM1100.66 188.48C1099.03 188.48 1097.67 188.187 1096.58 187.6C1095.51 187.013 1094.71 186.253 1094.18 185.32C1093.67 184.387 1093.42 183.36 1093.42 182.24C1093.42 180.853 1093.76 179.68 1094.46 178.72C1095.18 177.76 1096.18 177.04 1097.46 176.56C1098.74 176.08 1100.23 175.84 1101.93 175.84H1107.38C1107.38 174.533 1107.18 173.427 1106.78 172.52C1106.38 171.613 1105.79 170.933 1105.02 170.48C1104.24 170 1103.27 169.76 1102.1 169.76C1100.74 169.76 1099.56 170.107 1098.58 170.8C1097.59 171.493 1096.98 172.507 1096.74 173.84H1093.82C1093.98 172.427 1094.46 171.24 1095.26 170.28C1096.08 169.32 1097.1 168.6 1098.3 168.12C1099.5 167.613 1100.76 167.36 1102.1 167.36C1103.96 167.36 1105.48 167.72 1106.66 168.44C1107.83 169.133 1108.71 170.093 1109.3 171.32C1109.88 172.547 1110.18 173.96 1110.18 175.56V188H1107.62L1107.46 184.32C1107.22 184.88 1106.88 185.413 1106.46 185.92C1106.06 186.427 1105.58 186.867 1105.02 187.24C1104.48 187.613 1103.86 187.907 1103.13 188.12C1102.42 188.36 1101.59 188.48 1100.66 188.48ZM1100.98 186.04C1101.96 186.04 1102.84 185.84 1103.62 185.44C1104.42 185.013 1105.1 184.467 1105.66 183.8C1106.22 183.133 1106.64 182.387 1106.94 181.56C1107.23 180.707 1107.38 179.827 1107.38 178.92V178.2H1102.14C1100.72 178.2 1099.59 178.373 1098.74 178.72C1097.88 179.067 1097.27 179.533 1096.9 180.12C1096.52 180.707 1096.34 181.387 1096.34 182.16C1096.34 182.933 1096.51 183.613 1096.86 184.2C1097.2 184.76 1097.72 185.213 1098.42 185.56C1099.14 185.88 1099.99 186.04 1100.98 186.04ZM1133.88 188.48C1132.28 188.48 1130.87 188.213 1129.64 187.68C1128.44 187.147 1127.47 186.387 1126.72 185.4C1126 184.387 1125.56 183.187 1125.4 181.8H1128.28C1128.44 182.573 1128.75 183.28 1129.2 183.92C1129.68 184.56 1130.32 185.08 1131.12 185.48C1131.92 185.853 1132.87 186.04 1133.96 186.04C1134.97 186.04 1135.8 185.893 1136.44 185.6C1137.11 185.28 1137.6 184.867 1137.92 184.36C1138.27 183.827 1138.44 183.24 1138.44 182.6C1138.44 181.72 1138.23 181.04 1137.8 180.56C1137.4 180.053 1136.81 179.68 1136.04 179.44C1135.27 179.2 1134.33 178.973 1133.24 178.76C1132.33 178.6 1131.47 178.387 1130.64 178.12C1129.81 177.853 1129.07 177.507 1128.4 177.08C1127.76 176.653 1127.25 176.12 1126.88 175.48C1126.51 174.813 1126.32 174.04 1126.32 173.16C1126.32 172.013 1126.6 171.013 1127.16 170.16C1127.75 169.28 1128.57 168.6 1129.64 168.12C1130.71 167.613 1131.96 167.36 1133.4 167.36C1135.45 167.36 1137.13 167.88 1138.44 168.92C1139.75 169.933 1140.51 171.427 1140.72 173.4H1137.92C1137.81 172.307 1137.36 171.44 1136.56 170.8C1135.76 170.16 1134.68 169.84 1133.32 169.84C1131.99 169.84 1130.96 170.12 1130.24 170.68C1129.55 171.213 1129.2 171.947 1129.2 172.88C1129.2 173.467 1129.39 173.973 1129.76 174.4C1130.13 174.827 1130.68 175.2 1131.4 175.52C1132.15 175.813 1133.05 176.067 1134.12 176.28C1135.4 176.52 1136.57 176.84 1137.64 177.24C1138.73 177.613 1139.61 178.2 1140.28 179C1140.97 179.773 1141.32 180.88 1141.32 182.32C1141.35 183.52 1141.05 184.587 1140.44 185.52C1139.83 186.453 1138.96 187.187 1137.84 187.72C1136.72 188.227 1135.4 188.48 1133.88 188.48ZM1153.57 188.48C1152.05 188.48 1150.7 188.187 1149.53 187.6C1148.38 186.987 1147.49 186.067 1146.85 184.84C1146.21 183.587 1145.89 181.987 1145.89 180.04V167.84H1148.69V179.72C1148.69 181.853 1149.15 183.44 1150.09 184.48C1151.05 185.52 1152.37 186.04 1154.05 186.04C1155.25 186.04 1156.31 185.76 1157.25 185.2C1158.21 184.64 1158.95 183.813 1159.49 182.72C1160.05 181.6 1160.33 180.24 1160.33 178.64V167.84H1163.13V188H1160.57L1160.41 184.4C1159.77 185.707 1158.83 186.72 1157.61 187.44C1156.41 188.133 1155.06 188.48 1153.57 188.48ZM1175.26 188.48C1173.64 188.48 1172.28 188.187 1171.18 187.6C1170.12 187.013 1169.32 186.253 1168.78 185.32C1168.28 184.387 1168.02 183.36 1168.02 182.24C1168.02 180.853 1168.37 179.68 1169.06 178.72C1169.78 177.76 1170.78 177.04 1172.06 176.56C1173.34 176.08 1174.84 175.84 1176.54 175.84H1181.98C1181.98 174.533 1181.78 173.427 1181.38 172.52C1180.98 171.613 1180.4 170.933 1179.62 170.48C1178.85 170 1177.88 169.76 1176.7 169.76C1175.34 169.76 1174.17 170.107 1173.18 170.8C1172.2 171.493 1171.58 172.507 1171.34 173.84H1168.42C1168.58 172.427 1169.06 171.24 1169.86 170.28C1170.69 169.32 1171.7 168.6 1172.9 168.12C1174.1 167.613 1175.37 167.36 1176.7 167.36C1178.57 167.36 1180.09 167.72 1181.26 168.44C1182.44 169.133 1183.32 170.093 1183.9 171.32C1184.49 172.547 1184.78 173.96 1184.78 175.56V188H1182.22L1182.06 184.32C1181.82 184.88 1181.49 185.413 1181.06 185.92C1180.66 186.427 1180.18 186.867 1179.62 187.24C1179.09 187.613 1178.46 187.907 1177.74 188.12C1177.02 188.36 1176.2 188.48 1175.26 188.48ZM1175.58 186.04C1176.57 186.04 1177.45 185.84 1178.22 185.44C1179.02 185.013 1179.7 184.467 1180.26 183.8C1180.82 183.133 1181.25 182.387 1181.54 181.56C1181.84 180.707 1181.98 179.827 1181.98 178.92V178.2H1176.74C1175.33 178.2 1174.2 178.373 1173.34 178.72C1172.49 179.067 1171.88 179.533 1171.5 180.12C1171.13 180.707 1170.94 181.387 1170.94 182.16C1170.94 182.933 1171.12 183.613 1171.46 184.2C1171.81 184.76 1172.33 185.213 1173.02 185.56C1173.74 185.88 1174.6 186.04 1175.58 186.04ZM1201.09 196.8V167.84H1203.65L1203.89 171.48C1204.32 170.76 1204.88 170.093 1205.57 169.48C1206.26 168.84 1207.09 168.333 1208.05 167.96C1209.04 167.56 1210.16 167.36 1211.41 167.36C1213.36 167.36 1215.05 167.827 1216.49 168.76C1217.96 169.693 1219.09 170.96 1219.89 172.56C1220.69 174.133 1221.09 175.933 1221.09 177.96C1221.09 179.987 1220.68 181.8 1219.85 183.4C1219.05 184.973 1217.93 186.213 1216.49 187.12C1215.05 188.027 1213.34 188.48 1211.37 188.48C1209.66 188.48 1208.16 188.12 1206.85 187.4C1205.57 186.653 1204.58 185.613 1203.89 184.28V196.8H1201.09ZM1211.17 186.04C1212.56 186.04 1213.77 185.707 1214.81 185.04C1215.88 184.373 1216.72 183.44 1217.33 182.24C1217.94 181.013 1218.25 179.573 1218.25 177.92C1218.25 176.293 1217.94 174.867 1217.33 173.64C1216.72 172.413 1215.88 171.467 1214.81 170.8C1213.77 170.133 1212.56 169.8 1211.17 169.8C1209.78 169.8 1208.54 170.133 1207.45 170.8C1206.38 171.467 1205.54 172.413 1204.93 173.64C1204.34 174.84 1204.05 176.267 1204.05 177.92C1204.05 179.547 1204.34 180.973 1204.93 182.2C1205.54 183.427 1206.38 184.373 1207.45 185.04C1208.54 185.707 1209.78 186.04 1211.17 186.04ZM1234.53 188.48C1232.67 188.48 1231.01 188.04 1229.57 187.16C1228.16 186.28 1227.04 185.053 1226.21 183.48C1225.41 181.88 1225.01 180.013 1225.01 177.88C1225.01 175.747 1225.41 173.893 1226.21 172.32C1227.01 170.747 1228.13 169.533 1229.57 168.68C1231.04 167.8 1232.72 167.36 1234.61 167.36C1236.56 167.36 1238.2 167.8 1239.53 168.68C1240.89 169.56 1241.92 170.707 1242.61 172.12C1243.33 173.533 1243.69 175.08 1243.69 176.76C1243.69 177.027 1243.69 177.307 1243.69 177.6C1243.69 177.867 1243.68 178.187 1243.65 178.56H1227.13V176.2H1240.97C1240.92 174.147 1240.28 172.56 1239.05 171.44C1237.85 170.32 1236.33 169.76 1234.49 169.76C1233.29 169.76 1232.17 170.04 1231.13 170.6C1230.12 171.133 1229.29 171.933 1228.65 173C1228.04 174.04 1227.73 175.36 1227.73 176.96V178C1227.73 179.813 1228.05 181.32 1228.69 182.52C1229.33 183.72 1230.17 184.613 1231.21 185.2C1232.28 185.787 1233.39 186.08 1234.53 186.08C1236.05 186.08 1237.31 185.747 1238.29 185.08C1239.28 184.387 1239.99 183.44 1240.41 182.24H1243.17C1242.83 183.413 1242.27 184.48 1241.49 185.44C1240.75 186.4 1239.79 187.147 1238.61 187.68C1237.44 188.213 1236.08 188.48 1234.53 188.48ZM1248.28 188V159.2H1251.08V188H1248.28ZM1265.39 188.48C1263.53 188.48 1261.87 188.04 1260.43 187.16C1259.02 186.28 1257.9 185.053 1257.07 183.48C1256.27 181.88 1255.87 180.013 1255.87 177.88C1255.87 175.747 1256.27 173.893 1257.07 172.32C1257.87 170.747 1258.99 169.533 1260.43 168.68C1261.9 167.8 1263.58 167.36 1265.47 167.36C1267.42 167.36 1269.06 167.8 1270.39 168.68C1271.75 169.56 1272.78 170.707 1273.47 172.12C1274.19 173.533 1274.55 175.08 1274.55 176.76C1274.55 177.027 1274.55 177.307 1274.55 177.6C1274.55 177.867 1274.54 178.187 1274.51 178.56H1257.99V176.2H1271.83C1271.78 174.147 1271.14 172.56 1269.91 171.44C1268.71 170.32 1267.19 169.76 1265.35 169.76C1264.15 169.76 1263.03 170.04 1261.99 170.6C1260.98 171.133 1260.15 171.933 1259.51 173C1258.9 174.04 1258.59 175.36 1258.59 176.96V178C1258.59 179.813 1258.91 181.32 1259.55 182.52C1260.19 183.72 1261.03 184.613 1262.07 185.2C1263.14 185.787 1264.25 186.08 1265.39 186.08C1266.91 186.08 1268.17 185.747 1269.15 185.08C1270.14 184.387 1270.85 183.44 1271.27 182.24H1274.03C1273.69 183.413 1273.13 184.48 1272.35 185.44C1271.61 186.4 1270.65 187.147 1269.47 187.68C1268.3 188.213 1266.94 188.48 1265.39 188.48ZM1280.06 188.2C1279.47 188.2 1278.98 188 1278.58 187.6C1278.2 187.2 1278.02 186.707 1278.02 186.12C1278.02 185.533 1278.2 185.053 1278.58 184.68C1278.98 184.28 1279.47 184.08 1280.06 184.08C1280.64 184.08 1281.12 184.28 1281.5 184.68C1281.9 185.053 1282.1 185.547 1282.1 186.16C1282.1 186.72 1281.9 187.2 1281.5 187.6C1281.12 188 1280.64 188.2 1280.06 188.2Z" fill="white"/>
</svg>
