<svg width="1571" height="179" viewBox="0 0 1571 179" fill="none" xmlns="http://www.w3.org/2000/svg">
<g clip-path="url(#clip0_321_126)">
<rect width="1571" height="179" fill="#C2E9F9"/>
<rect x="784.968" y="459.283" width="480.257" height="545.064" transform="rotate(-131.141 784.968 459.283)" fill="#C7C1DB"/>
<line x1="20" y1="16.6055" x2="537" y2="16.6055" stroke="white" stroke-width="2"/>
<line x1="21" y1="16" x2="21" y2="160" stroke="white" stroke-width="2"/>
<line x1="537.656" y1="16.7551" x2="446.656" y2="95.7551" stroke="white" stroke-width="2"/>
<line x1="446.769" y1="94.361" x2="500.769" y2="159.361" stroke="white" stroke-width="2"/>
<line x1="20.9999" y1="159" x2="500.001" y2="158.968" stroke="white" stroke-width="2"/>
<path d="M628.215 98.4569C627.763 96.0104 628.024 93.7685 628.999 91.7356C629.974 89.707 631.437 88.1616 633.387 87.1038C635.337 86.0503 637.557 85.8239 640.056 86.4247C638.776 86.8208 637.832 87.5739 637.218 88.6883C636.613 89.8028 636.282 91.0304 636.225 92.3624C636.164 93.6989 636.247 94.9526 636.469 96.1236C637.2 99.3537 638.72 102.092 641.031 104.342C643.338 106.597 646.09 108.295 649.285 109.444C652.489 110.585 655.784 111.142 659.175 111.116C662.575 111.081 665.696 110.428 668.543 109.148C670.933 108.034 672.757 106.563 674.011 104.725C675.265 102.88 675.944 100.903 676.048 98.7877C676.161 96.6764 675.691 94.6348 674.638 92.6585C673.58 90.6734 671.961 88.9931 669.78 87.6087C667.063 85.8805 664.059 84.6965 660.777 84.0565C657.491 83.421 654.165 82.9204 650.8 82.559C647.43 82.189 644.218 81.6144 641.153 80.8352C639.085 80.278 637.174 79.5118 635.424 78.5367C633.67 77.5616 632.264 76.2687 631.21 74.6537C630.152 73.043 629.626 71.0666 629.626 68.7333C629.565 66.622 629.996 64.8285 630.914 63.3528C631.842 61.8814 633.056 60.6364 634.554 59.6264C636.839 58.0158 639.716 56.8491 643.19 56.1265C646.673 55.4082 650.334 55.0469 654.178 55.0469C658.796 55.0469 663.276 55.5475 667.62 56.5444C671.961 57.5456 675.439 58.9909 678.051 60.8802L674.969 67.5667C672.122 65.1202 668.987 62.9087 665.566 60.9324C662.14 58.9473 658.535 57.624 654.752 56.9623C653.368 56.6837 651.727 56.5444 649.825 56.5444C647.931 56.5444 646.029 56.7272 644.113 57.0842C642.198 57.4455 640.456 58.0419 638.889 58.8777C636.891 59.9355 635.546 61.3155 634.85 63.0219C634.153 64.7197 634.153 66.3739 634.85 67.9846C635.546 69.5996 637.009 70.9056 639.238 71.9024C641.349 72.7992 643.791 73.413 646.568 73.7482C649.354 74.0747 652.288 74.3925 655.379 74.7059C658.466 75.0106 661.513 75.5765 664.521 76.4123C667.525 77.2482 670.285 78.6412 672.792 80.5914C675.238 82.485 677.102 84.8358 678.382 87.6436C679.67 90.4557 680.005 93.6118 679.391 97.1161C678.891 100.124 677.776 102.671 676.048 104.76C674.316 106.85 672.2 108.535 669.693 109.81C667.194 111.09 664.543 112.021 661.735 112.613C658.923 113.197 656.18 113.484 653.499 113.484C651 113.484 648.388 113.223 645.663 112.701C642.933 112.169 640.343 111.303 637.897 110.106C635.446 108.913 633.343 107.355 631.593 105.439C629.839 103.515 628.712 101.186 628.215 98.4569Z" fill="white"/>
<path d="M722.518 81.7388L734.509 102.963C735.089 103.943 735.797 105.149 736.631 106.573C737.475 107.988 738.336 109.339 739.207 110.618C740.078 111.888 740.772 112.845 741.293 113.484H733.293C731.96 113.484 730.962 113.212 730.3 112.668C729.634 112.115 728.981 111.285 728.341 110.183L712.595 82.5188C711.951 81.3579 711.33 80.7048 710.727 80.5597C710.119 80.4146 709.208 80.342 707.988 80.342H704.777C704.074 82.9542 703.725 85.5664 703.725 88.1786V103.924C703.725 106.478 703.87 108.709 704.16 110.618C704.45 112.532 704.595 113.484 704.595 113.484H693.983C693.983 113.484 694.129 112.532 694.419 110.618C694.709 108.709 694.854 106.478 694.854 103.924V62.1654C694.854 59.6167 694.709 57.3854 694.419 55.4716C694.129 53.5624 693.983 52.6055 693.983 52.6055H704.595C704.595 52.6055 704.45 53.5624 704.16 55.4716C703.87 57.3854 703.725 59.6167 703.725 62.1654V78.6005C704.473 75.3625 705.616 72.1925 707.153 69.095C708.7 65.9885 710.618 63.1903 712.904 60.696C715.189 58.1927 717.806 56.2245 720.758 54.7823C723.72 53.3311 726.972 52.6055 730.518 52.6055C734.291 52.6055 737.742 53.3039 740.876 54.6916L737.302 63.5622C736.141 62.4012 734.645 61.6031 732.822 61.1677C730.994 60.7323 729.212 60.5691 727.47 60.6779C723.879 60.8593 720.568 61.8117 717.548 63.5259C714.536 65.2311 711.951 67.4442 709.802 70.1653C707.661 72.8863 706.101 75.9067 705.122 79.2173H717.82C719.149 79.2173 720.105 79.3534 720.686 79.6164C721.266 79.8704 721.874 80.5778 722.518 81.7388Z" fill="white"/>
<path d="M780.693 79.5948V104.334C780.693 106.786 780.815 108.929 781.059 110.763C781.312 112.601 781.443 113.516 781.443 113.516H771.251C771.251 113.516 771.39 112.601 771.669 110.763C771.947 108.929 772.087 106.786 772.087 104.334V85.6054L757.539 65.5699C756.877 64.6204 756.015 63.4357 754.961 62.0158C753.902 60.6002 752.84 59.2369 751.773 57.9215C750.714 56.6105 749.826 55.6523 749.107 55.0469H760.553L778.76 80.2742L798.063 55.0469H803.569C802.454 55.6523 801.147 56.5408 799.649 57.7125C798.15 58.8885 796.704 60.0993 795.311 61.3537C793.917 62.5994 792.802 63.7536 791.966 64.8207L780.693 79.5948Z" fill="white"/>
<path d="M821.681 55.7891L856.583 110.5V70.7962C856.583 68.3179 856.295 65.9257 855.723 63.6196C855.146 61.3135 854.557 59.4333 853.95 57.9747C853.339 56.5205 853.038 55.7891 853.038 55.7891H858.493C858.493 55.7891 858.356 56.6969 858.08 58.5082C857.805 60.3239 857.667 62.4407 857.667 64.8587V112.307L858.493 113.546H848.426L813.507 58.8352V98.5215C813.507 101 813.808 103.383 814.419 105.664C815.025 107.948 815.615 109.837 816.191 111.326C816.764 112.806 817.052 113.546 817.052 113.546H808.935C808.935 113.546 810.866 112.894 811.142 111.079C811.417 109.267 811.142 106.882 811.142 104.459V58.1222L808.935 55.7891H821.681Z" fill="white"/>
<path d="M866.534 101.359C866.055 98.7489 866.332 96.3571 867.364 94.1883C868.395 92.0241 869.943 90.3754 872.007 89.2469C874.07 88.123 876.419 87.8815 879.063 88.5224C877.709 88.945 876.71 89.7484 876.06 90.9374C875.42 92.1263 875.07 93.4359 875.01 94.8571C874.945 96.2828 875.033 97.6204 875.268 98.8697C876.042 102.316 877.649 105.237 880.095 107.638C882.536 110.044 885.448 111.855 888.829 113.081C892.219 114.298 895.706 114.892 899.294 114.864C902.891 114.827 906.194 114.131 909.206 112.765C911.735 111.576 913.665 110.006 914.992 108.047C916.318 106.077 917.037 103.969 917.148 101.712C917.267 99.4595 916.77 97.2813 915.655 95.1729C914.536 93.0551 912.822 91.2624 910.515 89.7856C907.64 87.9418 904.462 86.6786 900.989 85.9959C897.511 85.3179 893.992 84.7838 890.431 84.3983C886.866 84.0035 883.467 83.3905 880.224 82.5592C878.036 81.9647 876.014 81.1474 874.162 80.107C872.306 79.0667 870.818 77.6874 869.704 75.9644C868.584 74.2461 868.027 72.1376 868.027 69.6483C867.962 67.3958 868.418 65.4824 869.39 63.908C870.371 62.3383 871.657 61.01 873.241 59.9326C875.659 58.2142 878.704 56.9696 882.38 56.1986C886.065 55.4323 889.939 55.0469 894.006 55.0469C898.893 55.0469 903.633 55.581 908.23 56.6445C912.822 57.7127 916.503 59.2545 919.266 61.2701L916.005 68.4036C912.993 65.7936 909.676 63.4343 906.056 61.3259C902.431 59.2081 898.617 57.7962 894.614 57.0903C893.149 56.7931 891.413 56.6445 889.4 56.6445C887.396 56.6445 885.383 56.8395 883.356 57.2204C881.33 57.6058 879.487 58.2421 877.829 59.1338C875.715 60.2623 874.291 61.7345 873.554 63.5551C872.817 65.3663 872.817 67.1311 873.554 68.8495C874.291 70.5725 875.839 71.9657 878.197 73.0293C880.431 73.986 883.015 74.6408 885.954 74.9984C888.902 75.3467 892.007 75.6858 895.277 76.0201C898.543 76.3452 901.767 76.949 904.95 77.8407C908.129 78.7324 911.049 80.2185 913.702 82.2991C916.291 84.3193 918.262 86.8272 919.616 89.8227C920.98 92.8229 921.335 96.19 920.685 99.9285C920.155 103.138 918.976 105.855 917.148 108.084C915.314 110.313 913.076 112.11 910.422 113.471C907.778 114.836 904.973 115.83 902.002 116.462C899.027 117.084 896.125 117.391 893.287 117.391C890.643 117.391 887.88 117.112 884.996 116.555C882.108 115.988 879.367 115.064 876.779 113.787C874.185 112.514 871.961 110.852 870.109 108.808C868.253 106.756 867.06 104.271 866.534 101.359Z" fill="white"/>
<path d="M119.92 93.6055L126 64.4855H131.24L125.16 93.6055H119.92ZM107.48 93.6055L113.56 64.4855H118.84L112.76 93.6055H107.48ZM103.2 86.8455V81.8055H132.68V86.8455H103.2ZM105.4 76.1255V71.1255H134.92V76.1255H105.4ZM139.212 93.6055V65.6055H145.932L154.372 82.8455L162.692 65.6055H169.372V93.6055H163.772V75.0855L156.532 89.6855H152.092L144.812 75.0855V93.6055H139.212ZM174.798 93.6055V65.6055H180.398V93.6055H174.798ZM185.853 93.6055V65.6055H191.453L204.133 84.6055V65.6055H209.733V93.6055H204.133L191.453 74.6455V93.6055H185.853ZM232.829 93.6055V65.6055H238.429V93.6055H232.829ZM215.189 93.6055V65.6055H220.789V93.6055H215.189ZM220.069 81.5655V77.0455H233.749V81.5655H220.069ZM242.021 93.6055L252.221 65.6055H258.581L268.781 93.6055H262.861L255.381 71.9655L247.861 93.6055H242.021ZM246.501 87.3255L247.981 82.9655H262.381L263.821 87.3255H246.501ZM282.096 94.0855C280.07 94.0855 278.256 93.7388 276.656 93.0455C275.083 92.3521 273.83 91.3388 272.896 90.0055C271.963 88.6721 271.483 87.0588 271.456 85.1655H277.376C277.403 85.9655 277.603 86.6855 277.976 87.3255C278.376 87.9655 278.923 88.4721 279.616 88.8455C280.31 89.2188 281.123 89.4055 282.056 89.4055C282.883 89.4055 283.59 89.2721 284.176 89.0055C284.79 88.7388 285.256 88.3655 285.576 87.8855C285.923 87.4055 286.096 86.8188 286.096 86.1255C286.096 85.3788 285.896 84.7388 285.496 84.2055C285.123 83.6721 284.603 83.2188 283.936 82.8455C283.27 82.4721 282.496 82.1388 281.616 81.8455C280.763 81.5255 279.843 81.2055 278.856 80.8855C276.643 80.1655 274.95 79.2055 273.776 78.0055C272.63 76.8055 272.056 75.2055 272.056 73.2055C272.056 71.4988 272.456 70.0455 273.256 68.8455C274.083 67.6455 275.216 66.7255 276.656 66.0855C278.123 65.4455 279.776 65.1255 281.616 65.1255C283.51 65.1255 285.176 65.4588 286.616 66.1255C288.056 66.7655 289.19 67.6988 290.016 68.9255C290.87 70.1521 291.323 71.6055 291.376 73.2855H285.376C285.35 72.6721 285.176 72.1121 284.856 71.6055C284.536 71.0721 284.096 70.6455 283.536 70.3255C282.976 70.0055 282.31 69.8455 281.536 69.8455C280.87 69.8188 280.256 69.9255 279.696 70.1655C279.163 70.3788 278.736 70.7121 278.416 71.1655C278.096 71.5921 277.936 72.1388 277.936 72.8055C277.936 73.4721 278.096 74.0321 278.416 74.4855C278.736 74.9121 279.176 75.2855 279.736 75.6055C280.323 75.9255 281.003 76.2321 281.776 76.5255C282.55 76.7921 283.39 77.0721 284.296 77.3655C285.71 77.8455 287.003 78.4188 288.176 79.0855C289.35 79.7255 290.283 80.5655 290.976 81.6055C291.696 82.6455 292.056 84.0188 292.056 85.7255C292.056 87.2188 291.67 88.6055 290.896 89.8855C290.123 91.1388 289.003 92.1521 287.536 92.9255C286.07 93.6988 284.256 94.0855 282.096 94.0855ZM296.634 93.6055V65.6055H302.234V76.5255L312.234 65.6055H319.114L308.834 76.6855L319.434 93.6055H312.594L304.834 81.0055L302.234 83.8055V93.6055H296.634ZM330.32 93.6055V83.8455L320.84 65.6055H327.2L333.72 79.3255H332.64L339.12 65.6055H345.4L335.92 83.8455V93.6055H330.32ZM348.626 93.6055V65.6055H354.226L366.906 84.6055V65.6055H372.506V93.6055H366.906L354.226 74.6455V93.6055H348.626ZM387.682 94.0855C385.656 94.0855 383.842 93.7388 382.242 93.0455C380.669 92.3521 379.416 91.3388 378.482 90.0055C377.549 88.6721 377.069 87.0588 377.042 85.1655H382.962C382.989 85.9655 383.189 86.6855 383.562 87.3255C383.962 87.9655 384.509 88.4721 385.202 88.8455C385.896 89.2188 386.709 89.4055 387.642 89.4055C388.469 89.4055 389.176 89.2721 389.762 89.0055C390.376 88.7388 390.842 88.3655 391.162 87.8855C391.509 87.4055 391.682 86.8188 391.682 86.1255C391.682 85.3788 391.482 84.7388 391.082 84.2055C390.709 83.6721 390.189 83.2188 389.522 82.8455C388.856 82.4721 388.082 82.1388 387.202 81.8455C386.349 81.5255 385.429 81.2055 384.442 80.8855C382.229 80.1655 380.536 79.2055 379.362 78.0055C378.216 76.8055 377.642 75.2055 377.642 73.2055C377.642 71.4988 378.042 70.0455 378.842 68.8455C379.669 67.6455 380.802 66.7255 382.242 66.0855C383.709 65.4455 385.362 65.1255 387.202 65.1255C389.096 65.1255 390.762 65.4588 392.202 66.1255C393.642 66.7655 394.776 67.6988 395.602 68.9255C396.456 70.1521 396.909 71.6055 396.962 73.2855H390.962C390.936 72.6721 390.762 72.1121 390.442 71.6055C390.122 71.0721 389.682 70.6455 389.122 70.3255C388.562 70.0055 387.896 69.8455 387.122 69.8455C386.456 69.8188 385.842 69.9255 385.282 70.1655C384.749 70.3788 384.322 70.7121 384.002 71.1655C383.682 71.5921 383.522 72.1388 383.522 72.8055C383.522 73.4721 383.682 74.0321 384.002 74.4855C384.322 74.9121 384.762 75.2855 385.322 75.6055C385.909 75.9255 386.589 76.2321 387.362 76.5255C388.136 76.7921 388.976 77.0721 389.882 77.3655C391.296 77.8455 392.589 78.4188 393.762 79.0855C394.936 79.7255 395.869 80.5655 396.562 81.6055C397.282 82.6455 397.642 84.0188 397.642 85.7255C397.642 87.2188 397.256 88.6055 396.482 89.8855C395.709 91.1388 394.589 92.1521 393.122 92.9255C391.656 93.6988 389.842 94.0855 387.682 94.0855Z" fill="#A259E8" fill-opacity="0.6"/>
<path d="M115.124 123.605V110.915H121.1C122.084 110.915 122.924 111.071 123.62 111.383C124.316 111.683 124.844 112.121 125.204 112.697C125.576 113.273 125.762 113.975 125.762 114.803C125.762 115.607 125.576 116.309 125.204 116.909C124.832 117.497 124.298 117.953 123.602 118.277C122.906 118.589 122.072 118.745 121.1 118.745H117.068V123.605H115.124ZM117.068 117.107H120.812C121.808 117.107 122.552 116.927 123.044 116.567C123.548 116.195 123.8 115.613 123.8 114.821C123.8 114.017 123.554 113.441 123.062 113.093C122.57 112.733 121.82 112.553 120.812 112.553H117.068V117.107ZM133.167 123.767C132.147 123.767 131.259 123.575 130.503 123.191C129.759 122.795 129.189 122.243 128.793 121.535C128.397 120.827 128.199 120.017 128.199 119.105C128.199 118.169 128.397 117.359 128.793 116.675C129.189 115.979 129.759 115.439 130.503 115.055C131.247 114.659 132.129 114.461 133.149 114.461C134.181 114.461 135.063 114.659 135.795 115.055C136.539 115.439 137.109 115.979 137.505 116.675C137.901 117.359 138.099 118.169 138.099 119.105C138.099 120.017 137.901 120.827 137.505 121.535C137.109 122.243 136.539 122.795 135.795 123.191C135.063 123.575 134.187 123.767 133.167 123.767ZM133.149 122.129C134.121 122.129 134.877 121.847 135.417 121.283C135.957 120.719 136.227 119.987 136.227 119.087C136.227 118.199 135.957 117.479 135.417 116.927C134.877 116.363 134.121 116.081 133.149 116.081C132.177 116.081 131.421 116.363 130.881 116.927C130.341 117.479 130.071 118.199 130.071 119.087C130.071 119.987 130.341 120.719 130.881 121.283C131.421 121.847 132.177 122.129 133.149 122.129ZM144.93 123.767C144.354 123.767 143.79 123.725 143.238 123.641C142.698 123.557 142.2 123.437 141.744 123.281C141.288 123.125 140.916 122.933 140.628 122.705L141.186 121.337C141.522 121.553 141.894 121.733 142.302 121.877C142.722 122.009 143.154 122.105 143.598 122.165C144.054 122.225 144.492 122.255 144.912 122.255C145.704 122.255 146.322 122.159 146.766 121.967C147.222 121.775 147.45 121.487 147.45 121.103C147.45 120.779 147.33 120.533 147.09 120.365C146.862 120.197 146.46 120.077 145.884 120.005L143.616 119.717C142.692 119.597 141.996 119.315 141.528 118.871C141.06 118.415 140.826 117.851 140.826 117.179C140.826 116.651 140.982 116.183 141.294 115.775C141.618 115.367 142.092 115.049 142.716 114.821C143.34 114.581 144.108 114.461 145.02 114.461C145.524 114.461 146.028 114.503 146.532 114.587C147.048 114.659 147.522 114.773 147.954 114.929C148.386 115.085 148.722 115.283 148.962 115.523L148.35 116.837C148.062 116.621 147.726 116.453 147.342 116.333C146.97 116.201 146.58 116.111 146.172 116.063C145.764 116.003 145.362 115.973 144.966 115.973C144.198 115.973 143.604 116.075 143.184 116.279C142.776 116.483 142.572 116.771 142.572 117.143C142.572 117.467 142.686 117.713 142.914 117.881C143.142 118.037 143.526 118.151 144.066 118.223L146.262 118.529C147.258 118.673 147.996 118.955 148.476 119.375C148.956 119.795 149.196 120.365 149.196 121.085C149.196 121.625 149.022 122.099 148.674 122.507C148.326 122.903 147.834 123.215 147.198 123.443C146.562 123.659 145.806 123.767 144.93 123.767ZM156.384 123.767C155.208 123.767 154.302 123.473 153.666 122.885C153.042 122.285 152.73 121.433 152.73 120.329V116.207H150.75V114.623H152.838V112.031H154.656V114.623H158.31V116.207H154.656V120.203C154.656 120.863 154.83 121.349 155.178 121.661C155.526 121.973 156.03 122.129 156.69 122.129C156.99 122.129 157.278 122.105 157.554 122.057C157.83 122.009 158.1 121.925 158.364 121.805L158.652 123.317C158.34 123.485 157.992 123.599 157.608 123.659C157.224 123.731 156.816 123.767 156.384 123.767ZM165.768 123.767C164.64 123.767 163.662 123.587 162.834 123.227C162.018 122.855 161.394 122.321 160.962 121.625C160.542 120.929 160.332 120.095 160.332 119.123C160.332 118.223 160.524 117.425 160.908 116.729C161.304 116.021 161.874 115.469 162.618 115.073C163.362 114.665 164.256 114.461 165.3 114.461C166.272 114.461 167.1 114.653 167.784 115.037C168.48 115.409 169.008 115.943 169.368 116.639C169.728 117.335 169.908 118.163 169.908 119.123V119.681H161.754V118.367H168.63L168.252 118.781C168.252 117.833 167.988 117.119 167.46 116.639C166.944 116.147 166.224 115.901 165.3 115.901C164.7 115.901 164.166 116.015 163.698 116.243C163.23 116.459 162.858 116.789 162.582 117.233C162.306 117.665 162.168 118.199 162.168 118.835V119.069C162.168 119.777 162.312 120.359 162.6 120.815C162.888 121.271 163.308 121.619 163.86 121.859C164.412 122.087 165.078 122.201 165.858 122.201C166.422 122.201 166.986 122.141 167.55 122.021C168.114 121.901 168.618 121.673 169.062 121.337L169.674 122.687C169.182 123.083 168.582 123.365 167.874 123.533C167.178 123.689 166.476 123.767 165.768 123.767ZM182.353 123.767C181.777 123.767 181.213 123.725 180.661 123.641C180.121 123.557 179.623 123.437 179.167 123.281C178.711 123.125 178.339 122.933 178.051 122.705L178.609 121.337C178.945 121.553 179.317 121.733 179.725 121.877C180.145 122.009 180.577 122.105 181.021 122.165C181.477 122.225 181.915 122.255 182.335 122.255C183.127 122.255 183.745 122.159 184.189 121.967C184.645 121.775 184.873 121.487 184.873 121.103C184.873 120.779 184.753 120.533 184.513 120.365C184.285 120.197 183.883 120.077 183.307 120.005L181.039 119.717C180.115 119.597 179.419 119.315 178.951 118.871C178.483 118.415 178.249 117.851 178.249 117.179C178.249 116.651 178.405 116.183 178.717 115.775C179.041 115.367 179.515 115.049 180.139 114.821C180.763 114.581 181.531 114.461 182.443 114.461C182.947 114.461 183.451 114.503 183.955 114.587C184.471 114.659 184.945 114.773 185.377 114.929C185.809 115.085 186.145 115.283 186.385 115.523L185.773 116.837C185.485 116.621 185.149 116.453 184.765 116.333C184.393 116.201 184.003 116.111 183.595 116.063C183.187 116.003 182.785 115.973 182.389 115.973C181.621 115.973 181.027 116.075 180.607 116.279C180.199 116.483 179.995 116.771 179.995 117.143C179.995 117.467 180.109 117.713 180.337 117.881C180.565 118.037 180.949 118.151 181.489 118.223L183.685 118.529C184.681 118.673 185.419 118.955 185.899 119.375C186.379 119.795 186.619 120.365 186.619 121.085C186.619 121.625 186.445 122.099 186.097 122.507C185.749 122.903 185.257 123.215 184.621 123.443C183.985 123.659 183.229 123.767 182.353 123.767ZM193.285 123.767C192.517 123.767 191.851 123.635 191.287 123.371C190.735 123.107 190.309 122.693 190.009 122.129C189.709 121.553 189.559 120.827 189.559 119.951V114.623H191.485V119.807C191.485 120.275 191.563 120.689 191.719 121.049C191.887 121.397 192.133 121.667 192.457 121.859C192.793 122.039 193.231 122.129 193.771 122.129C194.335 122.129 194.839 122.003 195.283 121.751C195.727 121.499 196.075 121.169 196.327 120.761C196.579 120.353 196.705 119.921 196.705 119.465V114.623H198.631V123.605H196.885V121.679H196.759C196.387 122.315 195.925 122.825 195.373 123.209C194.821 123.581 194.125 123.767 193.285 123.767ZM205.581 123.767C204.873 123.767 204.237 123.647 203.673 123.407C203.121 123.167 202.683 122.843 202.359 122.435C202.047 122.015 201.891 121.541 201.891 121.013C201.891 120.365 202.095 119.837 202.503 119.429C202.923 119.021 203.553 118.721 204.393 118.529C205.233 118.337 206.283 118.241 207.543 118.241H209.469V119.537H207.669C206.985 119.537 206.397 119.561 205.905 119.609C205.425 119.645 205.029 119.717 204.717 119.825C204.405 119.921 204.171 120.059 204.015 120.239C203.871 120.419 203.799 120.647 203.799 120.923C203.799 121.391 204.003 121.739 204.411 121.967C204.819 122.183 205.335 122.291 205.959 122.291C206.523 122.291 207.045 122.177 207.525 121.949C208.017 121.721 208.413 121.415 208.713 121.031C209.013 120.647 209.163 120.233 209.163 119.789V117.809C209.163 117.161 208.923 116.699 208.443 116.423C207.963 116.135 207.285 115.991 206.409 115.991C205.809 115.991 205.215 116.063 204.627 116.207C204.051 116.351 203.469 116.591 202.881 116.927L202.305 115.523C202.737 115.283 203.187 115.085 203.655 114.929C204.135 114.773 204.627 114.659 205.131 114.587C205.647 114.503 206.163 114.461 206.679 114.461C207.543 114.461 208.299 114.587 208.947 114.839C209.607 115.079 210.117 115.457 210.477 115.973C210.849 116.489 211.035 117.167 211.035 118.007V123.605H209.415V121.697H209.325C209.109 122.045 208.827 122.381 208.479 122.705C208.143 123.017 207.735 123.275 207.255 123.479C206.775 123.671 206.217 123.767 205.581 123.767ZM220.898 123.605V116.099H218.882V114.623H221.366L220.898 115.091V114.641C220.898 113.441 221.264 112.529 221.996 111.905C222.74 111.281 223.796 110.933 225.164 110.861L226.334 110.807L226.496 112.391L225.11 112.463C224.69 112.487 224.306 112.553 223.958 112.661C223.61 112.757 223.334 112.937 223.13 113.201C222.926 113.465 222.824 113.855 222.824 114.371V114.785L222.482 114.623H225.992V116.099H222.824V123.605H220.898ZM232.8 123.767C231.78 123.767 230.892 123.575 230.136 123.191C229.392 122.795 228.822 122.243 228.426 121.535C228.03 120.827 227.832 120.017 227.832 119.105C227.832 118.169 228.03 117.359 228.426 116.675C228.822 115.979 229.392 115.439 230.136 115.055C230.88 114.659 231.762 114.461 232.782 114.461C233.814 114.461 234.696 114.659 235.428 115.055C236.172 115.439 236.742 115.979 237.138 116.675C237.534 117.359 237.732 118.169 237.732 119.105C237.732 120.017 237.534 120.827 237.138 121.535C236.742 122.243 236.172 122.795 235.428 123.191C234.696 123.575 233.82 123.767 232.8 123.767ZM232.782 122.129C233.754 122.129 234.51 121.847 235.05 121.283C235.59 120.719 235.86 119.987 235.86 119.087C235.86 118.199 235.59 117.479 235.05 116.927C234.51 116.363 233.754 116.081 232.782 116.081C231.81 116.081 231.054 116.363 230.514 116.927C229.974 117.479 229.704 118.199 229.704 119.087C229.704 119.987 229.974 120.719 230.514 121.283C231.054 121.847 231.81 122.129 232.782 122.129ZM245.012 123.767C243.836 123.767 242.93 123.473 242.294 122.885C241.67 122.285 241.358 121.433 241.358 120.329V116.207H239.378V114.623H241.466V112.031H243.284V114.623H246.938V116.207H243.284V120.203C243.284 120.863 243.458 121.349 243.806 121.661C244.154 121.973 244.658 122.129 245.318 122.129C245.618 122.129 245.906 122.105 246.182 122.057C246.458 122.009 246.728 121.925 246.992 121.805L247.28 123.317C246.968 123.485 246.62 123.599 246.236 123.659C245.852 123.731 245.444 123.767 245.012 123.767ZM253.929 123.767C252.909 123.767 252.021 123.575 251.265 123.191C250.521 122.795 249.951 122.243 249.555 121.535C249.159 120.827 248.961 120.017 248.961 119.105C248.961 118.169 249.159 117.359 249.555 116.675C249.951 115.979 250.521 115.439 251.265 115.055C252.009 114.659 252.891 114.461 253.911 114.461C254.943 114.461 255.825 114.659 256.557 115.055C257.301 115.439 257.871 115.979 258.267 116.675C258.663 117.359 258.861 118.169 258.861 119.105C258.861 120.017 258.663 120.827 258.267 121.535C257.871 122.243 257.301 122.795 256.557 123.191C255.825 123.575 254.949 123.767 253.929 123.767ZM253.911 122.129C254.883 122.129 255.639 121.847 256.179 121.283C256.719 120.719 256.989 119.987 256.989 119.087C256.989 118.199 256.719 117.479 256.179 116.927C255.639 116.363 254.883 116.081 253.911 116.081C252.939 116.081 252.183 116.363 251.643 116.927C251.103 117.479 250.833 118.199 250.833 119.087C250.833 119.987 251.103 120.719 251.643 121.283C252.183 121.847 252.939 122.129 253.911 122.129ZM267.607 123.605V114.623H269.353V116.549H269.461C269.809 115.913 270.289 115.409 270.901 115.037C271.513 114.653 272.221 114.461 273.025 114.461C273.805 114.461 274.471 114.593 275.023 114.857C275.587 115.121 276.013 115.541 276.301 116.117C276.589 116.693 276.733 117.431 276.733 118.331V123.605H274.807V118.421C274.807 117.929 274.729 117.515 274.573 117.179C274.417 116.831 274.177 116.567 273.853 116.387C273.529 116.195 273.097 116.099 272.557 116.099C271.969 116.099 271.447 116.225 270.991 116.477C270.535 116.729 270.175 117.059 269.911 117.467C269.659 117.875 269.533 118.319 269.533 118.799V123.605H267.607ZM284.743 123.767C283.723 123.767 282.835 123.575 282.079 123.191C281.335 122.795 280.765 122.243 280.369 121.535C279.973 120.827 279.775 120.017 279.775 119.105C279.775 118.169 279.973 117.359 280.369 116.675C280.765 115.979 281.335 115.439 282.079 115.055C282.823 114.659 283.705 114.461 284.725 114.461C285.757 114.461 286.639 114.659 287.371 115.055C288.115 115.439 288.685 115.979 289.081 116.675C289.477 117.359 289.675 118.169 289.675 119.105C289.675 120.017 289.477 120.827 289.081 121.535C288.685 122.243 288.115 122.795 287.371 123.191C286.639 123.575 285.763 123.767 284.743 123.767ZM284.725 122.129C285.697 122.129 286.453 121.847 286.993 121.283C287.533 120.719 287.803 119.987 287.803 119.087C287.803 118.199 287.533 117.479 286.993 116.927C286.453 116.363 285.697 116.081 284.725 116.081C283.753 116.081 282.997 116.363 282.457 116.927C281.917 117.479 281.647 118.199 281.647 119.087C281.647 119.987 281.917 120.719 282.457 121.283C282.997 121.847 283.753 122.129 284.725 122.129ZM302.094 123.605V112.607H297.144V110.915H308.988V112.607H304.038V123.605H302.094ZM313.411 123.605L310.081 114.623H312.043L314.401 121.463H314.473L317.263 114.623H318.883L321.673 121.463H321.745L324.121 114.623H326.047L322.717 123.605H320.953L318.109 116.711H318.037L315.175 123.605H313.411ZM328.247 112.589V110.555H330.569V112.589H328.247ZM328.463 123.605V114.623H330.389V123.605H328.463ZM338.229 123.767C337.053 123.767 336.147 123.473 335.511 122.885C334.887 122.285 334.575 121.433 334.575 120.329V116.207H332.595V114.623H334.683V112.031H336.501V114.623H340.155V116.207H336.501V120.203C336.501 120.863 336.675 121.349 337.023 121.661C337.371 121.973 337.875 122.129 338.535 122.129C338.835 122.129 339.123 122.105 339.399 122.057C339.675 122.009 339.945 121.925 340.209 121.805L340.497 123.317C340.185 123.485 339.837 123.599 339.453 123.659C339.069 123.731 338.661 123.767 338.229 123.767ZM346.966 123.767C345.79 123.767 344.884 123.473 344.248 122.885C343.624 122.285 343.312 121.433 343.312 120.329V116.207H341.332V114.623H343.42V112.031H345.238V114.623H348.892V116.207H345.238V120.203C345.238 120.863 345.412 121.349 345.76 121.661C346.108 121.973 346.612 122.129 347.272 122.129C347.572 122.129 347.86 122.105 348.136 122.057C348.412 122.009 348.682 121.925 348.946 121.805L349.234 123.317C348.922 123.485 348.574 123.599 348.19 123.659C347.806 123.731 347.398 123.767 346.966 123.767ZM356.35 123.767C355.222 123.767 354.244 123.587 353.416 123.227C352.6 122.855 351.976 122.321 351.544 121.625C351.124 120.929 350.914 120.095 350.914 119.123C350.914 118.223 351.106 117.425 351.49 116.729C351.886 116.021 352.456 115.469 353.2 115.073C353.944 114.665 354.838 114.461 355.882 114.461C356.854 114.461 357.682 114.653 358.366 115.037C359.062 115.409 359.59 115.943 359.95 116.639C360.31 117.335 360.49 118.163 360.49 119.123V119.681H352.336V118.367H359.212L358.834 118.781C358.834 117.833 358.57 117.119 358.042 116.639C357.526 116.147 356.806 115.901 355.882 115.901C355.282 115.901 354.748 116.015 354.28 116.243C353.812 116.459 353.44 116.789 353.164 117.233C352.888 117.665 352.75 118.199 352.75 118.835V119.069C352.75 119.777 352.894 120.359 353.182 120.815C353.47 121.271 353.89 121.619 354.442 121.859C354.994 122.087 355.66 122.201 356.44 122.201C357.004 122.201 357.568 122.141 358.132 122.021C358.696 121.901 359.2 121.673 359.644 121.337L360.256 122.687C359.764 123.083 359.164 123.365 358.456 123.533C357.76 123.689 357.058 123.767 356.35 123.767ZM363.496 123.605V114.623H365.188V116.729H365.278C365.53 116.081 365.956 115.565 366.556 115.181C367.168 114.785 367.876 114.563 368.68 114.515L369.706 114.461L369.904 116.243L368.302 116.351C367.39 116.423 366.682 116.699 366.178 117.179C365.674 117.659 365.422 118.223 365.422 118.871V123.605H363.496Z" fill="#C79BF1"/>
<path d="M840.672 140V127.4H841.932V140H840.672ZM848.566 140.216C847.69 140.216 846.922 140.012 846.262 139.604C845.614 139.184 845.11 138.614 844.75 137.894C844.39 137.174 844.21 136.358 844.21 135.446C844.21 134.534 844.39 133.724 844.75 133.016C845.11 132.296 845.62 131.732 846.28 131.324C846.94 130.916 847.708 130.712 848.584 130.712C849.352 130.712 850.024 130.88 850.6 131.216C851.188 131.54 851.638 132.002 851.95 132.602V127.04H853.21V140H852.058L851.95 138.362C851.758 138.674 851.506 138.974 851.194 139.262C850.894 139.55 850.522 139.784 850.078 139.964C849.646 140.132 849.142 140.216 848.566 140.216ZM848.674 139.118C849.31 139.118 849.862 138.968 850.33 138.668C850.81 138.368 851.182 137.942 851.446 137.39C851.722 136.838 851.86 136.196 851.86 135.464C851.86 134.732 851.722 134.09 851.446 133.538C851.182 132.986 850.81 132.56 850.33 132.26C849.862 131.96 849.31 131.81 848.674 131.81C848.05 131.81 847.498 131.96 847.018 132.26C846.538 132.56 846.16 132.986 845.884 133.538C845.62 134.078 845.488 134.72 845.488 135.464C845.488 136.208 845.626 136.856 845.902 137.408C846.178 137.948 846.556 138.368 847.036 138.668C847.516 138.968 848.062 139.118 848.674 139.118ZM859.656 140.216C858.816 140.216 858.072 140.018 857.424 139.622C856.788 139.226 856.284 138.674 855.912 137.966C855.552 137.246 855.372 136.406 855.372 135.446C855.372 134.486 855.552 133.652 855.912 132.944C856.272 132.236 856.776 131.69 857.424 131.306C858.084 130.91 858.84 130.712 859.692 130.712C860.568 130.712 861.306 130.91 861.906 131.306C862.518 131.702 862.98 132.218 863.292 132.854C863.616 133.49 863.778 134.186 863.778 134.942C863.778 135.062 863.778 135.188 863.778 135.32C863.778 135.44 863.772 135.584 863.76 135.752H856.326V134.69H862.554C862.53 133.766 862.242 133.052 861.69 132.548C861.15 132.044 860.466 131.792 859.638 131.792C859.098 131.792 858.594 131.918 858.126 132.17C857.67 132.41 857.298 132.77 857.01 133.25C856.734 133.718 856.596 134.312 856.596 135.032V135.5C856.596 136.316 856.74 136.994 857.028 137.534C857.316 138.074 857.694 138.476 858.162 138.74C858.642 139.004 859.14 139.136 859.656 139.136C860.34 139.136 860.904 138.986 861.348 138.686C861.792 138.374 862.11 137.948 862.302 137.408H863.544C863.388 137.936 863.136 138.416 862.788 138.848C862.452 139.28 862.02 139.616 861.492 139.856C860.964 140.096 860.352 140.216 859.656 140.216ZM868.739 140.216C868.007 140.216 867.395 140.084 866.903 139.82C866.423 139.556 866.063 139.214 865.823 138.794C865.595 138.374 865.481 137.912 865.481 137.408C865.481 136.784 865.637 136.256 865.949 135.824C866.273 135.392 866.723 135.068 867.299 134.852C867.875 134.636 868.547 134.528 869.314 134.528H871.763C871.763 133.94 871.673 133.442 871.493 133.034C871.313 132.626 871.049 132.32 870.701 132.116C870.353 131.9 869.915 131.792 869.387 131.792C868.775 131.792 868.247 131.948 867.803 132.26C867.359 132.572 867.083 133.028 866.975 133.628H865.661C865.733 132.992 865.949 132.458 866.309 132.026C866.681 131.594 867.137 131.27 867.677 131.054C868.217 130.826 868.787 130.712 869.387 130.712C870.227 130.712 870.911 130.874 871.439 131.198C871.967 131.51 872.363 131.942 872.627 132.494C872.891 133.046 873.023 133.682 873.023 134.402V140H871.871L871.799 138.344C871.691 138.596 871.541 138.836 871.349 139.064C871.169 139.292 870.953 139.49 870.701 139.658C870.461 139.826 870.179 139.958 869.854 140.054C869.531 140.162 869.159 140.216 868.739 140.216ZM868.883 139.118C869.327 139.118 869.723 139.028 870.071 138.848C870.431 138.656 870.737 138.41 870.989 138.11C871.241 137.81 871.433 137.474 871.565 137.102C871.697 136.718 871.763 136.322 871.763 135.914V135.59H869.405C868.769 135.59 868.259 135.668 867.875 135.824C867.491 135.98 867.215 136.19 867.047 136.454C866.879 136.718 866.795 137.024 866.795 137.372C866.795 137.72 866.873 138.026 867.029 138.29C867.185 138.542 867.419 138.746 867.731 138.902C868.055 139.046 868.439 139.118 868.883 139.118ZM875.403 140V127.04H876.663V140H875.403ZM884.174 143.96V130.928H885.326L885.434 132.566C885.626 132.242 885.878 131.942 886.19 131.666C886.502 131.378 886.874 131.15 887.306 130.982C887.75 130.802 888.254 130.712 888.818 130.712C889.694 130.712 890.456 130.922 891.104 131.342C891.764 131.762 892.274 132.332 892.634 133.052C892.994 133.76 893.174 134.57 893.174 135.482C893.174 136.394 892.988 137.21 892.616 137.93C892.256 138.638 891.752 139.196 891.104 139.604C890.456 140.012 889.688 140.216 888.8 140.216C888.032 140.216 887.354 140.054 886.766 139.73C886.19 139.394 885.746 138.926 885.434 138.326V143.96H884.174ZM888.71 139.118C889.334 139.118 889.88 138.968 890.348 138.668C890.828 138.368 891.206 137.948 891.482 137.408C891.758 136.856 891.896 136.208 891.896 135.464C891.896 134.732 891.758 134.09 891.482 133.538C891.206 132.986 890.828 132.56 890.348 132.26C889.88 131.96 889.334 131.81 888.71 131.81C888.086 131.81 887.528 131.96 887.036 132.26C886.556 132.56 886.178 132.986 885.902 133.538C885.638 134.078 885.506 134.72 885.506 135.464C885.506 136.196 885.638 136.838 885.902 137.39C886.178 137.942 886.556 138.368 887.036 138.668C887.528 138.968 888.086 139.118 888.71 139.118ZM898.235 140.216C897.503 140.216 896.891 140.084 896.399 139.82C895.919 139.556 895.559 139.214 895.319 138.794C895.091 138.374 894.977 137.912 894.977 137.408C894.977 136.784 895.133 136.256 895.445 135.824C895.769 135.392 896.219 135.068 896.795 134.852C897.371 134.636 898.043 134.528 898.811 134.528H901.259C901.259 133.94 901.169 133.442 900.989 133.034C900.809 132.626 900.545 132.32 900.197 132.116C899.849 131.9 899.411 131.792 898.883 131.792C898.271 131.792 897.743 131.948 897.299 132.26C896.855 132.572 896.579 133.028 896.471 133.628H895.157C895.229 132.992 895.445 132.458 895.805 132.026C896.177 131.594 896.633 131.27 897.173 131.054C897.713 130.826 898.283 130.712 898.883 130.712C899.723 130.712 900.407 130.874 900.935 131.198C901.463 131.51 901.859 131.942 902.123 132.494C902.387 133.046 902.519 133.682 902.519 134.402V140H901.367L901.295 138.344C901.187 138.596 901.037 138.836 900.845 139.064C900.665 139.292 900.449 139.49 900.197 139.658C899.957 139.826 899.675 139.958 899.351 140.054C899.027 140.162 898.655 140.216 898.235 140.216ZM898.379 139.118C898.823 139.118 899.219 139.028 899.567 138.848C899.927 138.656 900.233 138.41 900.485 138.11C900.737 137.81 900.929 137.474 901.061 137.102C901.193 136.718 901.259 136.322 901.259 135.914V135.59H898.901C898.265 135.59 897.755 135.668 897.371 135.824C896.987 135.98 896.711 136.19 896.543 136.454C896.375 136.718 896.291 137.024 896.291 137.372C896.291 137.72 896.369 138.026 896.525 138.29C896.681 138.542 896.915 138.746 897.227 138.902C897.551 139.046 897.935 139.118 898.379 139.118ZM904.899 140V130.928H906.051L906.141 132.674C906.333 132.254 906.591 131.9 906.915 131.612C907.239 131.324 907.629 131.102 908.085 130.946C908.541 130.79 909.057 130.712 909.633 130.712V132.026H909.147C908.763 132.026 908.391 132.08 908.031 132.188C907.671 132.284 907.353 132.452 907.077 132.692C906.801 132.932 906.579 133.256 906.411 133.664C906.243 134.072 906.159 134.582 906.159 135.194V140H904.899ZM914.301 140.216C913.569 140.216 912.957 140.084 912.465 139.82C911.985 139.556 911.625 139.214 911.385 138.794C911.157 138.374 911.043 137.912 911.043 137.408C911.043 136.784 911.199 136.256 911.511 135.824C911.835 135.392 912.285 135.068 912.861 134.852C913.437 134.636 914.109 134.528 914.877 134.528H917.325C917.325 133.94 917.235 133.442 917.055 133.034C916.875 132.626 916.611 132.32 916.263 132.116C915.915 131.9 915.477 131.792 914.949 131.792C914.337 131.792 913.809 131.948 913.365 132.26C912.921 132.572 912.645 133.028 912.537 133.628H911.223C911.295 132.992 911.511 132.458 911.871 132.026C912.243 131.594 912.699 131.27 913.239 131.054C913.779 130.826 914.349 130.712 914.949 130.712C915.789 130.712 916.473 130.874 917.001 131.198C917.529 131.51 917.925 131.942 918.189 132.494C918.453 133.046 918.585 133.682 918.585 134.402V140H917.433L917.361 138.344C917.253 138.596 917.103 138.836 916.911 139.064C916.731 139.292 916.515 139.49 916.263 139.658C916.023 139.826 915.741 139.958 915.417 140.054C915.093 140.162 914.721 140.216 914.301 140.216ZM914.445 139.118C914.889 139.118 915.285 139.028 915.633 138.848C915.993 138.656 916.299 138.41 916.551 138.11C916.803 137.81 916.995 137.474 917.127 137.102C917.259 136.718 917.325 136.322 917.325 135.914V135.59H914.967C914.331 135.59 913.821 135.668 913.437 135.824C913.053 135.98 912.777 136.19 912.609 136.454C912.441 136.718 912.357 137.024 912.357 137.372C912.357 137.72 912.435 138.026 912.591 138.29C912.747 138.542 912.981 138.746 913.293 138.902C913.617 139.046 914.001 139.118 914.445 139.118ZM929.253 140.216C928.533 140.216 927.897 140.096 927.345 139.856C926.805 139.616 926.367 139.274 926.031 138.83C925.707 138.374 925.509 137.834 925.437 137.21H926.733C926.805 137.558 926.943 137.876 927.147 138.164C927.363 138.452 927.651 138.686 928.011 138.866C928.371 139.034 928.797 139.118 929.289 139.118C929.745 139.118 930.117 139.052 930.405 138.92C930.705 138.776 930.927 138.59 931.071 138.362C931.227 138.122 931.305 137.858 931.305 137.57C931.305 137.174 931.209 136.868 931.017 136.652C930.837 136.424 930.573 136.256 930.225 136.148C929.877 136.04 929.457 135.938 928.965 135.842C928.557 135.77 928.167 135.674 927.795 135.554C927.423 135.434 927.087 135.278 926.787 135.086C926.499 134.894 926.271 134.654 926.103 134.366C925.935 134.066 925.851 133.718 925.851 133.322C925.851 132.806 925.977 132.356 926.229 131.972C926.493 131.576 926.865 131.27 927.345 131.054C927.825 130.826 928.389 130.712 929.037 130.712C929.961 130.712 930.717 130.946 931.305 131.414C931.893 131.87 932.235 132.542 932.331 133.43H931.071C931.023 132.938 930.819 132.548 930.459 132.26C930.099 131.972 929.613 131.828 929.001 131.828C928.401 131.828 927.939 131.954 927.615 132.206C927.303 132.446 927.147 132.776 927.147 133.196C927.147 133.46 927.231 133.688 927.399 133.88C927.567 134.072 927.813 134.24 928.137 134.384C928.473 134.516 928.881 134.63 929.361 134.726C929.937 134.834 930.465 134.978 930.945 135.158C931.437 135.326 931.833 135.59 932.133 135.95C932.445 136.298 932.601 136.796 932.601 137.444C932.613 137.984 932.481 138.464 932.205 138.884C931.929 139.304 931.539 139.634 931.035 139.874C930.531 140.102 929.937 140.216 929.253 140.216ZM938.111 140.216C937.427 140.216 936.821 140.084 936.293 139.82C935.777 139.544 935.375 139.13 935.087 138.578C934.799 138.014 934.655 137.294 934.655 136.418V130.928H935.915V136.274C935.915 137.234 936.125 137.948 936.545 138.416C936.977 138.884 937.571 139.118 938.327 139.118C938.867 139.118 939.347 138.992 939.767 138.74C940.199 138.488 940.535 138.116 940.775 137.624C941.027 137.12 941.153 136.508 941.153 135.788V130.928H942.413V140H941.261L941.189 138.38C940.901 138.968 940.481 139.424 939.929 139.748C939.389 140.06 938.783 140.216 938.111 140.216ZM947.875 140.216C947.143 140.216 946.531 140.084 946.039 139.82C945.559 139.556 945.199 139.214 944.959 138.794C944.731 138.374 944.617 137.912 944.617 137.408C944.617 136.784 944.773 136.256 945.085 135.824C945.409 135.392 945.859 135.068 946.435 134.852C947.011 134.636 947.683 134.528 948.451 134.528H950.899C950.899 133.94 950.809 133.442 950.629 133.034C950.449 132.626 950.185 132.32 949.837 132.116C949.489 131.9 949.051 131.792 948.523 131.792C947.911 131.792 947.383 131.948 946.939 132.26C946.495 132.572 946.219 133.028 946.111 133.628H944.797C944.869 132.992 945.085 132.458 945.445 132.026C945.817 131.594 946.273 131.27 946.813 131.054C947.353 130.826 947.923 130.712 948.523 130.712C949.363 130.712 950.047 130.874 950.575 131.198C951.103 131.51 951.499 131.942 951.763 132.494C952.027 133.046 952.159 133.682 952.159 134.402V140H951.007L950.935 138.344C950.827 138.596 950.677 138.836 950.485 139.064C950.305 139.292 950.089 139.49 949.837 139.658C949.597 139.826 949.315 139.958 948.991 140.054C948.667 140.162 948.295 140.216 947.875 140.216ZM948.019 139.118C948.463 139.118 948.859 139.028 949.207 138.848C949.567 138.656 949.873 138.41 950.125 138.11C950.377 137.81 950.569 137.474 950.701 137.102C950.833 136.718 950.899 136.322 950.899 135.914V135.59H948.541C947.905 135.59 947.395 135.668 947.011 135.824C946.627 135.98 946.351 136.19 946.183 136.454C946.015 136.718 945.931 137.024 945.931 137.372C945.931 137.72 946.009 138.026 946.165 138.29C946.321 138.542 946.555 138.746 946.867 138.902C947.191 139.046 947.575 139.118 948.019 139.118ZM959.497 143.96V130.928H960.649L960.757 132.566C960.949 132.242 961.201 131.942 961.513 131.666C961.825 131.378 962.197 131.15 962.629 130.982C963.073 130.802 963.577 130.712 964.141 130.712C965.017 130.712 965.779 130.922 966.427 131.342C967.087 131.762 967.597 132.332 967.957 133.052C968.317 133.76 968.497 134.57 968.497 135.482C968.497 136.394 968.311 137.21 967.939 137.93C967.579 138.638 967.075 139.196 966.427 139.604C965.779 140.012 965.011 140.216 964.123 140.216C963.355 140.216 962.677 140.054 962.089 139.73C961.513 139.394 961.069 138.926 960.757 138.326V143.96H959.497ZM964.033 139.118C964.657 139.118 965.203 138.968 965.671 138.668C966.151 138.368 966.529 137.948 966.805 137.408C967.081 136.856 967.219 136.208 967.219 135.464C967.219 134.732 967.081 134.09 966.805 133.538C966.529 132.986 966.151 132.56 965.671 132.26C965.203 131.96 964.657 131.81 964.033 131.81C963.409 131.81 962.851 131.96 962.359 132.26C961.879 132.56 961.501 132.986 961.225 133.538C960.961 134.078 960.829 134.72 960.829 135.464C960.829 136.196 960.961 136.838 961.225 137.39C961.501 137.942 961.879 138.368 962.359 138.668C962.851 138.968 963.409 139.118 964.033 139.118ZM974.547 140.216C973.707 140.216 972.963 140.018 972.315 139.622C971.679 139.226 971.175 138.674 970.803 137.966C970.443 137.246 970.263 136.406 970.263 135.446C970.263 134.486 970.443 133.652 970.803 132.944C971.163 132.236 971.667 131.69 972.315 131.306C972.975 130.91 973.731 130.712 974.583 130.712C975.459 130.712 976.197 130.91 976.797 131.306C977.409 131.702 977.871 132.218 978.183 132.854C978.507 133.49 978.669 134.186 978.669 134.942C978.669 135.062 978.669 135.188 978.669 135.32C978.669 135.44 978.663 135.584 978.651 135.752H971.217V134.69H977.445C977.421 133.766 977.133 133.052 976.581 132.548C976.041 132.044 975.357 131.792 974.529 131.792C973.989 131.792 973.485 131.918 973.017 132.17C972.561 132.41 972.189 132.77 971.901 133.25C971.625 133.718 971.487 134.312 971.487 135.032V135.5C971.487 136.316 971.631 136.994 971.919 137.534C972.207 138.074 972.585 138.476 973.053 138.74C973.533 139.004 974.031 139.136 974.547 139.136C975.231 139.136 975.795 138.986 976.239 138.686C976.683 138.374 977.001 137.948 977.193 137.408H978.435C978.279 137.936 978.027 138.416 977.679 138.848C977.343 139.28 976.911 139.616 976.383 139.856C975.855 140.096 975.243 140.216 974.547 140.216ZM980.731 140V127.04H981.991V140H980.731ZM988.434 140.216C987.594 140.216 986.85 140.018 986.202 139.622C985.566 139.226 985.062 138.674 984.69 137.966C984.33 137.246 984.15 136.406 984.15 135.446C984.15 134.486 984.33 133.652 984.69 132.944C985.05 132.236 985.554 131.69 986.202 131.306C986.862 130.91 987.618 130.712 988.47 130.712C989.346 130.712 990.084 130.91 990.684 131.306C991.296 131.702 991.758 132.218 992.07 132.854C992.394 133.49 992.556 134.186 992.556 134.942C992.556 135.062 992.556 135.188 992.556 135.32C992.556 135.44 992.55 135.584 992.538 135.752H985.104V134.69H991.332C991.308 133.766 991.02 133.052 990.468 132.548C989.928 132.044 989.244 131.792 988.416 131.792C987.876 131.792 987.372 131.918 986.904 132.17C986.448 132.41 986.076 132.77 985.788 133.25C985.512 133.718 985.374 134.312 985.374 135.032V135.5C985.374 136.316 985.518 136.994 985.806 137.534C986.094 138.074 986.472 138.476 986.94 138.74C987.42 139.004 987.918 139.136 988.434 139.136C989.118 139.136 989.682 138.986 990.126 138.686C990.57 138.374 990.888 137.948 991.08 137.408H992.322C992.166 137.936 991.914 138.416 991.566 138.848C991.23 139.28 990.798 139.616 990.27 139.856C989.742 140.096 989.13 140.216 988.434 140.216ZM995.032 140.09C994.768 140.09 994.546 140 994.366 139.82C994.198 139.64 994.114 139.418 994.114 139.154C994.114 138.89 994.198 138.674 994.366 138.506C994.546 138.326 994.768 138.236 995.032 138.236C995.296 138.236 995.512 138.326 995.68 138.506C995.86 138.674 995.95 138.896 995.95 139.172C995.95 139.424 995.86 139.64 995.68 139.82C995.512 140 995.296 140.09 995.032 140.09Z" fill="white"/>
<rect x="1506.3" y="-450.43" width="783.818" height="663.767" transform="rotate(59.4555 1506.3 -450.43)" fill="#B8E4C9"/>
<line x1="1547.75" y1="19.709" x2="1035.75" y2="18.895" stroke="white" stroke-width="2"/>
<line y1="-1" x2="144" y2="-1" transform="matrix(0.00349935 0.999994 0.999994 -0.00349935 1547.75 17.1035)" stroke="white" stroke-width="2"/>
<line x1="1035.61" y1="18.3871" x2="1121.11" y2="162.089" stroke="white" stroke-width="2"/>
<line x1="1547.26" y1="162.105" x2="1120.25" y2="161.637" stroke="white" stroke-width="2"/>
<path d="M1135.68 89L1141 63.52H1145.59L1140.27 89H1135.68ZM1124.8 89L1130.12 63.52H1134.74L1129.42 89H1124.8ZM1121.05 83.085V78.675H1146.85V83.085H1121.05ZM1122.98 73.705V69.33H1148.81V73.705H1122.98ZM1152.56 89V64.5H1157.46V89H1152.56ZM1162.23 89V64.5H1170.56C1173.39 64.5 1175.73 65.0133 1177.6 66.04C1179.47 67.0433 1180.84 68.4667 1181.73 70.31C1182.64 72.13 1183.09 74.2767 1183.09 76.75C1183.09 79.2 1182.64 81.3467 1181.73 83.19C1180.84 85.0333 1179.47 86.4683 1177.6 87.495C1175.76 88.4983 1173.4 89 1170.53 89H1162.23ZM1167.13 84.8H1170.28C1172.24 84.8 1173.78 84.485 1174.9 83.855C1176.05 83.2017 1176.86 82.28 1177.35 81.09C1177.84 79.8767 1178.09 78.43 1178.09 76.75C1178.09 75.07 1177.84 73.635 1177.35 72.445C1176.86 71.2317 1176.05 70.2983 1174.9 69.645C1173.78 68.9917 1172.24 68.665 1170.28 68.665H1167.13V84.8ZM1187.05 89V64.5H1203.25V68.455H1191.95V74.65H1202.2V78.465H1191.95V85.045H1203.25V89H1187.05ZM1205.91 89L1214.84 64.5H1220.4L1229.33 89H1224.15L1217.6 70.065L1211.02 89H1205.91ZM1209.83 83.505L1211.13 79.69H1223.73L1224.99 83.505H1209.83ZM1232.47 89V64.5H1237.37V85.185H1248.08V89H1232.47ZM1252.13 89V64.5H1261.44C1263.42 64.5 1265.06 64.8383 1266.37 65.515C1267.68 66.1917 1268.65 67.1133 1269.28 68.28C1269.93 69.4233 1270.26 70.73 1270.26 72.2C1270.26 73.5533 1269.94 74.8133 1269.31 75.98C1268.7 77.1233 1267.75 78.0567 1266.44 78.78C1265.13 79.5033 1263.47 79.865 1261.44 79.865H1257.03V89H1252.13ZM1257.03 75.91H1261.12C1262.59 75.91 1263.64 75.5717 1264.27 74.895C1264.92 74.2183 1265.25 73.32 1265.25 72.2C1265.25 71.0333 1264.92 70.1233 1264.27 69.47C1263.64 68.8167 1262.59 68.49 1261.12 68.49H1257.03V75.91ZM1269.66 89L1278.58 64.5H1284.15L1293.07 89H1287.89L1281.35 70.065L1274.77 89H1269.66ZM1273.58 83.505L1274.87 79.69H1287.47L1288.73 83.505H1273.58ZM1296.22 89V64.5H1305.49C1307.48 64.5 1309.11 64.8383 1310.39 65.515C1311.7 66.1917 1312.67 67.1017 1313.3 68.245C1313.95 69.365 1314.28 70.625 1314.28 72.025C1314.28 73.3317 1313.96 74.5567 1313.33 75.7C1312.73 76.8433 1311.77 77.765 1310.46 78.465C1309.16 79.1417 1307.49 79.48 1305.46 79.48H1301.12V89H1296.22ZM1308.89 89L1303.88 78.255H1309.2L1314.49 89H1308.89ZM1301.12 75.91H1305.21C1306.59 75.91 1307.6 75.5717 1308.26 74.895C1308.93 74.2183 1309.27 73.32 1309.27 72.2C1309.27 71.1033 1308.95 70.2283 1308.29 69.575C1307.64 68.9217 1306.6 68.595 1305.18 68.595H1301.12V75.91ZM1316.79 89L1325.72 64.5H1331.28L1340.21 89H1335.03L1328.48 70.065L1321.9 89H1316.79ZM1320.71 83.505L1322.01 79.69H1334.61L1335.87 83.505H1320.71ZM1351.86 89.42C1350.08 89.42 1348.5 89.1167 1347.1 88.51C1345.72 87.9033 1344.62 87.0167 1343.81 85.85C1342.99 84.6833 1342.57 83.2717 1342.55 81.615H1347.73C1347.75 82.315 1347.93 82.945 1348.25 83.505C1348.6 84.065 1349.08 84.5083 1349.69 84.835C1350.29 85.1617 1351.01 85.325 1351.82 85.325C1352.55 85.325 1353.16 85.2083 1353.68 84.975C1354.21 84.7417 1354.62 84.415 1354.9 83.995C1355.21 83.575 1355.36 83.0617 1355.36 82.455C1355.36 81.8017 1355.18 81.2417 1354.83 80.775C1354.51 80.3083 1354.05 79.9117 1353.47 79.585C1352.88 79.2583 1352.21 78.9667 1351.44 78.71C1350.69 78.43 1349.89 78.15 1349.02 77.87C1347.09 77.24 1345.6 76.4 1344.58 75.35C1343.57 74.3 1343.07 72.9 1343.07 71.15C1343.07 69.6567 1343.42 68.385 1344.12 67.335C1344.85 66.285 1345.84 65.48 1347.1 64.92C1348.38 64.36 1349.83 64.08 1351.44 64.08C1353.09 64.08 1354.55 64.3717 1355.81 64.955C1357.07 65.515 1358.06 66.3317 1358.79 67.405C1359.53 68.4783 1359.93 69.75 1359.98 71.22H1354.73C1354.7 70.6833 1354.55 70.1933 1354.27 69.75C1353.99 69.2833 1353.61 68.91 1353.12 68.63C1352.63 68.35 1352.04 68.21 1351.37 68.21C1350.78 68.1867 1350.25 68.28 1349.76 68.49C1349.29 68.6767 1348.92 68.9683 1348.64 69.365C1348.36 69.7383 1348.22 70.2167 1348.22 70.8C1348.22 71.3833 1348.36 71.8733 1348.64 72.27C1348.92 72.6433 1349.3 72.97 1349.79 73.25C1350.31 73.53 1350.9 73.7983 1351.58 74.055C1352.25 74.2883 1352.99 74.5333 1353.78 74.79C1355.02 75.21 1356.15 75.7117 1357.18 76.295C1358.2 76.855 1359.02 77.59 1359.63 78.5C1360.26 79.41 1360.57 80.6117 1360.57 82.105C1360.57 83.4117 1360.23 84.625 1359.56 85.745C1358.88 86.8417 1357.9 87.7283 1356.62 88.405C1355.33 89.0817 1353.75 89.42 1351.86 89.42ZM1374.13 89.42C1372.31 89.42 1370.67 89.0583 1369.2 88.335C1367.73 87.6117 1366.55 86.5267 1365.66 85.08C1364.8 83.61 1364.37 81.755 1364.37 79.515V64.5H1369.27V79.55C1369.27 80.74 1369.47 81.7317 1369.86 82.525C1370.26 83.3183 1370.82 83.925 1371.54 84.345C1372.29 84.7417 1373.19 84.94 1374.24 84.94C1375.29 84.94 1376.17 84.7417 1376.9 84.345C1377.64 83.925 1378.22 83.3183 1378.61 82.525C1379.01 81.7317 1379.21 80.74 1379.21 79.55V64.5H1384.11V79.515C1384.11 81.755 1383.65 83.61 1382.74 85.08C1381.86 86.5267 1380.65 87.6117 1379.14 88.335C1377.62 89.0583 1375.95 89.42 1374.13 89.42ZM1385.94 89L1394.86 64.5H1400.43L1409.35 89H1404.17L1397.63 70.065L1391.05 89H1385.94ZM1389.86 83.505L1391.15 79.69H1403.75L1405.01 83.505H1389.86ZM1412.5 89V64.5H1421.81C1423.79 64.5 1425.44 64.8383 1426.74 65.515C1428.05 66.1917 1429.02 67.1133 1429.65 68.28C1430.3 69.4233 1430.63 70.73 1430.63 72.2C1430.63 73.5533 1430.31 74.8133 1429.68 75.98C1429.08 77.1233 1428.12 78.0567 1426.81 78.78C1425.51 79.5033 1423.84 79.865 1421.81 79.865H1417.4V89H1412.5ZM1417.4 75.91H1421.49C1422.96 75.91 1424.01 75.5717 1424.64 74.895C1425.3 74.2183 1425.62 73.32 1425.62 72.2C1425.62 71.0333 1425.3 70.1233 1424.64 69.47C1424.01 68.8167 1422.96 68.49 1421.49 68.49H1417.4V75.91ZM1434.13 89V64.5H1450.34V68.455H1439.03V74.65H1449.29V78.465H1439.03V85.045H1450.34V89H1434.13ZM1454.61 89V64.5H1459.51V85.185H1470.22V89H1454.61ZM1474.26 89V64.5H1490.46V68.455H1479.16V74.65H1489.41V78.465H1479.16V85.045H1490.46V89H1474.26Z" fill="#FF7CA8"/>
<path d="M1181.12 121V108.31H1187.1C1188.08 108.31 1188.92 108.466 1189.62 108.778C1190.32 109.078 1190.84 109.516 1191.2 110.092C1191.58 110.668 1191.76 111.37 1191.76 112.198C1191.76 113.002 1191.58 113.704 1191.2 114.304C1190.83 114.892 1190.3 115.348 1189.6 115.672C1188.91 115.984 1188.07 116.14 1187.1 116.14H1183.07V121H1181.12ZM1183.07 114.502H1186.81C1187.81 114.502 1188.55 114.322 1189.04 113.962C1189.55 113.59 1189.8 113.008 1189.8 112.216C1189.8 111.412 1189.55 110.836 1189.06 110.488C1188.57 110.128 1187.82 109.948 1186.81 109.948H1183.07V114.502ZM1199.17 121.162C1198.15 121.162 1197.26 120.97 1196.5 120.586C1195.76 120.19 1195.19 119.638 1194.79 118.93C1194.4 118.222 1194.2 117.412 1194.2 116.5C1194.2 115.564 1194.4 114.754 1194.79 114.07C1195.19 113.374 1195.76 112.834 1196.5 112.45C1197.25 112.054 1198.13 111.856 1199.15 111.856C1200.18 111.856 1201.06 112.054 1201.8 112.45C1202.54 112.834 1203.11 113.374 1203.51 114.07C1203.9 114.754 1204.1 115.564 1204.1 116.5C1204.1 117.412 1203.9 118.222 1203.51 118.93C1203.11 119.638 1202.54 120.19 1201.8 120.586C1201.06 120.97 1200.19 121.162 1199.17 121.162ZM1199.15 119.524C1200.12 119.524 1200.88 119.242 1201.42 118.678C1201.96 118.114 1202.23 117.382 1202.23 116.482C1202.23 115.594 1201.96 114.874 1201.42 114.322C1200.88 113.758 1200.12 113.476 1199.15 113.476C1198.18 113.476 1197.42 113.758 1196.88 114.322C1196.34 114.874 1196.07 115.594 1196.07 116.482C1196.07 117.382 1196.34 118.114 1196.88 118.678C1197.42 119.242 1198.18 119.524 1199.15 119.524ZM1210.93 121.162C1210.35 121.162 1209.79 121.12 1209.24 121.036C1208.7 120.952 1208.2 120.832 1207.74 120.676C1207.29 120.52 1206.92 120.328 1206.63 120.1L1207.19 118.732C1207.52 118.948 1207.89 119.128 1208.3 119.272C1208.72 119.404 1209.15 119.5 1209.6 119.56C1210.05 119.62 1210.49 119.65 1210.91 119.65C1211.7 119.65 1212.32 119.554 1212.77 119.362C1213.22 119.17 1213.45 118.882 1213.45 118.498C1213.45 118.174 1213.33 117.928 1213.09 117.76C1212.86 117.592 1212.46 117.472 1211.88 117.4L1209.62 117.112C1208.69 116.992 1208 116.71 1207.53 116.266C1207.06 115.81 1206.83 115.246 1206.83 114.574C1206.83 114.046 1206.98 113.578 1207.29 113.17C1207.62 112.762 1208.09 112.444 1208.72 112.216C1209.34 111.976 1210.11 111.856 1211.02 111.856C1211.52 111.856 1212.03 111.898 1212.53 111.982C1213.05 112.054 1213.52 112.168 1213.95 112.324C1214.39 112.48 1214.72 112.678 1214.96 112.918L1214.35 114.232C1214.06 114.016 1213.73 113.848 1213.34 113.728C1212.97 113.596 1212.58 113.506 1212.17 113.458C1211.76 113.398 1211.36 113.368 1210.97 113.368C1210.2 113.368 1209.6 113.47 1209.18 113.674C1208.78 113.878 1208.57 114.166 1208.57 114.538C1208.57 114.862 1208.69 115.108 1208.91 115.276C1209.14 115.432 1209.53 115.546 1210.07 115.618L1212.26 115.924C1213.26 116.068 1214 116.35 1214.48 116.77C1214.96 117.19 1215.2 117.76 1215.2 118.48C1215.2 119.02 1215.02 119.494 1214.67 119.902C1214.33 120.298 1213.83 120.61 1213.2 120.838C1212.56 121.054 1211.81 121.162 1210.93 121.162ZM1222.38 121.162C1221.21 121.162 1220.3 120.868 1219.67 120.28C1219.04 119.68 1218.73 118.828 1218.73 117.724V113.602H1216.75V112.018H1218.84V109.426H1220.66V112.018H1224.31V113.602H1220.66V117.598C1220.66 118.258 1220.83 118.744 1221.18 119.056C1221.53 119.368 1222.03 119.524 1222.69 119.524C1222.99 119.524 1223.28 119.5 1223.55 119.452C1223.83 119.404 1224.1 119.32 1224.36 119.2L1224.65 120.712C1224.34 120.88 1223.99 120.994 1223.61 121.054C1223.22 121.126 1222.82 121.162 1222.38 121.162ZM1231.77 121.162C1230.64 121.162 1229.66 120.982 1228.83 120.622C1228.02 120.25 1227.39 119.716 1226.96 119.02C1226.54 118.324 1226.33 117.49 1226.33 116.518C1226.33 115.618 1226.52 114.82 1226.91 114.124C1227.3 113.416 1227.87 112.864 1228.62 112.468C1229.36 112.06 1230.26 111.856 1231.3 111.856C1232.27 111.856 1233.1 112.048 1233.78 112.432C1234.48 112.804 1235.01 113.338 1235.37 114.034C1235.73 114.73 1235.91 115.558 1235.91 116.518V117.076H1227.75V115.762H1234.63L1234.25 116.176C1234.25 115.228 1233.99 114.514 1233.46 114.034C1232.94 113.542 1232.22 113.296 1231.3 113.296C1230.7 113.296 1230.17 113.41 1229.7 113.638C1229.23 113.854 1228.86 114.184 1228.58 114.628C1228.31 115.06 1228.17 115.594 1228.17 116.23V116.464C1228.17 117.172 1228.31 117.754 1228.6 118.21C1228.89 118.666 1229.31 119.014 1229.86 119.254C1230.41 119.482 1231.08 119.596 1231.86 119.596C1232.42 119.596 1232.99 119.536 1233.55 119.416C1234.11 119.296 1234.62 119.068 1235.06 118.732L1235.67 120.082C1235.18 120.478 1234.58 120.76 1233.87 120.928C1233.18 121.084 1232.48 121.162 1231.77 121.162ZM1248.35 121.162C1247.78 121.162 1247.21 121.12 1246.66 121.036C1246.12 120.952 1245.62 120.832 1245.17 120.676C1244.71 120.52 1244.34 120.328 1244.05 120.1L1244.61 118.732C1244.95 118.948 1245.32 119.128 1245.73 119.272C1246.15 119.404 1246.58 119.5 1247.02 119.56C1247.48 119.62 1247.92 119.65 1248.34 119.65C1249.13 119.65 1249.75 119.554 1250.19 119.362C1250.65 119.17 1250.87 118.882 1250.87 118.498C1250.87 118.174 1250.75 117.928 1250.51 117.76C1250.29 117.592 1249.88 117.472 1249.31 117.4L1247.04 117.112C1246.12 116.992 1245.42 116.71 1244.95 116.266C1244.48 115.81 1244.25 115.246 1244.25 114.574C1244.25 114.046 1244.41 113.578 1244.72 113.17C1245.04 112.762 1245.52 112.444 1246.14 112.216C1246.76 111.976 1247.53 111.856 1248.44 111.856C1248.95 111.856 1249.45 111.898 1249.96 111.982C1250.47 112.054 1250.95 112.168 1251.38 112.324C1251.81 112.48 1252.15 112.678 1252.39 112.918L1251.77 114.232C1251.49 114.016 1251.15 113.848 1250.77 113.728C1250.39 113.596 1250 113.506 1249.6 113.458C1249.19 113.398 1248.79 113.368 1248.39 113.368C1247.62 113.368 1247.03 113.47 1246.61 113.674C1246.2 113.878 1246 114.166 1246 114.538C1246 114.862 1246.11 115.108 1246.34 115.276C1246.57 115.432 1246.95 115.546 1247.49 115.618L1249.69 115.924C1250.68 116.068 1251.42 116.35 1251.9 116.77C1252.38 117.19 1252.62 117.76 1252.62 118.48C1252.62 119.02 1252.45 119.494 1252.1 119.902C1251.75 120.298 1251.26 120.61 1250.62 120.838C1249.99 121.054 1249.23 121.162 1248.35 121.162ZM1259.29 121.162C1258.52 121.162 1257.85 121.03 1257.29 120.766C1256.74 120.502 1256.31 120.088 1256.01 119.524C1255.71 118.948 1255.56 118.222 1255.56 117.346V112.018H1257.49V117.202C1257.49 117.67 1257.56 118.084 1257.72 118.444C1257.89 118.792 1258.13 119.062 1258.46 119.254C1258.79 119.434 1259.23 119.524 1259.77 119.524C1260.34 119.524 1260.84 119.398 1261.28 119.146C1261.73 118.894 1262.08 118.564 1262.33 118.156C1262.58 117.748 1262.71 117.316 1262.71 116.86V112.018H1264.63V121H1262.89V119.074H1262.76C1262.39 119.71 1261.93 120.22 1261.37 120.604C1260.82 120.976 1260.13 121.162 1259.29 121.162ZM1271.58 121.162C1270.87 121.162 1270.24 121.042 1269.67 120.802C1269.12 120.562 1268.68 120.238 1268.36 119.83C1268.05 119.41 1267.89 118.936 1267.89 118.408C1267.89 117.76 1268.1 117.232 1268.5 116.824C1268.92 116.416 1269.55 116.116 1270.39 115.924C1271.23 115.732 1272.28 115.636 1273.54 115.636H1275.47V116.932H1273.67C1272.99 116.932 1272.4 116.956 1271.91 117.004C1271.43 117.04 1271.03 117.112 1270.72 117.22C1270.41 117.316 1270.17 117.454 1270.02 117.634C1269.87 117.814 1269.8 118.042 1269.8 118.318C1269.8 118.786 1270 119.134 1270.41 119.362C1270.82 119.578 1271.34 119.686 1271.96 119.686C1272.52 119.686 1273.05 119.572 1273.53 119.344C1274.02 119.116 1274.41 118.81 1274.71 118.426C1275.01 118.042 1275.16 117.628 1275.16 117.184V115.204C1275.16 114.556 1274.92 114.094 1274.44 113.818C1273.96 113.53 1273.29 113.386 1272.41 113.386C1271.81 113.386 1271.22 113.458 1270.63 113.602C1270.05 113.746 1269.47 113.986 1268.88 114.322L1268.31 112.918C1268.74 112.678 1269.19 112.48 1269.66 112.324C1270.14 112.168 1270.63 112.054 1271.13 111.982C1271.65 111.898 1272.16 111.856 1272.68 111.856C1273.54 111.856 1274.3 111.982 1274.95 112.234C1275.61 112.474 1276.12 112.852 1276.48 113.368C1276.85 113.884 1277.04 114.562 1277.04 115.402V121H1275.42V119.092H1275.33C1275.11 119.44 1274.83 119.776 1274.48 120.1C1274.14 120.412 1273.74 120.67 1273.26 120.874C1272.78 121.066 1272.22 121.162 1271.58 121.162ZM1286.9 121V113.494H1284.88V112.018H1287.37L1286.9 112.486V112.036C1286.9 110.836 1287.26 109.924 1288 109.3C1288.74 108.676 1289.8 108.328 1291.16 108.256L1292.33 108.202L1292.5 109.786L1291.11 109.858C1290.69 109.882 1290.31 109.948 1289.96 110.056C1289.61 110.152 1289.33 110.332 1289.13 110.596C1288.93 110.86 1288.82 111.25 1288.82 111.766V112.18L1288.48 112.018H1291.99V113.494H1288.82V121H1286.9ZM1298.8 121.162C1297.78 121.162 1296.89 120.97 1296.14 120.586C1295.39 120.19 1294.82 119.638 1294.43 118.93C1294.03 118.222 1293.83 117.412 1293.83 116.5C1293.83 115.564 1294.03 114.754 1294.43 114.07C1294.82 113.374 1295.39 112.834 1296.14 112.45C1296.88 112.054 1297.76 111.856 1298.78 111.856C1299.81 111.856 1300.7 112.054 1301.43 112.45C1302.17 112.834 1302.74 113.374 1303.14 114.07C1303.53 114.754 1303.73 115.564 1303.73 116.5C1303.73 117.412 1303.53 118.222 1303.14 118.93C1302.74 119.638 1302.17 120.19 1301.43 120.586C1300.7 120.97 1299.82 121.162 1298.8 121.162ZM1298.78 119.524C1299.75 119.524 1300.51 119.242 1301.05 118.678C1301.59 118.114 1301.86 117.382 1301.86 116.482C1301.86 115.594 1301.59 114.874 1301.05 114.322C1300.51 113.758 1299.75 113.476 1298.78 113.476C1297.81 113.476 1297.05 113.758 1296.51 114.322C1295.97 114.874 1295.7 115.594 1295.7 116.482C1295.7 117.382 1295.97 118.114 1296.51 118.678C1297.05 119.242 1297.81 119.524 1298.78 119.524ZM1311.01 121.162C1309.84 121.162 1308.93 120.868 1308.29 120.28C1307.67 119.68 1307.36 118.828 1307.36 117.724V113.602H1305.38V112.018H1307.47V109.426H1309.28V112.018H1312.94V113.602H1309.28V117.598C1309.28 118.258 1309.46 118.744 1309.81 119.056C1310.15 119.368 1310.66 119.524 1311.32 119.524C1311.62 119.524 1311.91 119.5 1312.18 119.452C1312.46 119.404 1312.73 119.32 1312.99 119.2L1313.28 120.712C1312.97 120.88 1312.62 120.994 1312.24 121.054C1311.85 121.126 1311.44 121.162 1311.01 121.162ZM1319.93 121.162C1318.91 121.162 1318.02 120.97 1317.26 120.586C1316.52 120.19 1315.95 119.638 1315.55 118.93C1315.16 118.222 1314.96 117.412 1314.96 116.5C1314.96 115.564 1315.16 114.754 1315.55 114.07C1315.95 113.374 1316.52 112.834 1317.26 112.45C1318.01 112.054 1318.89 111.856 1319.91 111.856C1320.94 111.856 1321.82 112.054 1322.56 112.45C1323.3 112.834 1323.87 113.374 1324.27 114.07C1324.66 114.754 1324.86 115.564 1324.86 116.5C1324.86 117.412 1324.66 118.222 1324.27 118.93C1323.87 119.638 1323.3 120.19 1322.56 120.586C1321.82 120.97 1320.95 121.162 1319.93 121.162ZM1319.91 119.524C1320.88 119.524 1321.64 119.242 1322.18 118.678C1322.72 118.114 1322.99 117.382 1322.99 116.482C1322.99 115.594 1322.72 114.874 1322.18 114.322C1321.64 113.758 1320.88 113.476 1319.91 113.476C1318.94 113.476 1318.18 113.758 1317.64 114.322C1317.1 114.874 1316.83 115.594 1316.83 116.482C1316.83 117.382 1317.1 118.114 1317.64 118.678C1318.18 119.242 1318.94 119.524 1319.91 119.524ZM1333.61 121V112.018H1335.35V113.944H1335.46C1335.81 113.308 1336.29 112.804 1336.9 112.432C1337.51 112.048 1338.22 111.856 1339.03 111.856C1339.81 111.856 1340.47 111.988 1341.02 112.252C1341.59 112.516 1342.01 112.936 1342.3 113.512C1342.59 114.088 1342.73 114.826 1342.73 115.726V121H1340.81V115.816C1340.81 115.324 1340.73 114.91 1340.57 114.574C1340.42 114.226 1340.18 113.962 1339.85 113.782C1339.53 113.59 1339.1 113.494 1338.56 113.494C1337.97 113.494 1337.45 113.62 1336.99 113.872C1336.54 114.124 1336.18 114.454 1335.91 114.862C1335.66 115.27 1335.53 115.714 1335.53 116.194V121H1333.61ZM1350.74 121.162C1349.72 121.162 1348.84 120.97 1348.08 120.586C1347.34 120.19 1346.77 119.638 1346.37 118.93C1345.97 118.222 1345.78 117.412 1345.78 116.5C1345.78 115.564 1345.97 114.754 1346.37 114.07C1346.77 113.374 1347.34 112.834 1348.08 112.45C1348.82 112.054 1349.71 111.856 1350.73 111.856C1351.76 111.856 1352.64 112.054 1353.37 112.45C1354.12 112.834 1354.69 113.374 1355.08 114.07C1355.48 114.754 1355.68 115.564 1355.68 116.5C1355.68 117.412 1355.48 118.222 1355.08 118.93C1354.69 119.638 1354.12 120.19 1353.37 120.586C1352.64 120.97 1351.76 121.162 1350.74 121.162ZM1350.73 119.524C1351.7 119.524 1352.45 119.242 1352.99 118.678C1353.53 118.114 1353.8 117.382 1353.8 116.482C1353.8 115.594 1353.53 114.874 1352.99 114.322C1352.45 113.758 1351.7 113.476 1350.73 113.476C1349.75 113.476 1349 113.758 1348.46 114.322C1347.92 114.874 1347.65 115.594 1347.65 116.482C1347.65 117.382 1347.92 118.114 1348.46 118.678C1349 119.242 1349.75 119.524 1350.73 119.524ZM1368.09 121V110.002H1363.14V108.31H1374.99V110.002H1370.04V121H1368.09ZM1379.41 121L1376.08 112.018H1378.04L1380.4 118.858H1380.47L1383.26 112.018H1384.88L1387.67 118.858H1387.75L1390.12 112.018H1392.05L1388.72 121H1386.95L1384.11 114.106H1384.04L1381.18 121H1379.41ZM1394.25 109.984V107.95H1396.57V109.984H1394.25ZM1394.46 121V112.018H1396.39V121H1394.46ZM1404.23 121.162C1403.05 121.162 1402.15 120.868 1401.51 120.28C1400.89 119.68 1400.58 118.828 1400.58 117.724V113.602H1398.6V112.018H1400.68V109.426H1402.5V112.018H1406.16V113.602H1402.5V117.598C1402.5 118.258 1402.68 118.744 1403.02 119.056C1403.37 119.368 1403.88 119.524 1404.54 119.524C1404.84 119.524 1405.12 119.5 1405.4 119.452C1405.68 119.404 1405.95 119.32 1406.21 119.2L1406.5 120.712C1406.19 120.88 1405.84 120.994 1405.45 121.054C1405.07 121.126 1404.66 121.162 1404.23 121.162ZM1412.97 121.162C1411.79 121.162 1410.88 120.868 1410.25 120.28C1409.62 119.68 1409.31 118.828 1409.31 117.724V113.602H1407.33V112.018H1409.42V109.426H1411.24V112.018H1414.89V113.602H1411.24V117.598C1411.24 118.258 1411.41 118.744 1411.76 119.056C1412.11 119.368 1412.61 119.524 1413.27 119.524C1413.57 119.524 1413.86 119.5 1414.14 119.452C1414.41 119.404 1414.68 119.32 1414.95 119.2L1415.23 120.712C1414.92 120.88 1414.57 120.994 1414.19 121.054C1413.81 121.126 1413.4 121.162 1412.97 121.162ZM1422.35 121.162C1421.22 121.162 1420.24 120.982 1419.42 120.622C1418.6 120.25 1417.98 119.716 1417.54 119.02C1417.12 118.324 1416.91 117.49 1416.91 116.518C1416.91 115.618 1417.11 114.82 1417.49 114.124C1417.89 113.416 1418.46 112.864 1419.2 112.468C1419.94 112.06 1420.84 111.856 1421.88 111.856C1422.85 111.856 1423.68 112.048 1424.37 112.432C1425.06 112.804 1425.59 113.338 1425.95 114.034C1426.31 114.73 1426.49 115.558 1426.49 116.518V117.076H1418.34V115.762H1425.21L1424.83 116.176C1424.83 115.228 1424.57 114.514 1424.04 114.034C1423.53 113.542 1422.81 113.296 1421.88 113.296C1421.28 113.296 1420.75 113.41 1420.28 113.638C1419.81 113.854 1419.44 114.184 1419.16 114.628C1418.89 115.06 1418.75 115.594 1418.75 116.23V116.464C1418.75 117.172 1418.89 117.754 1419.18 118.21C1419.47 118.666 1419.89 119.014 1420.44 119.254C1420.99 119.482 1421.66 119.596 1422.44 119.596C1423 119.596 1423.57 119.536 1424.13 119.416C1424.7 119.296 1425.2 119.068 1425.64 118.732L1426.26 120.082C1425.76 120.478 1425.16 120.76 1424.46 120.928C1423.76 121.084 1423.06 121.162 1422.35 121.162ZM1429.5 121V112.018H1431.19V114.124H1431.28C1431.53 113.476 1431.96 112.96 1432.56 112.576C1433.17 112.18 1433.88 111.958 1434.68 111.91L1435.71 111.856L1435.9 113.638L1434.3 113.746C1433.39 113.818 1432.68 114.094 1432.18 114.574C1431.67 115.054 1431.42 115.618 1431.42 116.266V121H1429.5Z" fill="#FF7CA8"/>
</g>
<defs>
<clipPath id="clip0_321_126">
<rect width="1571" height="179" fill="white"/>
</clipPath>
</defs>
</svg>
