<svg width="32" height="31" viewBox="0 0 32 31" fill="none" xmlns="http://www.w3.org/2000/svg">
<path d="M11.833 22.6907C12.7982 22.6967 13.7212 23.086 14.3984 23.7737C15.0757 24.4614 15.4512 25.3905 15.4424 26.3557C15.4335 27.3127 15.047 28.2277 14.3672 28.9016C13.6868 29.5755 12.7677 29.9534 11.8105 29.9534C10.8456 29.9533 9.92034 29.5691 9.23926 28.886C8.55788 28.2025 8.17667 27.2759 8.17969 26.3108C8.18272 25.3459 8.56939 24.4217 9.25488 23.7424C9.94044 23.0632 10.8681 22.6849 11.833 22.6907ZM9.25098 26.3743C9.25434 27.0485 9.52402 27.6941 10.001 28.1711C10.4778 28.648 11.1239 28.9167 11.7979 28.9202V28.9211C11.8004 28.9212 11.8031 28.9201 11.8057 28.9202C11.8073 28.9202 11.8089 28.9202 11.8105 28.9202C12.501 28.9306 13.1673 28.6664 13.6621 28.1848C14.1605 27.6997 14.4434 27.0354 14.4482 26.3401C14.453 25.6448 14.1792 24.9763 13.6875 24.4846C13.1958 23.993 12.5273 23.7194 11.832 23.7239C11.137 23.7287 10.4724 24.0116 9.9873 24.51C9.50268 25.008 9.23712 25.6794 9.25098 26.3743Z" fill="white" stroke="white" stroke-width="1.33333"/>
<path d="M23.7192 22.77C24.6126 22.77 25.4716 23.1021 26.1304 23.6987L26.2593 23.8218C26.9329 24.4952 27.311 25.4089 27.311 26.3618C27.311 27.3144 26.933 28.2281 26.2593 28.9019C25.5858 29.5754 24.672 29.9536 23.7192 29.9536C22.8263 29.9536 21.9672 29.6215 21.3081 29.0249L21.1792 28.9019C20.5056 28.228 20.1274 27.3143 20.1274 26.3618C20.1274 25.409 20.5057 24.4953 21.1792 23.8218C21.853 23.148 22.7667 22.77 23.7192 22.77ZM23.7065 23.8022C23.0355 23.8156 22.395 24.0884 21.9204 24.563C21.4456 25.0376 21.1734 25.6775 21.1597 26.3481V26.3618C21.1597 27.0406 21.4297 27.6913 21.9097 28.1714C22.386 28.6478 23.0311 28.9165 23.7046 28.9204V28.9214C23.7074 28.9214 23.7105 28.9204 23.7134 28.9204C23.7153 28.9204 23.7173 28.9204 23.7192 28.9204C24.4014 28.9314 25.0591 28.6655 25.5415 28.1831C26.0271 27.6974 26.2933 27.0347 26.2788 26.3481H26.2778C26.2742 25.6744 26.0059 25.029 25.5288 24.5522C25.0489 24.0723 24.3979 23.8022 23.7192 23.8022H23.7065Z" fill="white" stroke="white" stroke-width="1.33333"/>
<path d="M1.31152 0.674805L1.31445 0.675781L5.43066 1.45996C5.53711 1.48893 5.6346 1.54475 5.71289 1.62305C5.79236 1.70254 5.8484 1.80182 5.87695 1.91016L6.7793 6.53613L6.88379 7.0752H30.3838V6.43262L30.4004 7.0752C30.5539 7.07115 30.6997 7.13738 30.8008 7.25293C30.8899 7.38406 30.9202 7.54655 30.8809 7.70117L27.9688 17.6963C27.7446 18.4595 27.2785 19.129 26.6406 19.6045C26.0025 20.0799 25.2273 20.3353 24.4316 20.332H11.5C10.6484 20.3259 9.82467 20.0271 9.16699 19.4854C8.51014 18.9438 8.05973 18.1935 7.89062 17.3594L5.01172 2.84863L4.92383 2.40527L4.47949 2.32227L1.08887 1.69238C0.953987 1.66726 0.834138 1.58934 0.756836 1.47656V1.47559C0.681033 1.36495 0.651724 1.22883 0.674805 1.0957C0.698731 0.993664 0.750693 0.901153 0.824219 0.828125L0.907227 0.759766C1.0261 0.680688 1.171 0.650276 1.31152 0.674805ZM7.25293 8.90527L8.90918 17.2256V17.2285C9.01574 17.7497 9.2769 18.2253 9.65625 18.5938L9.82617 18.7441C10.2973 19.1285 10.8867 19.3389 11.4951 19.3389H24.4287V19.3379C25.0028 19.3513 25.5647 19.1729 26.0244 18.8281C26.4841 18.4835 26.8131 17.9941 26.9609 17.4395L26.9619 17.4404L29.4453 8.96191L29.6963 8.1084H7.09375L7.25293 8.90527Z" fill="white" stroke="white" stroke-width="1.33333"/>
</svg>
