<svg width="32" height="32" viewBox="0 0 32 32" fill="none" xmlns="http://www.w3.org/2000/svg">
<path d="M16.1431 26.913C16.1535 25.7707 15.709 24.6715 14.9075 23.8576C14.106 23.0437 13.0137 22.5825 11.8714 22.5753C10.7293 22.5684 9.63134 23.0162 8.81987 23.8202C8.00847 24.6242 7.55049 25.7181 7.5469 26.8602C7.54332 28.0026 7.9947 29.0992 8.80114 29.9081C9.60733 30.7168 10.7026 31.1717 11.845 31.1717C12.978 31.1717 14.0653 30.7242 14.8704 29.9268C15.6753 29.1291 16.1327 28.046 16.1431 26.913ZM9.95201 26.913C9.94156 26.3962 10.1388 25.8966 10.4994 25.5262C10.86 25.1557 11.354 24.9453 11.8709 24.9417C12.388 24.9384 12.8847 25.1422 13.2503 25.5078C13.6159 25.8733 13.8197 26.3701 13.8161 26.8869C13.8125 27.404 13.6021 27.898 13.2316 28.2586C12.8614 28.6189 12.3618 28.8162 11.845 28.8057C11.3431 28.8057 10.8614 28.6063 10.5066 28.2515C10.1515 27.8963 9.95201 27.415 9.95201 26.913Z" fill="#9643E6" fill-opacity="0.75"/>
<path d="M11.8672 23.2422C12.8324 23.2483 13.7554 23.6375 14.4326 24.3252C15.1099 25.0129 15.4854 25.942 15.4766 26.9072C15.4677 27.8642 15.0812 28.7792 14.4014 29.4531C13.721 30.127 12.8019 30.5049 11.8447 30.5049C10.8798 30.5048 9.95452 30.1206 9.27344 29.4375C8.59206 28.754 8.21085 27.8274 8.21387 26.8623C8.2169 25.8974 8.60357 24.9732 9.28906 24.2939C9.97462 23.6147 10.9023 23.2364 11.8672 23.2422ZM9.28516 26.9258C9.28852 27.6 9.55819 28.2456 10.0352 28.7227C10.512 29.1995 11.158 29.4683 11.832 29.4717V29.4727C11.8346 29.4727 11.8372 29.4716 11.8398 29.4717C11.8415 29.4717 11.8431 29.4717 11.8447 29.4717C12.5351 29.4822 13.2014 29.2179 13.6963 28.7363C14.1947 28.2513 14.4776 27.5869 14.4824 26.8916C14.4872 26.1963 14.2133 25.5278 13.7217 25.0361C13.23 24.5445 12.5615 24.271 11.8662 24.2754C11.1711 24.2802 10.5065 24.5631 10.0215 25.0615C9.53686 25.5595 9.2713 26.2309 9.28516 26.9258Z" stroke="#A259E8" stroke-opacity="0.6" stroke-width="1.33333"/>
<path d="M28.0117 26.9136C28.0117 25.7839 27.5631 24.7007 26.7643 23.9022C25.9658 23.1034 24.8826 22.6548 23.7529 22.6548C22.6235 22.6548 21.5403 23.1034 20.7416 23.9022C19.943 24.7007 19.4941 25.7839 19.4941 26.9136C19.4941 28.043 19.943 29.1262 20.7416 29.925C21.5403 30.7235 22.6235 31.1724 23.7529 31.1724C24.8826 31.1724 25.9658 30.7235 26.7643 29.925C27.5631 29.1262 28.0117 28.043 28.0117 26.9136ZM21.8603 26.9136C21.8705 26.4146 22.0729 25.939 22.4258 25.5864C22.7787 25.2335 23.2543 25.0308 23.753 25.0209C24.255 25.0209 24.7367 25.2203 25.0915 25.5751C25.4466 25.93 25.646 26.4116 25.646 26.9136C25.6567 27.4189 25.4609 27.9066 25.1036 28.2639C24.7463 28.6212 24.2583 28.8173 23.753 28.8063C23.251 28.8063 22.7697 28.6069 22.4148 28.252C22.0597 27.8969 21.8603 27.4156 21.8603 26.9136Z" fill="#9643E6" fill-opacity="0.75"/>
<path d="M23.7529 23.3218C24.6463 23.3218 25.5053 23.6538 26.1641 24.2505L26.293 24.3735C26.9666 25.047 27.3447 25.9607 27.3447 26.9136C27.3447 27.8662 26.9667 28.7798 26.293 29.4536C25.6194 30.1271 24.7057 30.5054 23.7529 30.5054C22.86 30.5054 22.0009 30.1733 21.3418 29.5767L21.2129 29.4536C20.5393 28.7797 20.1611 27.866 20.1611 26.9136C20.1611 25.9608 20.5394 25.0471 21.2129 24.3735C21.8867 23.6998 22.8004 23.3218 23.7529 23.3218ZM23.7402 24.354C23.0692 24.3673 22.4286 24.6402 21.9541 25.1147C21.4793 25.5893 21.2071 26.2293 21.1934 26.8999V26.9136C21.1934 27.5924 21.4634 28.2431 21.9434 28.7231C22.4197 29.1995 23.0648 29.4683 23.7383 29.4722V29.4731C23.7411 29.4732 23.7442 29.4721 23.7471 29.4722C23.749 29.4722 23.751 29.4722 23.7529 29.4722C24.435 29.4831 25.0928 29.2172 25.5752 28.7349C26.0608 28.2491 26.3269 27.5864 26.3125 26.8999H26.3115C26.3079 26.2262 26.0396 25.5808 25.5625 25.104C25.0826 24.6241 24.4316 24.354 23.7529 24.354H23.7402Z" stroke="#A259E8" stroke-opacity="0.6" stroke-width="1.33333"/>
<path d="M30.4175 6.96068H7.46769L6.56052 2.30748C6.50331 2.0789 6.38503 1.87014 6.21834 1.70345C6.05166 1.53676 5.84289 1.41848 5.61431 1.36127L1.4738 0.572687V0.572412C1.16051 0.5141 0.836762 0.580389 0.57164 0.756978C0.306483 0.933841 0.120819 1.20725 0.0542477 1.51887C-0.00324026 1.82749 0.0638746 2.14629 0.241567 2.40513C0.418979 2.66396 0.692114 2.84165 1.00072 2.89913L4.39193 3.52985L7.27045 18.0411V18.0414C7.46959 19.0263 8.00158 19.9126 8.77699 20.5518C9.55269 21.1908 10.5244 21.5437 11.5293 21.5509H24.4632C25.4034 21.5547 26.3193 21.253 27.0732 20.6913C27.8272 20.1294 28.3781 19.3377 28.643 18.4356L31.5611 8.41964C31.6519 8.06564 31.5795 7.68936 31.3639 7.39446C31.1323 7.11115 30.7829 6.95106 30.4174 6.96068H30.4175ZM26.356 17.8047C26.2487 18.2211 26.0028 18.5886 25.6587 18.8466C25.3146 19.1046 24.8932 19.2378 24.4632 19.2243H11.5293C11.0746 19.2243 10.6343 19.0672 10.2819 18.7798C9.92982 18.4923 9.68804 18.0921 9.59699 17.6468L7.94081 9.32649H28.8402L26.356 17.8047Z" fill="#9643E6" fill-opacity="0.75"/>
<path d="M1.3457 1.22656L1.34863 1.22754L5.46484 2.01172C5.57129 2.04069 5.66878 2.09651 5.74707 2.1748C5.82654 2.25429 5.88258 2.35357 5.91113 2.46191L6.81348 7.08789L6.91797 7.62695H30.418V6.98438L30.4346 7.62695C30.5881 7.62291 30.7339 7.68913 30.835 7.80469C30.9241 7.93582 30.9544 8.09831 30.915 8.25293L28.0029 18.248C27.7787 19.0113 27.3127 19.6807 26.6748 20.1562C26.0366 20.6317 25.2615 20.887 24.4658 20.8838H11.5342C10.6826 20.8777 9.85885 20.5788 9.20117 20.0371C8.54431 19.4956 8.09391 18.7452 7.9248 17.9111L5.0459 3.40039L4.95801 2.95703L4.51367 2.87402L1.12305 2.24414C0.988166 2.21901 0.868317 2.1411 0.791016 2.02832V2.02734C0.715213 1.91671 0.685904 1.78059 0.708984 1.64746C0.73291 1.54542 0.784873 1.45291 0.858398 1.37988L0.941406 1.31152C1.06028 1.23245 1.20518 1.20203 1.3457 1.22656ZM7.28711 9.45703L8.94336 17.7773V17.7803C9.04992 18.3015 9.31108 18.7771 9.69043 19.1455L9.86035 19.2959C10.3315 19.6803 10.9208 19.8906 11.5293 19.8906H24.4629V19.8896C25.037 19.903 25.5988 19.7246 26.0586 19.3799C26.5183 19.0352 26.8473 18.5459 26.9951 17.9912L26.9961 17.9922L29.4795 9.51367L29.7305 8.66016H7.12793L7.28711 9.45703Z" stroke="#A259E8" stroke-opacity="0.6" stroke-width="1.33333"/>
</svg>
