<svg width="22" height="24" viewBox="0 0 22 24" fill="none" xmlns="http://www.w3.org/2000/svg">
<g clip-path="url(#clip0_129_550)">
<path fill-rule="evenodd" clip-rule="evenodd" d="M15.3008 13.7138H6.72949C5.13819 13.7138 3.61207 14.346 2.48686 15.4712C1.36164 16.5964 0.729492 18.1225 0.729492 19.7138V21.4276C0.729492 22.1097 1.00036 22.7638 1.48254 23.2462C1.96471 23.7286 2.61871 23.9997 3.30076 24H18.7295C19.4114 24 20.0655 23.7291 20.5477 23.2469C21.0299 22.7647 21.3008 22.1107 21.3008 21.4287V19.7138C21.3008 18.1225 20.6686 16.5964 19.5434 15.4712C18.4182 14.346 16.8921 13.7138 15.3008 13.7138ZM6.72949 15.4287H15.3008C16.4375 15.4287 17.5277 15.8803 18.3316 16.6841C19.1354 17.4879 19.5869 18.5781 19.5869 19.7149V21.4287C19.5871 21.5414 19.565 21.6529 19.522 21.757C19.4789 21.8611 19.4158 21.9557 19.3361 22.0354C19.2565 22.115 19.1619 22.1782 19.0578 22.2212C18.9537 22.2642 18.8421 22.2863 18.7295 22.2862H3.30076C3.07335 22.2862 2.85525 22.1958 2.69445 22.035C2.53364 21.8742 2.44331 21.6561 2.44331 21.4287V19.7138C2.4436 18.5772 2.89531 17.4873 3.6991 16.6837C4.50288 15.8802 5.59291 15.4287 6.72949 15.4287ZM11.0157 0C9.82899 0 8.66895 0.351895 7.68226 1.01118C6.69556 1.67047 5.92652 2.60754 5.47239 3.7039C5.01826 4.80026 4.89945 6.00666 5.13096 7.17054C5.36248 8.33443 5.93392 9.40353 6.77304 10.2426C7.61215 11.0818 8.68124 11.6532 9.84513 11.8847C11.009 12.1162 12.2154 11.9974 13.3118 11.5433C14.4081 11.0892 15.3452 10.3201 16.0045 9.33342C16.6638 8.34673 17.0157 7.18669 17.0157 6C17.0157 4.4087 16.3835 2.88258 15.2583 1.75736C14.1331 0.632141 12.607 0 11.0157 0ZM11.0157 1.71382C11.8634 1.71382 12.6921 1.9652 13.3969 2.43617C14.1018 2.90714 14.6512 3.57655 14.9756 4.35975C15.3 5.14295 15.3849 6.00476 15.2195 6.83619C15.0541 7.66763 14.6459 8.43135 14.0465 9.03079C13.447 9.63022 12.6833 10.0384 11.8519 10.2038C11.0204 10.3692 10.1586 10.2843 9.37542 9.95991C8.59222 9.6355 7.92281 9.08613 7.45184 8.38127C6.98087 7.67642 6.72949 6.84773 6.72949 6C6.72978 4.86332 7.18146 3.77328 7.98521 2.96953C8.78896 2.16578 9.879 1.71411 11.0157 1.71382Z" fill="#9643E6"/>
</g>
<defs>
<clipPath id="clip0_129_550">
<rect width="20.5713" height="24" fill="white" transform="translate(0.729492)"/>
</clipPath>
</defs>
</svg>
