<svg width="12" height="13" viewBox="0 0 12 13" fill="none" xmlns="http://www.w3.org/2000/svg">
<mask id="mask0_465_304" style="mask-type:luminance" maskUnits="userSpaceOnUse" x="0" y="0" width="12" height="13">
<path d="M0 0H12V12.2274H0V0Z" fill="white"/>
</mask>
<g mask="url(#mask0_465_304)">
<path d="M6.02528 0.114746C5.83005 0.114746 5.63544 0.124299 5.44148 0.143404C5.24751 0.162509 5.05481 0.191167 4.86338 0.229378C4.67195 0.267588 4.48305 0.315351 4.29605 0.37203C4.10969 0.429346 3.9265 0.49494 3.74585 0.570088C3.56582 0.645235 3.3896 0.728661 3.21782 0.821003C3.04541 0.913345 2.8787 1.01397 2.71642 1.12287C2.55415 1.23177 2.39758 1.34831 2.24672 1.47249C2.09585 1.59731 1.95196 1.7285 1.81378 1.86733C1.67622 2.00553 1.54501 2.15073 1.4214 2.3023C1.2978 2.45386 1.1818 2.61053 1.0734 2.77356C0.96501 2.93659 0.864856 3.10472 0.772944 3.2773C0.681031 3.45052 0.597359 3.62693 0.522561 3.80843C0.448397 3.98929 0.382473 4.17334 0.326058 4.3612C0.269008 4.54843 0.222101 4.73821 0.184068 4.93054C0.146036 5.12287 0.117511 5.31647 0.0978606 5.51134C0.0788441 5.70621 0.0693359 5.90172 0.0693359 6.09787C0.0693359 6.29402 0.0788441 6.48953 0.0978606 6.6844C0.117511 6.87927 0.146036 7.07287 0.184068 7.2652C0.222101 7.45753 0.269008 7.6473 0.326058 7.83517C0.382473 8.0224 0.448397 8.20645 0.522561 8.38795C0.597359 8.56881 0.681031 8.74586 0.772944 8.91844C0.864856 9.09166 0.96501 9.25915 1.0734 9.42218C1.1818 9.58521 1.2978 9.74251 1.4214 9.89408C1.54501 10.045 1.67559 10.1902 1.81378 10.329C1.95196 10.4672 2.09585 10.5991 2.24672 10.7232C2.39758 10.8474 2.55415 10.964 2.71642 11.0729C2.8787 11.1818 3.04541 11.2824 3.21782 11.3747C3.3896 11.4671 3.56582 11.5511 3.74585 11.6257C3.92587 11.7008 4.10969 11.767 4.29605 11.8237C4.48305 11.8804 4.67195 11.9282 4.86338 11.9664C5.05481 12.0046 5.24751 12.0332 5.44148 12.0523C5.63544 12.0721 5.83005 12.0816 6.02528 12.0816C6.21988 12.0816 6.41448 12.0721 6.60909 12.0523C6.80305 12.0332 6.99575 12.0046 7.18719 11.9664C7.37798 11.9282 7.56751 11.8804 7.75387 11.8237C7.94087 11.767 8.12406 11.7008 8.30408 11.6257C8.48411 11.5511 8.66033 11.4671 8.83274 11.3747C9.00452 11.2824 9.17187 11.1818 9.33414 11.0729C9.49578 10.964 9.65235 10.8474 9.80321 10.7232C9.95408 10.5991 10.0986 10.4672 10.2362 10.329C10.3743 10.1902 10.5049 10.045 10.6292 9.89408C10.7528 9.74251 10.8688 9.58521 10.9772 9.42218C11.0856 9.25915 11.1857 9.09166 11.2776 8.91844C11.3695 8.74586 11.4526 8.56881 11.5274 8.38795C11.6022 8.20645 11.6675 8.0224 11.7245 7.83517C11.7809 7.6473 11.8285 7.45753 11.8665 7.2652C11.9045 7.07287 11.9331 6.87927 11.9521 6.6844C11.9711 6.48953 11.9806 6.29402 11.9806 6.09787C11.9806 5.90236 11.9705 5.70685 11.9514 5.51198C11.9324 5.31647 11.9033 5.1235 11.8652 4.93118C11.8272 4.73885 11.7797 4.54907 11.7226 4.36184C11.6662 4.17461 11.6003 3.98992 11.5255 3.80906C11.4507 3.6282 11.3676 3.45116 11.2757 3.27857C11.1838 3.10599 11.0837 2.9385 10.9753 2.77547C10.8669 2.61244 10.7509 2.45514 10.6266 2.30421C10.503 2.15264 10.3724 2.00744 10.2343 1.86924C10.0967 1.73041 9.95217 1.59922 9.80131 1.47504C9.65108 1.35022 9.49451 1.23368 9.33224 1.12478C9.16996 1.01588 9.00325 0.915255 8.83147 0.822914C8.65906 0.730572 8.48347 0.647145 8.30345 0.571998C8.12279 0.496851 7.9396 0.430619 7.75324 0.37394C7.56688 0.316625 7.37798 0.268862 7.18655 0.230651C6.99512 0.192441 6.80242 0.163146 6.60845 0.144041C6.41448 0.124299 6.21988 0.114746 6.02528 0.114746ZM6.02528 10.8844C5.86935 10.8844 5.71341 10.8767 5.55811 10.8614C5.40281 10.8462 5.24878 10.8232 5.09538 10.7927C4.94261 10.7621 4.79112 10.7239 4.64215 10.6787C4.49256 10.6328 4.34613 10.5806 4.20161 10.5201C4.05771 10.4602 3.91699 10.3934 3.77944 10.3195C3.64189 10.2456 3.50814 10.1647 3.37819 10.0781C3.24825 9.99088 3.12337 9.8979 3.0023 9.79792C2.88187 9.69857 2.7665 9.59349 2.6562 9.48268C2.54591 9.37187 2.44132 9.25597 2.34243 9.13433C2.24291 9.01333 2.15037 8.88787 2.06353 8.75732C1.97668 8.62677 1.89681 8.49239 1.82328 8.3542C1.74975 8.216 1.6832 8.07462 1.62361 7.93006C1.56339 7.78486 1.51142 7.63775 1.46578 7.48746C1.42077 7.33716 1.38274 7.18559 1.35231 7.03148C1.32188 6.878 1.29906 6.72325 1.28385 6.56722C1.26864 6.4112 1.2604 6.25453 1.2604 6.09787C1.2604 5.94121 1.26864 5.78454 1.28385 5.62852C1.29906 5.47249 1.32188 5.31774 1.35231 5.16426C1.38274 5.01014 1.42077 4.85858 1.46578 4.70828C1.51142 4.55862 1.56339 4.41088 1.62361 4.26631C1.6832 4.12111 1.74975 3.97974 1.82328 3.84154C1.89681 3.70335 1.97668 3.56897 2.06353 3.43842C2.15037 3.3085 2.24291 3.18241 2.34243 3.06141C2.44132 2.94041 2.54591 2.82387 2.6562 2.71306C2.7665 2.60225 2.88187 2.49717 3.0023 2.39782C3.12337 2.29847 3.24825 2.20486 3.37819 2.11825C3.50814 2.031 3.64189 1.95012 3.77944 1.87625C3.91699 1.80238 4.05771 1.73551 4.20161 1.67564C4.34613 1.61578 4.49256 1.56292 4.64215 1.51707C4.79112 1.47185 4.94261 1.43364 5.09538 1.40308C5.24878 1.37251 5.40281 1.34958 5.55811 1.3343C5.71341 1.31901 5.86935 1.31137 6.02528 1.31137C6.18122 1.31137 6.33715 1.31901 6.49245 1.3343C6.64712 1.34958 6.80179 1.37251 6.95455 1.40308C7.10795 1.43364 7.25881 1.47185 7.40841 1.51707C7.55737 1.56292 7.70443 1.61578 7.84832 1.67564C7.99285 1.73551 8.13357 1.80238 8.27112 1.87625C8.40867 1.95012 8.54242 2.031 8.67237 2.11825C8.80168 2.20486 8.92719 2.29847 9.04763 2.39782C9.16806 2.49717 9.28406 2.60225 9.39436 2.71306C9.50465 2.82387 9.60924 2.94041 9.70813 3.06141C9.80702 3.18241 9.9002 3.3085 9.9864 3.43842C10.0732 3.56897 10.1537 3.70335 10.2273 3.84154C10.3008 3.97974 10.3674 4.12111 10.427 4.26631C10.4865 4.41088 10.5391 4.55862 10.5842 4.70828C10.6298 4.85858 10.6678 5.01014 10.6983 5.16426C10.7287 5.31774 10.7515 5.47249 10.7667 5.62852C10.7819 5.78454 10.7895 5.94121 10.7895 6.09787C10.7895 6.25453 10.7819 6.4112 10.7661 6.56722C10.7509 6.72261 10.7274 6.878 10.697 7.03148C10.6666 7.18496 10.6285 7.33716 10.5835 7.48682C10.5379 7.63648 10.4853 7.78422 10.4257 7.92879C10.3655 8.07335 10.2989 8.21537 10.2254 8.35356C10.1518 8.49176 10.072 8.62549 9.98514 8.75604C9.89829 8.8866 9.80511 9.01206 9.70623 9.13305C9.60734 9.25406 9.50275 9.36996 9.39246 9.48077C9.28216 9.59158 9.1668 9.6973 9.04636 9.79664C8.92592 9.89599 8.80041 9.98897 8.6711 10.0762C8.54115 10.1635 8.40741 10.2437 8.26985 10.3176C8.1323 10.3921 7.99158 10.459 7.84769 10.5188C7.7038 10.5787 7.55674 10.6315 7.40778 10.6774C7.25818 10.7226 7.10732 10.7608 6.95455 10.792C6.80115 10.8226 6.64712 10.8455 6.49182 10.8608C6.33652 10.8767 6.18122 10.8844 6.02528 10.8844Z" fill="#9643E6" fill-opacity="0.75"/>
</g>
<path d="M7.98717 4.47829L5.43009 7.04667L4.36264 5.97423C4.30685 5.91692 4.2422 5.87234 4.1693 5.84113C4.09577 5.80993 4.01971 5.79464 3.93984 5.794C3.8606 5.79337 3.7839 5.80865 3.71037 5.83858C3.63684 5.86915 3.57155 5.91246 3.51514 5.96914C3.45936 6.02581 3.41562 6.09077 3.38583 6.16465C3.3554 6.23852 3.34082 6.31558 3.34082 6.39582C3.34145 6.47542 3.3573 6.55248 3.38836 6.62572C3.41942 6.69959 3.46316 6.76391 3.52021 6.81996L5.00919 8.3159C5.06498 8.37194 5.12963 8.41524 5.20253 8.44581C5.27542 8.47574 5.35149 8.49103 5.43009 8.49103C5.50933 8.49103 5.58539 8.47574 5.65829 8.44581C5.73119 8.41524 5.79521 8.37194 5.85162 8.3159L8.82896 5.32402C8.88411 5.26797 8.92595 5.20302 8.9551 5.13042C8.9849 5.05718 8.99884 4.9814 8.99884 4.90243C8.99821 4.8241 8.98299 4.74831 8.95257 4.67571C8.92278 4.60311 8.87967 4.53879 8.82452 4.48275C8.76874 4.42734 8.70472 4.38404 8.63246 4.35411C8.5602 4.32354 8.48476 4.30825 8.4068 4.30762C8.3282 4.30762 8.25276 4.32163 8.17987 4.35156C8.10761 4.38085 8.04295 4.42289 7.98717 4.47829Z" fill="#9643E6" fill-opacity="0.75"/>
</svg>
