<svg width="19" height="19" viewBox="0 0 19 19" fill="none" xmlns="http://www.w3.org/2000/svg">
<path d="M8.49809 0C8.83953 0.0488731 9.18349 0.0845723 9.52204 0.148883C11.1671 0.461344 12.5753 1.22528 13.7473 2.41593C14.8134 3.49908 15.5183 4.786 15.821 6.27842C16.2013 8.15445 15.9388 9.94349 14.9987 11.6135C14.6975 12.1485 14.3167 12.6386 13.9723 13.1493C13.9399 13.1615 13.9074 13.1738 13.8749 13.186C13.936 13.2175 14.0095 13.2364 14.0564 13.2824C15.6138 14.8107 17.1698 16.3405 18.7213 17.8747C18.8322 17.9843 18.9079 18.1293 19 18.2578V18.5176C18.9191 18.7583 18.7535 18.9143 18.5176 19H18.2578C18.1083 18.8947 17.9409 18.8077 17.8119 18.6814C16.2561 17.1586 14.706 15.6299 13.1542 14.103C13.115 14.0645 13.0739 14.028 13.0263 13.9836C12.9726 14.0203 12.921 14.0521 12.8731 14.0887C11.8416 14.8748 10.6852 15.3876 9.41016 15.6048C7.50459 15.9295 5.69117 15.645 4.00651 14.6751C2.2538 13.6661 1.03795 12.2056 0.387385 10.2855C0.194453 9.71594 0.0769648 9.12894 0.0320996 8.52818C0.0285742 8.48049 0.0110586 8.43385 0 8.38672V7.34766C0.0113555 7.29422 0.0255684 7.24123 0.033584 7.18731C0.0798223 6.87607 0.107914 6.56105 0.172744 6.25378C0.483016 4.78336 1.17128 3.5107 2.22063 2.4376C3.39874 1.23288 4.81513 0.461195 6.4741 0.147621C6.8 0.0859824 7.13057 0.0485762 7.45902 0H8.49809ZM1.22698 7.82685C1.24161 8.10231 1.24083 8.33228 1.26788 8.55894C1.43918 9.99407 1.98528 11.2666 2.98248 12.3196C4.72736 14.162 6.88305 14.8545 9.35334 14.3739C11.519 13.9526 13.1375 12.7064 14.0968 10.7023C15.0638 8.68222 15.005 6.64043 13.9222 4.68847C12.8124 2.68768 11.0615 1.54731 8.79088 1.26806C6.99794 1.04752 5.34902 1.48382 3.90402 2.57884C2.1562 3.90339 1.28684 5.68761 1.22698 7.82685Z" fill="black" fill-opacity="0.7"/>
</svg>
