<svg width="26" height="24" viewBox="0 0 26 24" fill="none" xmlns="http://www.w3.org/2000/svg">
<path d="M12.927 20.6616C12.9352 19.7663 12.5868 18.9048 11.9586 18.2669C11.3304 17.6289 10.4742 17.2674 9.57895 17.2618C8.68381 17.2564 7.82322 17.6074 7.18721 18.2375C6.55124 18.8677 6.19228 19.7251 6.18947 20.6202C6.18667 21.5156 6.54045 22.3751 7.17253 23.0092C7.8044 23.643 8.66289 23.9996 9.55825 23.9996C10.4463 23.9996 11.2985 23.6488 11.9295 23.0238C12.5603 22.3986 12.9189 21.5496 12.927 20.6616ZM8.07456 20.6616C8.06637 20.2565 8.22094 19.865 8.50358 19.5747C8.78621 19.2843 9.17343 19.1193 9.57853 19.1165C9.98383 19.1139 10.3732 19.2737 10.6597 19.5602C10.9462 19.8467 11.106 20.2361 11.1032 20.6412C11.1004 21.0465 10.9354 21.4337 10.6451 21.7163C10.3549 21.9987 9.96334 22.1533 9.55829 22.1451C9.16484 22.1451 8.78734 21.9888 8.50923 21.7107C8.2309 21.4324 8.07456 21.0551 8.07456 20.6616Z" fill="#9643E6"/>
<path d="M22.2297 20.6622C22.2297 19.7768 21.8781 18.9278 21.252 18.3019C20.6261 17.6758 19.7771 17.3242 18.8917 17.3242C18.0065 17.3242 17.1575 17.6758 16.5314 18.3019C15.9056 18.9278 15.5537 19.7768 15.5537 20.6622C15.5537 21.5474 15.9056 22.3964 16.5314 23.0225C17.1575 23.6483 18.0065 24.0002 18.8917 24.0002C19.7771 24.0002 20.6261 23.6483 21.252 23.0225C21.8781 22.3964 22.2297 21.5474 22.2297 20.6622ZM17.4083 20.6622C17.4163 20.2711 17.5749 19.8984 17.8515 19.622C18.1281 19.3454 18.5009 19.1865 18.8918 19.1787C19.2852 19.1787 19.6627 19.335 19.9408 19.6131C20.2191 19.8912 20.3754 20.2687 20.3754 20.6622C20.3839 21.0582 20.2304 21.4405 19.9503 21.7205C19.6703 22.0006 19.2878 22.1543 18.8918 22.1457C18.4983 22.1457 18.121 21.9894 17.8429 21.7113C17.5646 21.4329 17.4083 21.0557 17.4083 20.6622Z" fill="#9643E6"/>
<path d="M24.1148 5.02321H6.12704L5.41602 1.37611C5.37118 1.19695 5.27848 1.03332 5.14783 0.902677C5.01718 0.77203 4.85355 0.679326 4.6744 0.634484L1.42914 0.0164042V0.0161886C1.18358 -0.0295159 0.929832 0.0224404 0.722034 0.160848C0.514208 0.299471 0.368687 0.513765 0.31651 0.758011C0.271452 0.9999 0.324056 1.24977 0.463328 1.45264C0.602381 1.65551 0.81646 1.79478 1.05834 1.83983L3.71632 2.33418L5.97245 13.7079V13.7081C6.12854 14.4801 6.5455 15.1747 7.15326 15.6757C7.76124 16.1765 8.52287 16.4531 9.31044 16.4588H19.4478C20.1847 16.4618 20.9026 16.2253 21.4935 15.7851C22.0845 15.3446 22.5163 14.7241 22.7239 14.017L25.0111 6.16672C25.0822 5.88926 25.0255 5.59434 24.8565 5.3632C24.675 5.14114 24.4012 5.01567 24.1147 5.02321H24.1148ZM20.9314 13.5226C20.8473 13.849 20.6546 14.137 20.3849 14.3392C20.1152 14.5414 19.7849 14.6458 19.4479 14.6352H9.31047C8.95411 14.6352 8.60895 14.5121 8.33277 14.2868C8.05682 14.0615 7.86732 13.7479 7.79596 13.3988L6.49787 6.87749H22.8784L20.9314 13.5226Z" fill="#9643E6"/>
</svg>
