<svg width="147" height="34" viewBox="0 0 147 34" fill="none" xmlns="http://www.w3.org/2000/svg">
<path d="M0.108029 23.7048C-0.119109 22.4774 0.0119322 21.3526 0.501151 20.3326C0.99037 19.3149 1.7242 18.5396 2.70264 18.0089C3.68108 17.4803 4.79492 17.3668 6.04855 17.6682C5.40645 17.8669 4.93252 18.2447 4.62457 18.8038C4.32099 19.3629 4.15501 19.9788 4.12661 20.6471C4.09604 21.3176 4.13753 21.9466 4.24892 22.5341C4.61583 24.1547 5.37805 25.5284 6.53777 26.6576C7.69529 27.7889 9.07559 28.6406 10.6787 29.2172C12.2861 29.7894 13.9394 30.069 15.6407 30.0559C17.3464 30.0384 18.9124 29.7108 20.3407 29.0687C21.5398 28.5096 22.4549 27.7714 23.0839 26.8497C23.7129 25.9237 24.0536 24.9322 24.106 23.8708C24.1628 22.8115 23.9269 21.7872 23.3984 20.7957C22.8676 19.7998 22.0552 18.9567 20.961 18.2622C19.5982 17.3952 18.0912 16.8011 16.4445 16.48C14.7955 16.1612 13.1269 15.91 11.4387 15.7287C9.74827 15.5431 8.13646 15.2548 6.59892 14.8639C5.56151 14.5843 4.60273 14.1999 3.72476 13.7107C2.8446 13.2215 2.13916 12.5728 1.61063 11.7626C1.07991 10.9545 0.815649 9.96295 0.815649 8.79232C0.785073 7.73307 1.00129 6.83326 1.46212 6.09288C1.92731 5.35468 2.53665 4.73006 3.28795 4.22336C4.43456 3.41528 5.87819 2.82996 7.62104 2.46742C9.36825 2.10705 11.205 1.92578 13.1335 1.92578C15.4507 1.92578 17.6981 2.17694 19.8777 2.67708C22.0552 3.17941 23.8002 3.9045 25.1106 4.85236L23.5643 8.20701C22.136 6.97959 20.5635 5.87011 18.8469 4.87857C17.128 3.88266 15.3197 3.21872 13.4218 2.88675C12.7273 2.74697 11.9039 2.67708 10.9495 2.67708C9.99943 2.67708 9.04501 2.76881 8.08405 2.9479C7.12308 3.12917 6.24948 3.42838 5.46323 3.84771C4.46077 4.37843 3.78591 5.07076 3.43647 5.92689C3.08702 6.77866 3.08702 7.60858 3.43647 8.41667C3.78591 9.22694 4.51974 9.88214 5.63795 10.3823C6.6972 10.8322 7.92243 11.1401 9.31583 11.3083C10.7136 11.4721 12.1856 11.6315 13.7363 11.7888C15.2847 11.9417 16.8136 12.2256 18.3227 12.6449C19.8297 13.0643 21.2143 13.7631 22.4723 14.7416C23.6997 15.6916 24.6345 16.871 25.2766 18.2797C25.9231 19.6905 26.0912 21.274 25.7833 23.0321C25.5321 24.5412 24.973 25.8189 24.106 26.8672C23.2367 27.9155 22.1753 28.7608 20.9173 29.4007C19.6637 30.0428 18.3336 30.5102 16.9249 30.8072C15.5141 31.0998 14.1381 31.244 12.7928 31.244C11.5392 31.244 10.2287 31.1129 8.86156 30.8509C7.49218 30.5844 6.19269 30.1498 4.96528 29.5492C3.73568 28.9508 2.6808 28.1689 1.80282 27.2079C0.922666 26.2426 0.357006 25.0741 0.108029 23.7048Z" fill="#9643E6"/>
<path d="M47.4195 15.3175L53.4353 25.9657C53.7265 26.4572 54.0815 27.0624 54.5001 27.7768C54.9233 28.4867 55.3556 29.1648 55.7925 29.8064C56.2293 30.4435 56.5774 30.9235 56.8391 31.2443H52.8255C52.1566 31.2443 51.656 31.1078 51.3239 30.8348C50.9894 30.5572 50.6617 30.1408 50.3409 29.588L42.4412 15.7088C42.1181 15.1264 41.8064 14.7987 41.5038 14.7259C41.1989 14.6531 40.7416 14.6167 40.1295 14.6167H38.5187C38.166 15.9273 37.9908 17.2378 37.9908 18.5484V26.4481C37.9908 27.7291 38.0636 28.8485 38.2092 29.8064C38.3548 30.7665 38.4276 31.2443 38.4276 31.2443H33.1035C33.1035 31.2443 33.1763 30.7665 33.3219 29.8064C33.4676 28.8485 33.5404 27.7291 33.5404 26.4481V5.49743C33.5404 4.21873 33.4676 3.0993 33.3219 2.13914C33.1763 1.18125 33.1035 0.701172 33.1035 0.701172H38.4276C38.4276 0.701172 38.3548 1.18125 38.2092 2.13914C38.0636 3.0993 37.9908 4.21873 37.9908 5.49743V13.743C38.3662 12.1185 38.9396 10.528 39.7109 8.97404C40.4868 7.41548 41.4492 6.01164 42.5959 4.76025C43.7427 3.5043 45.0555 2.51683 46.5367 1.7933C48.0224 1.06521 49.6538 0.701172 51.4331 0.701172C53.3261 0.701172 55.0576 1.05156 56.6298 1.74779L54.8369 6.19822C54.2544 5.61575 53.5036 5.2153 52.5889 4.99687C51.672 4.77845 50.7778 4.69654 49.9041 4.75115C48.1021 4.84216 46.4411 5.31996 44.9258 6.18001C43.415 7.03551 42.1181 8.14584 41.0396 9.511C39.9657 10.8762 39.183 12.3915 38.6916 14.0524H45.0623C45.729 14.0524 46.2091 14.1207 46.5003 14.2527C46.7915 14.3801 47.0964 14.735 47.4195 15.3175Z" fill="#9643E6"/>
<path d="M76.6068 14.2416V26.6535C76.6068 27.8837 76.668 28.9589 76.7904 29.8788C76.9171 30.801 76.9827 31.2599 76.9827 31.2599H71.8693C71.8693 31.2599 71.9392 30.801 72.0791 29.8788C72.2189 28.9589 72.2889 27.8837 72.2889 26.6535V17.2571L64.9903 7.20522C64.6582 6.72885 64.2255 6.13447 63.6967 5.4221C63.1657 4.71191 62.6325 4.02794 62.0971 3.36801C61.5661 2.71027 61.1203 2.22952 60.7598 1.92578H66.5025L75.6366 14.5824L85.3214 1.92578H88.0835C87.5241 2.22952 86.8685 2.6753 86.1168 3.26312C85.3651 3.85313 84.6396 4.46061 83.9403 5.08995C83.2411 5.71491 82.6817 6.29399 82.2621 6.82936L76.6068 14.2416Z" fill="#9643E6"/>
<path d="M97.1702 2.29834L114.681 29.7468V9.82747C114.681 8.58413 114.536 7.38396 114.249 6.22696C113.96 5.06996 113.664 4.12666 113.36 3.3949C113.053 2.6653 112.902 2.29834 112.902 2.29834H115.639C115.639 2.29834 115.57 2.7538 115.432 3.66256C115.294 4.57348 115.225 5.6355 115.225 6.84863V30.6535L115.639 31.2751H110.588L93.0689 3.82661V23.7374C93.0689 24.9807 93.22 26.1766 93.5265 27.3206C93.8309 28.4668 94.1266 29.4144 94.4159 30.1613C94.703 30.9039 94.8476 31.2751 94.8476 31.2751H90.7754C90.7754 31.2751 91.7443 30.9483 91.8824 30.0374C92.0206 29.1287 91.8824 27.9316 91.8824 26.7164V3.46888L90.7754 2.29834H97.1702Z" fill="#9643E6"/>
<path d="M119.675 25.1607C119.435 23.8513 119.573 22.6513 120.091 21.5632C120.608 20.4774 121.385 19.6502 122.42 19.0841C123.456 18.5202 124.634 18.399 125.961 18.7206C125.281 18.9326 124.78 19.3357 124.454 19.9322C124.133 20.5287 123.957 21.1857 123.927 21.8987C123.895 22.614 123.939 23.2851 124.056 23.9119C124.445 25.6407 125.251 27.1063 126.478 28.3109C127.703 29.5179 129.164 30.4266 130.86 31.0417C132.561 31.6522 134.31 31.9504 136.11 31.9364C137.915 31.9178 139.572 31.5683 141.084 30.8833C142.352 30.2868 143.321 29.4992 143.986 28.516C144.652 27.528 145.012 26.4702 145.068 25.3378C145.128 24.2078 144.878 23.115 144.319 22.0572C143.757 20.9947 142.898 20.0953 141.74 19.3543C140.298 18.4293 138.703 17.7955 136.961 17.453C135.216 17.1129 133.45 16.8449 131.664 16.6515C129.875 16.4535 128.17 16.1459 126.543 15.7288C125.445 15.4306 124.431 15.0205 123.502 14.4986C122.57 13.9766 121.824 13.2846 121.265 12.4202C120.703 11.5581 120.424 10.5003 120.424 9.25137C120.391 8.12131 120.62 7.16134 121.108 6.37146C121.6 5.58391 122.245 4.91753 123.04 4.37696C124.253 3.51485 125.78 2.89041 127.625 2.50363C129.473 2.11917 131.417 1.92578 133.457 1.92578C135.909 1.92578 138.287 2.19373 140.594 2.72731C142.898 3.26321 144.744 4.03678 146.131 5.04801L144.495 8.62692C142.983 7.31745 141.319 6.1338 139.503 5.07597C137.684 4.01348 135.771 3.30515 133.762 2.95099C133.028 2.80187 132.156 2.72731 131.146 2.72731C130.141 2.72731 129.131 2.82517 128.114 3.01623C127.098 3.20962 126.173 3.52884 125.341 3.9762C124.281 4.54239 123.567 5.28101 123.197 6.19438C122.827 7.10309 122.827 7.98849 123.197 8.8506C123.567 9.71504 124.343 10.414 125.526 10.9476C126.647 11.4276 127.943 11.7561 129.418 11.9355C130.897 12.1103 132.454 12.2804 134.095 12.4482C135.734 12.6113 137.351 12.9142 138.948 13.3615C140.543 13.8089 142.008 14.5545 143.339 15.5983C144.638 16.6119 145.627 17.8701 146.306 19.373C146.99 20.8782 147.168 22.5674 146.842 24.4431C146.577 26.0531 145.985 27.4162 145.068 28.5346C144.148 29.653 143.025 30.5547 141.694 31.2374C140.367 31.9225 138.96 32.4211 137.469 32.738C135.976 33.0502 134.52 33.204 133.097 33.204C131.77 33.204 130.384 33.0642 128.937 32.7846C127.488 32.5003 126.113 32.0366 124.814 31.3959C123.513 30.7575 122.397 29.9233 121.468 28.8981C120.537 27.8682 119.938 26.6217 119.675 25.1607Z" fill="#9643E6"/>
</svg>
