<svg width="26" height="26" viewBox="0 0 26 26" fill="none" xmlns="http://www.w3.org/2000/svg">
<path d="M7.25768 23.075C7.05907 22.8764 6.95977 22.6236 6.95977 22.3167C6.95977 22.0097 7.05907 21.7569 7.25768 21.5583L12.4306 16.3583C12.8459 15.9431 13.3605 15.7354 13.9743 15.7354C14.5882 15.7354 15.1028 15.9431 15.5181 16.3583L17.766 18.6062L22.6139 13.7583C22.8306 13.5417 23.0834 13.4333 23.3723 13.4333C23.6612 13.4333 23.9139 13.5417 24.1306 13.7583C24.3473 13.975 24.4556 14.2321 24.4556 14.5297C24.4556 14.8279 24.3473 15.0854 24.1306 15.3021L19.3098 20.15C18.8945 20.5653 18.3846 20.7729 17.7801 20.7729C17.1749 20.7729 16.6646 20.5653 16.2493 20.15L13.9743 17.875L8.77435 23.075C8.57574 23.2736 8.32729 23.3773 8.02902 23.3859C7.73146 23.3953 7.47435 23.2917 7.25768 23.075ZM4.33268 22.75C3.73685 22.75 3.22696 22.538 2.80302 22.1141C2.37835 21.6894 2.16602 21.1792 2.16602 20.5833V5.41667C2.16602 4.82083 2.37835 4.31058 2.80302 3.88592C3.22696 3.46197 3.73685 3.25 4.33268 3.25H19.4993C20.0952 3.25 20.6054 3.46197 21.0301 3.88592C21.454 4.31058 21.666 4.82083 21.666 5.41667V9.75C21.666 10.0569 21.562 10.3141 21.354 10.5213C21.1467 10.7293 20.8896 10.8333 20.5827 10.8333H4.33268V20.5833V22.75ZM4.33268 8.66667H19.4993V5.41667H4.33268V8.66667Z" fill="#9643E6"/>
</svg>
