<svg width="451" height="214" viewBox="0 0 451 214" fill="none" xmlns="http://www.w3.org/2000/svg">
<path d="M351 1.5C405.4 1.5 449.5 45.6 449.5 100V212.5H1.5V1.5H351Z" stroke="#C79BF1" stroke-width="3"/>
<path d="M46.3705 84.0527C46.3705 83.8496 46.3451 83.638 46.2944 83.418C46.2436 83.1979 46.1589 82.9948 46.0405 82.8086C45.922 82.6224 45.7696 82.4701 45.5834 82.3516C45.4141 82.2161 45.1941 82.1484 44.9233 82.1484C44.9233 82.1484 44.9063 82.1569 44.8725 82.1738C44.8556 82.1738 44.8302 82.1738 44.7963 82.1738C44.7455 82.1908 44.7117 82.1992 44.6947 82.1992C44.6101 82.25 44.4493 82.3262 44.2123 82.4277C43.9923 82.5293 43.7299 82.6562 43.4252 82.8086C43.1375 82.9609 42.8243 83.1217 42.4858 83.291C42.1472 83.4603 41.8256 83.6211 41.5209 83.7734C41.2332 83.9089 40.9793 84.0358 40.7592 84.1543C40.5391 84.2728 40.3953 84.3405 40.3276 84.3574C40.2937 84.3743 40.2514 84.3913 40.2006 84.4082C40.1498 84.4251 40.099 84.4336 40.0483 84.4336C39.6589 84.4336 39.3289 84.2559 39.058 83.9004C38.7872 83.528 38.5587 83.0625 38.3725 82.5039C38.1863 81.9284 38.0424 81.3021 37.9408 80.625C37.8393 79.931 37.7546 79.2624 37.6869 78.6191C37.6362 77.9759 37.6023 77.3919 37.5854 76.8672C37.5684 76.3255 37.56 75.9277 37.56 75.6738C37.56 75.5553 37.56 75.3691 37.56 75.1152C37.5769 74.8613 37.5854 74.5905 37.5854 74.3027C37.5854 73.998 37.5854 73.7188 37.5854 73.4648C37.6023 73.2109 37.6108 73.0332 37.6108 72.9316C38.017 72.9147 38.6095 72.847 39.3881 72.7285C40.1837 72.61 41.0216 72.4915 41.9018 72.373C42.7989 72.2376 43.6707 72.1191 44.517 72.0176C45.3634 71.916 46.0489 71.8652 46.5737 71.8652C46.9968 71.8652 47.3438 71.9499 47.6147 72.1191C47.9024 72.2715 48.0463 72.5423 48.0463 72.9316C48.0463 73.3379 47.9617 73.6087 47.7924 73.7441C47.6231 73.8626 47.31 73.9727 46.853 74.0742C46.6837 74.0911 46.4128 74.1335 46.0405 74.2012C45.6681 74.2689 45.2449 74.3451 44.7709 74.4297C44.3139 74.4974 43.8315 74.5736 43.3237 74.6582C42.8158 74.7259 42.325 74.7936 41.851 74.8613C41.394 74.929 40.9793 74.9883 40.6069 75.0391C40.2345 75.0898 39.9552 75.1237 39.769 75.1406C39.769 75.1914 39.7605 75.2676 39.7436 75.3691C39.7436 75.4538 39.7436 75.5638 39.7436 75.6992C39.7436 75.8177 39.7351 75.9277 39.7182 76.0293C39.7182 76.1139 39.7182 76.1816 39.7182 76.2324C39.7182 76.3678 39.7266 76.5879 39.7436 76.8926C39.7774 77.1803 39.8197 77.5104 39.8705 77.8828C39.9213 78.2383 39.9806 78.6107 40.0483 79C40.1329 79.3893 40.226 79.7448 40.3276 80.0664C40.4291 80.388 40.5391 80.6504 40.6576 80.8535C40.7761 81.0566 40.9115 81.1582 41.0639 81.1582C41.4024 81.1582 41.7156 81.099 42.0033 80.9805C42.308 80.862 42.6043 80.7266 42.892 80.5742C43.1967 80.4219 43.5099 80.2865 43.8315 80.168C44.1531 80.0495 44.5086 79.9902 44.8979 79.9902C45.6088 79.9902 46.2013 80.0833 46.6752 80.2695C47.1492 80.4388 47.5216 80.7096 47.7924 81.082C48.0632 81.4375 48.2579 81.8861 48.3764 82.4277C48.4949 82.9525 48.5541 83.5703 48.5541 84.2812C48.5541 85.0768 48.4187 85.9232 48.1479 86.8203C47.877 87.7005 47.4877 88.5215 46.9799 89.2832C46.489 90.028 45.8796 90.6543 45.1518 91.1621C44.4239 91.653 43.5945 91.8984 42.6635 91.8984C42.6635 91.3568 42.7566 90.8659 42.9428 90.4258C43.129 89.9857 43.3575 89.571 43.6283 89.1816C43.8992 88.7923 44.1954 88.4115 44.517 88.0391C44.8386 87.6667 45.1349 87.2858 45.4057 86.8965C45.6934 86.4902 45.922 86.0586 46.0912 85.6016C46.2774 85.1445 46.3705 84.6283 46.3705 84.0527ZM53.099 89.9434C53.8608 89.9434 54.2416 90.3411 54.2416 91.1367C54.0554 91.6276 53.8184 91.9492 53.5307 92.1016C53.2429 92.2708 52.9721 92.3301 52.7182 92.2793C52.4812 92.2454 52.2612 92.127 52.058 91.9238C51.8718 91.7207 51.7703 91.4922 51.7533 91.2383C51.7364 90.9844 51.8295 90.7389 52.0326 90.502C52.2358 90.248 52.5912 90.0618 53.099 89.9434ZM65.0918 74.582C65.3626 74.7852 65.5827 75.0391 65.752 75.3438C65.9212 75.6315 66.0566 75.9277 66.1582 76.2324C66.1751 76.8757 66.1836 77.6458 66.1836 78.543C66.1836 79.4401 66.2174 80.3711 66.2852 81.3359C66.3529 82.3008 66.4798 83.2656 66.666 84.2305C66.8522 85.1784 67.14 86.0332 67.5293 86.7949C67.9355 87.5566 68.4688 88.1745 69.1289 88.6484C69.806 89.1055 70.6523 89.334 71.668 89.334C72.599 89.334 73.3945 89.1139 74.0547 88.6738C74.7318 88.2337 75.2904 87.6751 75.7305 86.998C76.1875 86.321 76.5176 85.5677 76.7207 84.7383C76.9408 83.8919 77.0508 83.071 77.0508 82.2754C77.0508 80.735 76.9746 79.1693 76.8223 77.5781C76.6699 75.9701 76.3906 74.4212 75.9844 72.9316C76.1029 72.627 76.2552 72.4577 76.4414 72.4238C76.6276 72.373 76.8307 72.3477 77.0508 72.3477C77.4909 72.3477 77.8379 72.5254 78.0918 72.8809C78.3457 73.2363 78.5319 73.6934 78.6504 74.252C78.7858 74.7936 78.862 75.3945 78.8789 76.0547C78.9128 76.6979 78.9128 77.3158 78.8789 77.9082C78.862 78.4837 78.8281 79 78.7773 79.457C78.7435 79.8971 78.7266 80.1764 78.7266 80.2949C78.7266 81.1751 78.7012 82.0723 78.6504 82.9863C78.6165 83.8835 78.515 84.7467 78.3457 85.5762C78.1934 86.4056 77.9564 87.1842 77.6348 87.9121C77.3301 88.623 76.9154 89.2493 76.3906 89.791C75.8659 90.3158 75.2142 90.7305 74.4355 91.0352C73.6569 91.3398 72.7259 91.4922 71.6426 91.4922C70.2715 91.4922 69.1458 91.2298 68.2656 90.7051C67.3854 90.1803 66.6745 89.4863 66.1328 88.623C65.6081 87.7428 65.2103 86.7441 64.9395 85.627C64.6855 84.5098 64.4993 83.3672 64.3809 82.1992C64.2793 81.0312 64.2031 79.8802 64.1523 78.7461C64.1185 77.612 64.0677 76.5879 64 75.6738L65.0918 74.582ZM85.1504 90.8574C85.4212 90.6712 85.7428 90.4342 86.1152 90.1465C86.5046 89.8418 86.8939 89.5202 87.2832 89.1816C87.6725 88.8431 88.0365 88.4876 88.375 88.1152C88.7135 87.7428 88.9759 87.3874 89.1621 87.0488C89.3652 86.6934 89.4668 86.3633 89.4668 86.0586C89.4668 85.7539 89.3145 85.5 89.0098 85.2969C88.4681 85.2969 87.8757 85.3223 87.2324 85.373C86.5892 85.4069 85.946 85.4238 85.3027 85.4238C84.6595 85.4069 84.0332 85.3477 83.4238 85.2461C82.8314 85.1445 82.2982 84.9583 81.8242 84.6875C81.3503 84.4167 80.9694 84.0358 80.6816 83.5449C80.4108 83.0371 80.2754 82.3939 80.2754 81.6152C80.2754 80.7012 80.4447 79.8802 80.7832 79.1523C81.1387 78.4076 81.6042 77.7559 82.1797 77.1973C82.7552 76.6217 83.3984 76.1224 84.1094 75.6992C84.8372 75.2591 85.5651 74.8867 86.293 74.582C86.7331 74.7005 87.1393 74.9121 87.5117 75.2168C87.8841 75.5215 88.2057 75.86 88.4766 76.2324C88.3581 76.6048 88.1211 76.8926 87.7656 77.0957C87.4271 77.2988 87.0293 77.4766 86.5723 77.6289C86.1322 77.7812 85.6667 77.9421 85.1758 78.1113C84.6849 78.2806 84.2363 78.5091 83.8301 78.7969C83.4408 79.0677 83.1107 79.4316 82.8398 79.8887C82.569 80.3288 82.4336 80.9128 82.4336 81.6406C82.4336 82.1823 82.569 82.5801 82.8398 82.834C83.1107 83.0879 83.4661 83.2656 83.9062 83.3672C84.3464 83.4518 84.8457 83.4857 85.4043 83.4688C85.9629 83.4349 86.5299 83.3926 87.1055 83.3418C87.6979 83.291 88.2734 83.2656 88.832 83.2656C89.3906 83.2487 89.89 83.3164 90.3301 83.4688C90.7702 83.6042 91.1172 83.8327 91.3711 84.1543C91.6419 84.4759 91.7773 84.9499 91.7773 85.5762C91.7773 85.847 91.6842 86.194 91.498 86.6172C91.3288 87.0404 91.0918 87.4974 90.7871 87.9883C90.4993 88.4622 90.1523 88.9362 89.7461 89.4102C89.3568 89.8841 88.9421 90.3158 88.502 90.7051C88.0788 91.0775 87.6471 91.3906 87.207 91.6445C86.7839 91.8815 86.3861 92 86.0137 92C85.6582 92 85.4212 91.873 85.3027 91.6191C85.2012 91.3652 85.1504 91.1113 85.1504 90.8574ZM92.793 84.9414C92.793 84.0273 92.903 83.1133 93.123 82.1992C93.3431 81.2852 93.6901 80.4642 94.1641 79.7363C94.6549 79.0085 95.2812 78.416 96.043 77.959C96.8216 77.502 97.7611 77.2734 98.8613 77.2734C99.4876 77.2734 100.038 77.3919 100.512 77.6289C100.986 77.849 101.383 78.1452 101.705 78.5176C102.027 78.89 102.264 79.3301 102.416 79.8379C102.585 80.3288 102.67 80.8451 102.67 81.3867C102.67 82.25 102.467 83.0879 102.061 83.9004C101.671 84.7129 101.138 85.4323 100.461 86.0586C99.8008 86.668 99.0391 87.1335 98.1758 87.4551C97.3125 87.7598 96.4323 87.8275 95.5352 87.6582C95.5521 88.1491 95.7129 88.5469 96.0176 88.8516C96.3392 89.1393 96.7201 89.3594 97.1602 89.5117C97.6003 89.6641 98.0573 89.7656 98.5312 89.8164C99.0052 89.8503 99.4284 89.8672 99.8008 89.8672C100.19 89.8672 100.554 89.8333 100.893 89.7656C101.231 89.6979 101.57 89.6217 101.908 89.5371C102.247 89.4525 102.585 89.3763 102.924 89.3086C103.279 89.2409 103.652 89.207 104.041 89.207C104.193 89.207 104.346 89.2155 104.498 89.2324C104.65 89.2493 104.794 89.2917 104.93 89.3594C105.065 89.4102 105.175 89.5033 105.26 89.6387C105.344 89.7572 105.387 89.9095 105.387 90.0957C105.387 90.4173 105.268 90.6882 105.031 90.9082C104.794 91.1113 104.49 91.2891 104.117 91.4414C103.762 91.5938 103.364 91.7122 102.924 91.7969C102.484 91.8646 102.052 91.9238 101.629 91.9746C101.223 92.0085 100.842 92.0254 100.486 92.0254C100.148 92.0423 99.8939 92.0508 99.7246 92.0508C98.6413 92.0508 97.668 91.8815 96.8047 91.543C95.9414 91.1875 95.2135 90.7051 94.6211 90.0957C94.0286 89.4694 93.5716 88.7246 93.25 87.8613C92.9453 86.9811 92.793 86.0078 92.793 84.9414ZM95.4844 83.291C95.4844 83.8835 95.5605 84.3151 95.7129 84.5859C95.8822 84.8568 96.2799 84.9922 96.9062 84.9922C97.3464 84.9922 97.778 84.916 98.2012 84.7637C98.6243 84.5944 99.0052 84.3659 99.3438 84.0781C99.6992 83.7904 99.9785 83.4518 100.182 83.0625C100.385 82.6732 100.486 82.25 100.486 81.793C100.486 81.5391 100.461 81.2767 100.41 81.0059C100.376 80.735 100.292 80.4896 100.156 80.2695C100.021 80.0326 99.8431 79.8464 99.623 79.7109C99.4199 79.5586 99.1491 79.4824 98.8105 79.4824C98.3027 79.4824 97.8372 79.6009 97.4141 79.8379C97.0078 80.0579 96.6608 80.3542 96.373 80.7266C96.0853 81.082 95.8652 81.4883 95.7129 81.9453C95.5605 82.3854 95.4844 82.834 95.4844 83.291ZM118.666 82.6309C118.666 80.9889 119.047 79.7702 119.809 78.9746C120.57 78.179 121.738 77.7812 123.312 77.7812C123.956 77.7812 124.616 77.8405 125.293 77.959C125.987 78.0775 126.622 78.2891 127.197 78.5938C127.773 78.8815 128.238 79.2878 128.594 79.8125C128.966 80.3372 129.152 81.0143 129.152 81.8438C129.152 82.7578 128.949 83.6211 128.543 84.4336C128.154 85.2292 127.654 85.9824 127.045 86.6934C126.452 87.3874 125.792 88.0391 125.064 88.6484C124.354 89.2409 123.685 89.8079 123.059 90.3496C123.025 90.4173 122.991 90.5612 122.957 90.7812C122.94 90.9844 122.932 91.1198 122.932 91.1875C122.932 91.7461 123.092 92.3047 123.414 92.8633C123.753 93.4388 124.117 94.0143 124.506 94.5898C124.895 95.1823 125.251 95.7917 125.572 96.418C125.894 97.0443 126.055 97.696 126.055 98.373C126.055 98.7793 125.97 99.0163 125.801 99.084C125.632 99.1686 125.276 99.2109 124.734 99.2109C124.396 99.0755 124.057 98.7539 123.719 98.2461C123.397 97.7552 123.067 97.1458 122.729 96.418C122.407 95.6901 122.085 94.8691 121.764 93.9551C121.459 93.0579 121.163 92.1439 120.875 91.2129C120.604 90.265 120.342 89.334 120.088 88.4199C119.851 87.4889 119.639 86.6341 119.453 85.8555C119.267 85.0768 119.098 84.4082 118.945 83.8496C118.81 83.2741 118.717 82.8678 118.666 82.6309ZM120.824 82.8594C120.824 83.1133 120.841 83.4857 120.875 83.9766C120.909 84.4505 120.977 84.9245 121.078 85.3984C121.197 85.8724 121.366 86.2871 121.586 86.6426C121.806 86.9811 122.111 87.1504 122.5 87.1504C123.025 87.1504 123.549 86.9727 124.074 86.6172C124.616 86.2617 125.09 85.8132 125.496 85.2715C125.919 84.7298 126.258 84.1543 126.512 83.5449C126.783 82.9186 126.918 82.3516 126.918 81.8438C126.918 81.4206 126.816 81.0905 126.613 80.8535C126.41 80.5996 126.148 80.4049 125.826 80.2695C125.521 80.1172 125.191 80.0241 124.836 79.9902C124.48 79.9395 124.142 79.9141 123.82 79.9141C122.855 79.9141 122.111 80.1764 121.586 80.7012C121.078 81.209 120.824 81.9284 120.824 82.8594ZM130.65 81.3359C130.65 81.1836 130.659 81.0312 130.676 80.8789C130.693 80.7096 130.727 80.5658 130.777 80.4473C130.828 80.3118 130.904 80.2018 131.006 80.1172C131.124 80.0326 131.285 79.9902 131.488 79.9902C131.658 79.9902 131.844 80.1257 132.047 80.3965C132.267 80.6504 132.487 80.9805 132.707 81.3867C132.927 81.776 133.139 82.2077 133.342 82.6816C133.562 83.1556 133.748 83.5957 133.9 84.002C134.07 84.3913 134.205 84.7298 134.307 85.0176C134.408 85.3053 134.467 85.4577 134.484 85.4746C134.704 84.8822 134.95 84.2389 135.221 83.5449C135.492 82.8509 135.822 82.2077 136.211 81.6152C136.617 81.0059 137.091 80.498 137.633 80.0918C138.191 79.6855 138.868 79.4824 139.664 79.4824C140.07 79.4824 140.451 79.5501 140.807 79.6855C141.179 79.804 141.501 79.9902 141.771 80.2441C142.059 80.4811 142.288 80.7689 142.457 81.1074C142.626 81.446 142.711 81.8353 142.711 82.2754C142.711 82.6478 142.559 82.9102 142.254 83.0625C141.966 83.2148 141.636 83.291 141.264 83.291H141.01L139.918 82.1992C139.884 82.1992 139.859 82.1908 139.842 82.1738C139.808 82.1738 139.774 82.1738 139.74 82.1738C139.723 82.1569 139.698 82.1484 139.664 82.1484C139.072 82.1484 138.606 82.3177 138.268 82.6562C137.946 82.9779 137.701 83.3841 137.531 83.875C137.362 84.349 137.252 84.8568 137.201 85.3984C137.167 85.9232 137.15 86.4056 137.15 86.8457C137.15 87.1842 137.184 87.5312 137.252 87.8867C137.32 88.2253 137.396 88.5638 137.48 88.9023C137.565 89.224 137.641 89.5625 137.709 89.918C137.777 90.2565 137.811 90.612 137.811 90.9844C137.811 91.6953 137.43 92.0508 136.668 92.0508C136.245 92.0508 135.805 91.8307 135.348 91.3906C134.891 90.9336 134.434 90.3581 133.977 89.6641C133.536 88.9701 133.113 88.2083 132.707 87.3789C132.301 86.5326 131.945 85.7116 131.641 84.916C131.336 84.1204 131.09 83.401 130.904 82.7578C130.735 82.1146 130.65 81.6406 130.65 81.3359ZM143.625 86.8457C143.625 85.7962 143.87 84.8229 144.361 83.9258C144.852 83.0117 145.495 82.2331 146.291 81.5898C147.104 80.9297 148.009 80.4134 149.008 80.041C150.023 79.6686 151.048 79.4824 152.08 79.4824C152.656 79.4824 153.163 79.6686 153.604 80.041C154.061 80.4134 154.441 80.8704 154.746 81.4121C155.051 81.9368 155.279 82.4954 155.432 83.0879C155.601 83.6803 155.686 84.1966 155.686 84.6367C155.686 85.5846 155.457 86.5072 155 87.4043C154.543 88.2845 153.951 89.0716 153.223 89.7656C152.495 90.4427 151.674 90.9928 150.76 91.416C149.846 91.8392 148.932 92.0508 148.018 92.0508C147.205 92.0508 146.52 91.9154 145.961 91.6445C145.402 91.3568 144.954 90.9844 144.615 90.5273C144.277 90.0534 144.023 89.5033 143.854 88.877C143.701 88.2337 143.625 87.5566 143.625 86.8457ZM145.783 87.0996C145.783 87.5397 145.817 87.929 145.885 88.2676C145.969 88.5892 146.105 88.8685 146.291 89.1055C146.494 89.3424 146.757 89.5286 147.078 89.6641C147.4 89.7826 147.798 89.8418 148.271 89.8418C148.898 89.8418 149.524 89.6725 150.15 89.334C150.777 88.9785 151.335 88.5384 151.826 88.0137C152.334 87.472 152.74 86.8796 153.045 86.2363C153.35 85.5931 153.502 84.9668 153.502 84.3574C153.502 84.0866 153.477 83.7904 153.426 83.4688C153.375 83.1471 153.29 82.8509 153.172 82.5801C153.053 82.3092 152.884 82.0807 152.664 81.8945C152.444 81.7083 152.165 81.6152 151.826 81.6152C151.521 81.6152 151.158 81.7168 150.734 81.9199C150.328 82.123 149.896 82.3854 149.439 82.707C148.999 83.0286 148.559 83.3926 148.119 83.7988C147.696 84.2051 147.307 84.6113 146.951 85.0176C146.596 85.4238 146.308 85.8132 146.088 86.1855C145.885 86.5579 145.783 86.8626 145.783 87.0996ZM156.117 79.2031C156.117 79.1523 156.126 79.11 156.143 79.0762C156.143 79.0423 156.151 79 156.168 78.9492C156.236 78.8646 156.337 78.7546 156.473 78.6191C156.608 78.4837 156.693 78.416 156.727 78.416H161.83C161.83 78.2298 161.805 77.9336 161.754 77.5273C161.703 77.1211 161.652 76.6725 161.602 76.1816C161.568 75.6908 161.559 75.1829 161.576 74.6582C161.593 74.1165 161.661 73.6341 161.779 73.2109C161.915 72.7708 162.118 72.4154 162.389 72.1445C162.676 71.8568 163.074 71.7129 163.582 71.7129C163.582 73.4225 163.701 74.7936 163.938 75.8262C164.174 76.8587 164.488 77.6543 164.877 78.2129C165.283 78.7715 165.74 79.1354 166.248 79.3047C166.756 79.474 167.272 79.5501 167.797 79.5332C168.339 79.4993 168.863 79.4147 169.371 79.2793C169.879 79.1439 170.327 79.0508 170.717 79C171.123 78.9492 171.445 78.9915 171.682 79.127C171.919 79.2454 172.037 79.5417 172.037 80.0156C172.037 80.3711 171.952 80.625 171.783 80.7773C171.631 80.9297 171.326 81.0482 170.869 81.1328C170.734 81.1497 170.505 81.1836 170.184 81.2344C169.879 81.2682 169.532 81.3021 169.143 81.3359C168.753 81.3698 168.339 81.4121 167.898 81.4629C167.458 81.4967 167.044 81.5306 166.654 81.5645C166.265 81.5983 165.91 81.6237 165.588 81.6406C165.266 81.6406 165.029 81.6406 164.877 81.6406C164.877 81.7253 164.868 81.8691 164.852 82.0723C164.835 82.2754 164.826 82.4108 164.826 82.4785C164.826 83.2233 164.945 83.9512 165.182 84.6621C165.419 85.3561 165.673 86.0501 165.943 86.7441C166.231 87.4382 166.493 88.1322 166.73 88.8262C166.967 89.5202 167.086 90.2396 167.086 90.9844C167.086 91.1198 167.069 91.2637 167.035 91.416C167.018 91.5514 166.967 91.6784 166.883 91.7969C166.815 91.8984 166.705 91.9746 166.553 92.0254C166.417 92.0931 166.223 92.0846 165.969 92C165.326 91.8307 164.843 91.4668 164.521 90.9082C164.217 90.3496 163.988 89.6895 163.836 88.9277C163.684 88.1491 163.582 87.3281 163.531 86.4648C163.48 85.6016 163.396 84.7975 163.277 84.0527C163.176 83.291 163.007 82.6478 162.77 82.123C162.533 81.5814 162.152 81.2513 161.627 81.1328L156.727 80.0156C156.659 80.0156 156.557 79.9479 156.422 79.8125C156.286 79.6602 156.202 79.5501 156.168 79.4824C156.151 79.4486 156.143 79.4062 156.143 79.3555C156.126 79.3216 156.117 79.2708 156.117 79.2031ZM173.002 84.9414C173.002 84.0273 173.112 83.1133 173.332 82.1992C173.552 81.2852 173.899 80.4642 174.373 79.7363C174.864 79.0085 175.49 78.416 176.252 77.959C177.031 77.502 177.97 77.2734 179.07 77.2734C179.697 77.2734 180.247 77.3919 180.721 77.6289C181.195 77.849 181.592 78.1452 181.914 78.5176C182.236 78.89 182.473 79.3301 182.625 79.8379C182.794 80.3288 182.879 80.8451 182.879 81.3867C182.879 82.25 182.676 83.0879 182.27 83.9004C181.88 84.7129 181.347 85.4323 180.67 86.0586C180.01 86.668 179.248 87.1335 178.385 87.4551C177.521 87.7598 176.641 87.8275 175.744 87.6582C175.761 88.1491 175.922 88.5469 176.227 88.8516C176.548 89.1393 176.929 89.3594 177.369 89.5117C177.809 89.6641 178.266 89.7656 178.74 89.8164C179.214 89.8503 179.637 89.8672 180.01 89.8672C180.399 89.8672 180.763 89.8333 181.102 89.7656C181.44 89.6979 181.779 89.6217 182.117 89.5371C182.456 89.4525 182.794 89.3763 183.133 89.3086C183.488 89.2409 183.861 89.207 184.25 89.207C184.402 89.207 184.555 89.2155 184.707 89.2324C184.859 89.2493 185.003 89.2917 185.139 89.3594C185.274 89.4102 185.384 89.5033 185.469 89.6387C185.553 89.7572 185.596 89.9095 185.596 90.0957C185.596 90.4173 185.477 90.6882 185.24 90.9082C185.003 91.1113 184.699 91.2891 184.326 91.4414C183.971 91.5938 183.573 91.7122 183.133 91.7969C182.693 91.8646 182.261 91.9238 181.838 91.9746C181.432 92.0085 181.051 92.0254 180.695 92.0254C180.357 92.0423 180.103 92.0508 179.934 92.0508C178.85 92.0508 177.877 91.8815 177.014 91.543C176.15 91.1875 175.423 90.7051 174.83 90.0957C174.238 89.4694 173.781 88.7246 173.459 87.8613C173.154 86.9811 173.002 86.0078 173.002 84.9414ZM175.693 83.291C175.693 83.8835 175.77 84.3151 175.922 84.5859C176.091 84.8568 176.489 84.9922 177.115 84.9922C177.555 84.9922 177.987 84.916 178.41 84.7637C178.833 84.5944 179.214 84.3659 179.553 84.0781C179.908 83.7904 180.188 83.4518 180.391 83.0625C180.594 82.6732 180.695 82.25 180.695 81.793C180.695 81.5391 180.67 81.2767 180.619 81.0059C180.585 80.735 180.501 80.4896 180.365 80.2695C180.23 80.0326 180.052 79.8464 179.832 79.7109C179.629 79.5586 179.358 79.4824 179.02 79.4824C178.512 79.4824 178.046 79.6009 177.623 79.8379C177.217 80.0579 176.87 80.3542 176.582 80.7266C176.294 81.082 176.074 81.4883 175.922 81.9453C175.77 82.3854 175.693 82.834 175.693 83.291ZM186.611 79.2031C186.611 79.1523 186.62 79.11 186.637 79.0762C186.637 79.0423 186.645 79 186.662 78.9492C186.73 78.8646 186.831 78.7546 186.967 78.6191C187.102 78.4837 187.187 78.416 187.221 78.416H192.324C192.324 78.2298 192.299 77.9336 192.248 77.5273C192.197 77.1211 192.146 76.6725 192.096 76.1816C192.062 75.6908 192.053 75.1829 192.07 74.6582C192.087 74.1165 192.155 73.6341 192.273 73.2109C192.409 72.7708 192.612 72.4154 192.883 72.1445C193.171 71.8568 193.568 71.7129 194.076 71.7129C194.076 73.4225 194.195 74.7936 194.432 75.8262C194.669 76.8587 194.982 77.6543 195.371 78.2129C195.777 78.7715 196.234 79.1354 196.742 79.3047C197.25 79.474 197.766 79.5501 198.291 79.5332C198.833 79.4993 199.357 79.4147 199.865 79.2793C200.373 79.1439 200.822 79.0508 201.211 79C201.617 78.9492 201.939 78.9915 202.176 79.127C202.413 79.2454 202.531 79.5417 202.531 80.0156C202.531 80.3711 202.447 80.625 202.277 80.7773C202.125 80.9297 201.82 81.0482 201.363 81.1328C201.228 81.1497 200.999 81.1836 200.678 81.2344C200.373 81.2682 200.026 81.3021 199.637 81.3359C199.247 81.3698 198.833 81.4121 198.393 81.4629C197.952 81.4967 197.538 81.5306 197.148 81.5645C196.759 81.5983 196.404 81.6237 196.082 81.6406C195.76 81.6406 195.523 81.6406 195.371 81.6406C195.371 81.7253 195.363 81.8691 195.346 82.0723C195.329 82.2754 195.32 82.4108 195.32 82.4785C195.32 83.2233 195.439 83.9512 195.676 84.6621C195.913 85.3561 196.167 86.0501 196.438 86.7441C196.725 87.4382 196.988 88.1322 197.225 88.8262C197.462 89.5202 197.58 90.2396 197.58 90.9844C197.58 91.1198 197.563 91.2637 197.529 91.416C197.512 91.5514 197.462 91.6784 197.377 91.7969C197.309 91.8984 197.199 91.9746 197.047 92.0254C196.911 92.0931 196.717 92.0846 196.463 92C195.82 91.8307 195.337 91.4668 195.016 90.9082C194.711 90.3496 194.482 89.6895 194.33 88.9277C194.178 88.1491 194.076 87.3281 194.025 86.4648C193.975 85.6016 193.89 84.7975 193.771 84.0527C193.67 83.291 193.501 82.6478 193.264 82.123C193.027 81.5814 192.646 81.2513 192.121 81.1328L187.221 80.0156C187.153 80.0156 187.051 79.9479 186.916 79.8125C186.781 79.6602 186.696 79.5501 186.662 79.4824C186.645 79.4486 186.637 79.4062 186.637 79.3555C186.62 79.3216 186.611 79.2708 186.611 79.2031ZM203.496 86.8457C203.496 85.7962 203.742 84.8229 204.232 83.9258C204.723 83.0117 205.367 82.2331 206.162 81.5898C206.975 80.9297 207.88 80.4134 208.879 80.041C209.895 79.6686 210.919 79.4824 211.951 79.4824C212.527 79.4824 213.035 79.6686 213.475 80.041C213.932 80.4134 214.312 80.8704 214.617 81.4121C214.922 81.9368 215.15 82.4954 215.303 83.0879C215.472 83.6803 215.557 84.1966 215.557 84.6367C215.557 85.5846 215.328 86.5072 214.871 87.4043C214.414 88.2845 213.822 89.0716 213.094 89.7656C212.366 90.4427 211.545 90.9928 210.631 91.416C209.717 91.8392 208.803 92.0508 207.889 92.0508C207.076 92.0508 206.391 91.9154 205.832 91.6445C205.273 91.3568 204.825 90.9844 204.486 90.5273C204.148 90.0534 203.894 89.5033 203.725 88.877C203.572 88.2337 203.496 87.5566 203.496 86.8457ZM205.654 87.0996C205.654 87.5397 205.688 87.929 205.756 88.2676C205.84 88.5892 205.976 88.8685 206.162 89.1055C206.365 89.3424 206.628 89.5286 206.949 89.6641C207.271 89.7826 207.669 89.8418 208.143 89.8418C208.769 89.8418 209.395 89.6725 210.021 89.334C210.648 88.9785 211.206 88.5384 211.697 88.0137C212.205 87.472 212.611 86.8796 212.916 86.2363C213.221 85.5931 213.373 84.9668 213.373 84.3574C213.373 84.0866 213.348 83.7904 213.297 83.4688C213.246 83.1471 213.161 82.8509 213.043 82.5801C212.924 82.3092 212.755 82.0807 212.535 81.8945C212.315 81.7083 212.036 81.6152 211.697 81.6152C211.393 81.6152 211.029 81.7168 210.605 81.9199C210.199 82.123 209.768 82.3854 209.311 82.707C208.87 83.0286 208.43 83.3926 207.99 83.7988C207.567 84.2051 207.178 84.6113 206.822 85.0176C206.467 85.4238 206.179 85.8132 205.959 86.1855C205.756 86.5579 205.654 86.8626 205.654 87.0996ZM216.547 81.3359C216.547 81.1836 216.555 81.0312 216.572 80.8789C216.589 80.7096 216.623 80.5658 216.674 80.4473C216.725 80.3118 216.801 80.2018 216.902 80.1172C217.021 80.0326 217.182 79.9902 217.385 79.9902C217.554 79.9902 217.74 80.1257 217.943 80.3965C218.163 80.6504 218.383 80.9805 218.604 81.3867C218.824 81.776 219.035 82.2077 219.238 82.6816C219.458 83.1556 219.645 83.5957 219.797 84.002C219.966 84.3913 220.102 84.7298 220.203 85.0176C220.305 85.3053 220.364 85.4577 220.381 85.4746C220.601 84.8822 220.846 84.2389 221.117 83.5449C221.388 82.8509 221.718 82.2077 222.107 81.6152C222.514 81.0059 222.988 80.498 223.529 80.0918C224.088 79.6855 224.765 79.4824 225.561 79.4824C225.967 79.4824 226.348 79.5501 226.703 79.6855C227.076 79.804 227.397 79.9902 227.668 80.2441C227.956 80.4811 228.184 80.7689 228.354 81.1074C228.523 81.446 228.607 81.8353 228.607 82.2754C228.607 82.6478 228.455 82.9102 228.15 83.0625C227.863 83.2148 227.533 83.291 227.16 83.291H226.906L225.814 82.1992C225.781 82.1992 225.755 82.1908 225.738 82.1738C225.704 82.1738 225.671 82.1738 225.637 82.1738C225.62 82.1569 225.594 82.1484 225.561 82.1484C224.968 82.1484 224.503 82.3177 224.164 82.6562C223.842 82.9779 223.597 83.3841 223.428 83.875C223.258 84.349 223.148 84.8568 223.098 85.3984C223.064 85.9232 223.047 86.4056 223.047 86.8457C223.047 87.1842 223.081 87.5312 223.148 87.8867C223.216 88.2253 223.292 88.5638 223.377 88.9023C223.462 89.224 223.538 89.5625 223.605 89.918C223.673 90.2565 223.707 90.612 223.707 90.9844C223.707 91.6953 223.326 92.0508 222.564 92.0508C222.141 92.0508 221.701 91.8307 221.244 91.3906C220.787 90.9336 220.33 90.3581 219.873 89.6641C219.433 88.9701 219.01 88.2083 218.604 87.3789C218.197 86.5326 217.842 85.7116 217.537 84.916C217.232 84.1204 216.987 83.401 216.801 82.7578C216.632 82.1146 216.547 81.6406 216.547 81.3359ZM246.102 90.8574C246.372 90.6712 246.694 90.4342 247.066 90.1465C247.456 89.8418 247.845 89.5202 248.234 89.1816C248.624 88.8431 248.988 88.4876 249.326 88.1152C249.665 87.7428 249.927 87.3874 250.113 87.0488C250.316 86.6934 250.418 86.3633 250.418 86.0586C250.418 85.7539 250.266 85.5 249.961 85.2969C249.419 85.2969 248.827 85.3223 248.184 85.373C247.54 85.4069 246.897 85.4238 246.254 85.4238C245.611 85.4069 244.984 85.3477 244.375 85.2461C243.783 85.1445 243.249 84.9583 242.775 84.6875C242.301 84.4167 241.921 84.0358 241.633 83.5449C241.362 83.0371 241.227 82.3939 241.227 81.6152C241.227 80.7012 241.396 79.8802 241.734 79.1523C242.09 78.4076 242.555 77.7559 243.131 77.1973C243.706 76.6217 244.35 76.1224 245.061 75.6992C245.788 75.2591 246.516 74.8867 247.244 74.582C247.684 74.7005 248.09 74.9121 248.463 75.2168C248.835 75.5215 249.157 75.86 249.428 76.2324C249.309 76.6048 249.072 76.8926 248.717 77.0957C248.378 77.2988 247.98 77.4766 247.523 77.6289C247.083 77.7812 246.618 77.9421 246.127 78.1113C245.636 78.2806 245.188 78.5091 244.781 78.7969C244.392 79.0677 244.062 79.4316 243.791 79.8887C243.52 80.3288 243.385 80.9128 243.385 81.6406C243.385 82.1823 243.52 82.5801 243.791 82.834C244.062 83.0879 244.417 83.2656 244.857 83.3672C245.298 83.4518 245.797 83.4857 246.355 83.4688C246.914 83.4349 247.481 83.3926 248.057 83.3418C248.649 83.291 249.225 83.2656 249.783 83.2656C250.342 83.2487 250.841 83.3164 251.281 83.4688C251.721 83.6042 252.068 83.8327 252.322 84.1543C252.593 84.4759 252.729 84.9499 252.729 85.5762C252.729 85.847 252.635 86.194 252.449 86.6172C252.28 87.0404 252.043 87.4974 251.738 87.9883C251.451 88.4622 251.104 88.9362 250.697 89.4102C250.308 89.8841 249.893 90.3158 249.453 90.7051C249.03 91.0775 248.598 91.3906 248.158 91.6445C247.735 91.8815 247.337 92 246.965 92C246.609 92 246.372 91.873 246.254 91.6191C246.152 91.3652 246.102 91.1113 246.102 90.8574ZM253.744 86.8457C253.744 85.7962 253.99 84.8229 254.48 83.9258C254.971 83.0117 255.615 82.2331 256.41 81.5898C257.223 80.9297 258.128 80.4134 259.127 80.041C260.143 79.6686 261.167 79.4824 262.199 79.4824C262.775 79.4824 263.283 79.6686 263.723 80.041C264.18 80.4134 264.561 80.8704 264.865 81.4121C265.17 81.9368 265.398 82.4954 265.551 83.0879C265.72 83.6803 265.805 84.1966 265.805 84.6367C265.805 85.5846 265.576 86.5072 265.119 87.4043C264.662 88.2845 264.07 89.0716 263.342 89.7656C262.614 90.4427 261.793 90.9928 260.879 91.416C259.965 91.8392 259.051 92.0508 258.137 92.0508C257.324 92.0508 256.639 91.9154 256.08 91.6445C255.521 91.3568 255.073 90.9844 254.734 90.5273C254.396 90.0534 254.142 89.5033 253.973 88.877C253.82 88.2337 253.744 87.5566 253.744 86.8457ZM255.902 87.0996C255.902 87.5397 255.936 87.929 256.004 88.2676C256.089 88.5892 256.224 88.8685 256.41 89.1055C256.613 89.3424 256.876 89.5286 257.197 89.6641C257.519 89.7826 257.917 89.8418 258.391 89.8418C259.017 89.8418 259.643 89.6725 260.27 89.334C260.896 88.9785 261.454 88.5384 261.945 88.0137C262.453 87.472 262.859 86.8796 263.164 86.2363C263.469 85.5931 263.621 84.9668 263.621 84.3574C263.621 84.0866 263.596 83.7904 263.545 83.4688C263.494 83.1471 263.41 82.8509 263.291 82.5801C263.173 82.3092 263.003 82.0807 262.783 81.8945C262.563 81.7083 262.284 81.6152 261.945 81.6152C261.641 81.6152 261.277 81.7168 260.854 81.9199C260.447 82.123 260.016 82.3854 259.559 82.707C259.118 83.0286 258.678 83.3926 258.238 83.7988C257.815 84.2051 257.426 84.6113 257.07 85.0176C256.715 85.4238 256.427 85.8132 256.207 86.1855C256.004 86.5579 255.902 86.8626 255.902 87.0996ZM267.404 77.6289C267.404 77.138 267.37 76.6641 267.303 76.207C267.235 75.7331 267.218 75.3184 267.252 74.9629C267.286 74.5905 267.413 74.2943 267.633 74.0742C267.87 73.8542 268.293 73.7441 268.902 73.7441C269.089 74.1335 269.266 74.7259 269.436 75.5215C269.622 76.3171 269.799 77.2311 269.969 78.2637C270.138 79.2962 270.299 80.4219 270.451 81.6406C270.604 82.8424 270.739 84.0527 270.857 85.2715C270.993 86.4902 271.103 87.6921 271.188 88.877C271.289 90.0449 271.365 91.1113 271.416 92.0762C270.857 92.4486 270.409 92.474 270.07 92.1523C269.732 91.8307 269.452 91.2891 269.232 90.5273C269.012 89.7487 268.843 88.8092 268.725 87.709C268.606 86.5918 268.488 85.4408 268.369 84.2559C268.268 83.054 268.141 81.8776 267.988 80.7266C267.836 79.5586 267.641 78.526 267.404 77.6289ZM283.654 88.7246C283.011 89.1647 282.452 89.5625 281.979 89.918C281.521 90.2565 281.073 90.5443 280.633 90.7812C280.193 91.0182 279.719 91.196 279.211 91.3145C278.72 91.4329 278.111 91.4922 277.383 91.4922C275.809 91.4922 274.641 91.0775 273.879 90.248C273.117 89.4017 272.736 88.1491 272.736 86.4902C272.736 85.847 272.821 85.1784 272.99 84.4844C273.16 83.7904 273.405 83.1048 273.727 82.4277C274.065 81.7337 274.463 81.082 274.92 80.4727C275.377 79.8464 275.893 79.2962 276.469 78.8223C277.044 78.3483 277.654 77.9759 278.297 77.7051C278.957 77.4173 279.651 77.2734 280.379 77.2734C281.598 77.3919 282.554 77.6966 283.248 78.1875C283.942 78.6615 284.467 79.2793 284.822 80.041C285.178 80.7858 285.423 81.6237 285.559 82.5547C285.694 83.4688 285.796 84.4167 285.863 85.3984C285.948 86.3802 286.049 87.362 286.168 88.3438C286.286 89.3255 286.532 90.2311 286.904 91.0605C286.684 91.6191 286.473 92.0085 286.27 92.2285C286.083 92.4655 285.872 92.5078 285.635 92.3555C285.398 92.2031 285.118 91.8307 284.797 91.2383C284.492 90.6458 284.111 89.8079 283.654 88.7246ZM274.895 86.541C274.895 87.5059 275.072 88.2168 275.428 88.6738C275.8 89.1139 276.452 89.334 277.383 89.334C278.077 89.334 278.737 89.2155 279.363 88.9785C280.007 88.7246 280.565 88.3861 281.039 87.9629C281.513 87.5228 281.894 86.998 282.182 86.3887C282.469 85.7793 282.613 85.1022 282.613 84.3574C282.613 84.0527 282.622 83.6296 282.639 83.0879C282.656 82.5293 282.622 81.9792 282.537 81.4375C282.452 80.8958 282.292 80.4303 282.055 80.041C281.818 79.6348 281.462 79.4316 280.988 79.4316C280.108 79.4316 279.296 79.6602 278.551 80.1172C277.806 80.5573 277.163 81.1243 276.621 81.8184C276.079 82.5124 275.656 83.2826 275.352 84.1289C275.047 84.9583 274.895 85.7624 274.895 86.541ZM288.504 81.3359C288.504 81.1836 288.512 81.0312 288.529 80.8789C288.546 80.7096 288.58 80.5658 288.631 80.4473C288.682 80.3118 288.758 80.2018 288.859 80.1172C288.978 80.0326 289.139 79.9902 289.342 79.9902C289.511 79.9902 289.697 80.1257 289.9 80.3965C290.12 80.6504 290.34 80.9805 290.561 81.3867C290.781 81.776 290.992 82.2077 291.195 82.6816C291.415 83.1556 291.602 83.5957 291.754 84.002C291.923 84.3913 292.059 84.7298 292.16 85.0176C292.262 85.3053 292.321 85.4577 292.338 85.4746C292.558 84.8822 292.803 84.2389 293.074 83.5449C293.345 82.8509 293.675 82.2077 294.064 81.6152C294.471 81.0059 294.945 80.498 295.486 80.0918C296.045 79.6855 296.722 79.4824 297.518 79.4824C297.924 79.4824 298.305 79.5501 298.66 79.6855C299.033 79.804 299.354 79.9902 299.625 80.2441C299.913 80.4811 300.141 80.7689 300.311 81.1074C300.48 81.446 300.564 81.8353 300.564 82.2754C300.564 82.6478 300.412 82.9102 300.107 83.0625C299.82 83.2148 299.49 83.291 299.117 83.291H298.863L297.771 82.1992C297.738 82.1992 297.712 82.1908 297.695 82.1738C297.661 82.1738 297.628 82.1738 297.594 82.1738C297.577 82.1569 297.551 82.1484 297.518 82.1484C296.925 82.1484 296.46 82.3177 296.121 82.6562C295.799 82.9779 295.554 83.3841 295.385 83.875C295.215 84.349 295.105 84.8568 295.055 85.3984C295.021 85.9232 295.004 86.4056 295.004 86.8457C295.004 87.1842 295.038 87.5312 295.105 87.8867C295.173 88.2253 295.249 88.5638 295.334 88.9023C295.419 89.224 295.495 89.5625 295.562 89.918C295.63 90.2565 295.664 90.612 295.664 90.9844C295.664 91.6953 295.283 92.0508 294.521 92.0508C294.098 92.0508 293.658 91.8307 293.201 91.3906C292.744 90.9336 292.287 90.3581 291.83 89.6641C291.39 88.9701 290.967 88.2083 290.561 87.3789C290.154 86.5326 289.799 85.7116 289.494 84.916C289.189 84.1204 288.944 83.401 288.758 82.7578C288.589 82.1146 288.504 81.6406 288.504 81.3359ZM312.625 79.2031C312.625 79.1523 312.633 79.11 312.65 79.0762C312.65 79.0423 312.659 79 312.676 78.9492C312.743 78.8646 312.845 78.7546 312.98 78.6191C313.116 78.4837 313.201 78.416 313.234 78.416H318.338C318.338 78.2298 318.312 77.9336 318.262 77.5273C318.211 77.1211 318.16 76.6725 318.109 76.1816C318.076 75.6908 318.067 75.1829 318.084 74.6582C318.101 74.1165 318.169 73.6341 318.287 73.2109C318.423 72.7708 318.626 72.4154 318.896 72.1445C319.184 71.8568 319.582 71.7129 320.09 71.7129C320.09 73.4225 320.208 74.7936 320.445 75.8262C320.682 76.8587 320.995 77.6543 321.385 78.2129C321.791 78.7715 322.248 79.1354 322.756 79.3047C323.264 79.474 323.78 79.5501 324.305 79.5332C324.846 79.4993 325.371 79.4147 325.879 79.2793C326.387 79.1439 326.835 79.0508 327.225 79C327.631 78.9492 327.952 78.9915 328.189 79.127C328.426 79.2454 328.545 79.5417 328.545 80.0156C328.545 80.3711 328.46 80.625 328.291 80.7773C328.139 80.9297 327.834 81.0482 327.377 81.1328C327.242 81.1497 327.013 81.1836 326.691 81.2344C326.387 81.2682 326.04 81.3021 325.65 81.3359C325.261 81.3698 324.846 81.4121 324.406 81.4629C323.966 81.4967 323.551 81.5306 323.162 81.5645C322.773 81.5983 322.417 81.6237 322.096 81.6406C321.774 81.6406 321.537 81.6406 321.385 81.6406C321.385 81.7253 321.376 81.8691 321.359 82.0723C321.342 82.2754 321.334 82.4108 321.334 82.4785C321.334 83.2233 321.452 83.9512 321.689 84.6621C321.926 85.3561 322.18 86.0501 322.451 86.7441C322.739 87.4382 323.001 88.1322 323.238 88.8262C323.475 89.5202 323.594 90.2396 323.594 90.9844C323.594 91.1198 323.577 91.2637 323.543 91.416C323.526 91.5514 323.475 91.6784 323.391 91.7969C323.323 91.8984 323.213 91.9746 323.061 92.0254C322.925 92.0931 322.73 92.0846 322.477 92C321.833 91.8307 321.351 91.4668 321.029 90.9082C320.725 90.3496 320.496 89.6895 320.344 88.9277C320.191 88.1491 320.09 87.3281 320.039 86.4648C319.988 85.6016 319.904 84.7975 319.785 84.0527C319.684 83.291 319.514 82.6478 319.277 82.123C319.04 81.5814 318.66 81.2513 318.135 81.1328L313.234 80.0156C313.167 80.0156 313.065 79.9479 312.93 79.8125C312.794 79.6602 312.71 79.5501 312.676 79.4824C312.659 79.4486 312.65 79.4062 312.65 79.3555C312.633 79.3216 312.625 79.2708 312.625 79.2031ZM329.51 86.8457C329.51 85.7962 329.755 84.8229 330.246 83.9258C330.737 83.0117 331.38 82.2331 332.176 81.5898C332.988 80.9297 333.894 80.4134 334.893 80.041C335.908 79.6686 336.932 79.4824 337.965 79.4824C338.54 79.4824 339.048 79.6686 339.488 80.041C339.945 80.4134 340.326 80.8704 340.631 81.4121C340.936 81.9368 341.164 82.4954 341.316 83.0879C341.486 83.6803 341.57 84.1966 341.57 84.6367C341.57 85.5846 341.342 86.5072 340.885 87.4043C340.428 88.2845 339.835 89.0716 339.107 89.7656C338.38 90.4427 337.559 90.9928 336.645 91.416C335.73 91.8392 334.816 92.0508 333.902 92.0508C333.09 92.0508 332.404 91.9154 331.846 91.6445C331.287 91.3568 330.839 90.9844 330.5 90.5273C330.161 90.0534 329.908 89.5033 329.738 88.877C329.586 88.2337 329.51 87.5566 329.51 86.8457ZM331.668 87.0996C331.668 87.5397 331.702 87.929 331.77 88.2676C331.854 88.5892 331.99 88.8685 332.176 89.1055C332.379 89.3424 332.641 89.5286 332.963 89.6641C333.285 89.7826 333.682 89.8418 334.156 89.8418C334.783 89.8418 335.409 89.6725 336.035 89.334C336.661 88.9785 337.22 88.5384 337.711 88.0137C338.219 87.472 338.625 86.8796 338.93 86.2363C339.234 85.5931 339.387 84.9668 339.387 84.3574C339.387 84.0866 339.361 83.7904 339.311 83.4688C339.26 83.1471 339.175 82.8509 339.057 82.5801C338.938 82.3092 338.769 82.0807 338.549 81.8945C338.329 81.7083 338.049 81.6152 337.711 81.6152C337.406 81.6152 337.042 81.7168 336.619 81.9199C336.213 82.123 335.781 82.3854 335.324 82.707C334.884 83.0286 334.444 83.3926 334.004 83.7988C333.581 84.2051 333.191 84.6113 332.836 85.0176C332.48 85.4238 332.193 85.8132 331.973 86.1855C331.77 86.5579 331.668 86.8626 331.668 87.0996ZM342.002 89.0039C342.002 88.0221 342.247 87.1504 342.738 86.3887C343.229 85.627 343.839 84.9668 344.566 84.4082C345.294 83.8327 346.081 83.3503 346.928 82.9609C347.774 82.5547 348.561 82.2246 349.289 81.9707C350.017 81.6999 350.626 81.4883 351.117 81.3359C351.608 81.1667 351.854 81.0312 351.854 80.9297C351.854 80.3372 351.82 79.7617 351.752 79.2031C351.701 78.6276 351.642 78.0521 351.574 77.4766C351.507 76.901 351.439 76.334 351.371 75.7754C351.32 75.1999 351.295 74.6328 351.295 74.0742V72.4238C351.989 72.1699 352.48 72.1953 352.768 72.5C353.072 72.8047 353.123 73.3294 352.92 74.0742C352.988 74.4466 353.081 75.0306 353.199 75.8262C353.318 76.6217 353.445 77.5189 353.58 78.5176C353.732 79.5163 353.885 80.5658 354.037 81.666C354.206 82.7663 354.359 83.8242 354.494 84.8398C354.646 85.8385 354.773 86.7357 354.875 87.5312C354.977 88.3099 355.053 88.8939 355.104 89.2832C355.12 89.3678 355.137 89.5371 355.154 89.791C355.171 90.028 355.18 90.2904 355.18 90.5781C355.197 90.849 355.205 91.1029 355.205 91.3398C355.222 91.5768 355.23 91.7461 355.23 91.8477C354.587 91.8477 354.147 91.8223 353.91 91.7715C353.69 91.7207 353.546 91.6191 353.479 91.4668C353.428 91.3145 353.402 91.0944 353.402 90.8066C353.402 90.5189 353.318 90.1211 353.148 89.6133C352.522 90.1042 351.93 90.5104 351.371 90.832C350.812 91.1536 350.254 91.416 349.695 91.6191C349.137 91.8053 348.57 91.9323 347.994 92C347.436 92.0846 346.835 92.127 346.191 92.127C345.65 92.127 345.125 92.0846 344.617 92C344.126 91.8984 343.686 91.7292 343.297 91.4922C342.908 91.2552 342.594 90.9336 342.357 90.5273C342.12 90.1211 342.002 89.6133 342.002 89.0039ZM344.211 88.4707C344.211 88.7415 344.27 88.9616 344.389 89.1309C344.507 89.3001 344.66 89.444 344.846 89.5625C345.032 89.681 345.227 89.7656 345.43 89.8164C345.65 89.8503 345.861 89.8672 346.064 89.8672C346.657 89.8672 347.292 89.7572 347.969 89.5371C348.663 89.3001 349.298 88.9785 349.873 88.5723C350.465 88.1491 350.948 87.6497 351.32 87.0742C351.71 86.4987 351.904 85.8724 351.904 85.1953C351.904 84.6706 351.811 84.3066 351.625 84.1035C351.439 83.9004 351.083 83.7988 350.559 83.7988C350.017 83.7988 349.382 83.9258 348.654 84.1797C347.943 84.4336 347.249 84.7721 346.572 85.1953C345.912 85.6185 345.354 86.1178 344.896 86.6934C344.439 87.252 344.211 87.8444 344.211 88.4707ZM356.729 86.8457C356.729 85.7962 356.974 84.8229 357.465 83.9258C357.956 83.0117 358.599 82.2331 359.395 81.5898C360.207 80.9297 361.113 80.4134 362.111 80.041C363.127 79.6686 364.151 79.4824 365.184 79.4824C365.759 79.4824 366.267 79.6686 366.707 80.041C367.164 80.4134 367.545 80.8704 367.85 81.4121C368.154 81.9368 368.383 82.4954 368.535 83.0879C368.704 83.6803 368.789 84.1966 368.789 84.6367C368.789 85.5846 368.561 86.5072 368.104 87.4043C367.646 88.2845 367.054 89.0716 366.326 89.7656C365.598 90.4427 364.777 90.9928 363.863 91.416C362.949 91.8392 362.035 92.0508 361.121 92.0508C360.309 92.0508 359.623 91.9154 359.064 91.6445C358.506 91.3568 358.057 90.9844 357.719 90.5273C357.38 90.0534 357.126 89.5033 356.957 88.877C356.805 88.2337 356.729 87.5566 356.729 86.8457ZM358.887 87.0996C358.887 87.5397 358.921 87.929 358.988 88.2676C359.073 88.5892 359.208 88.8685 359.395 89.1055C359.598 89.3424 359.86 89.5286 360.182 89.6641C360.503 89.7826 360.901 89.8418 361.375 89.8418C362.001 89.8418 362.628 89.6725 363.254 89.334C363.88 88.9785 364.439 88.5384 364.93 88.0137C365.438 87.472 365.844 86.8796 366.148 86.2363C366.453 85.5931 366.605 84.9668 366.605 84.3574C366.605 84.0866 366.58 83.7904 366.529 83.4688C366.479 83.1471 366.394 82.8509 366.275 82.5801C366.157 82.3092 365.988 82.0807 365.768 81.8945C365.548 81.7083 365.268 81.6152 364.93 81.6152C364.625 81.6152 364.261 81.7168 363.838 81.9199C363.432 82.123 363 82.3854 362.543 82.707C362.103 83.0286 361.663 83.3926 361.223 83.7988C360.799 84.2051 360.41 84.6113 360.055 85.0176C359.699 85.4238 359.411 85.8132 359.191 86.1855C358.988 86.5579 358.887 86.8626 358.887 87.0996ZM374.654 90.8574C374.925 90.6712 375.247 90.4342 375.619 90.1465C376.008 89.8418 376.398 89.5202 376.787 89.1816C377.176 88.8431 377.54 88.4876 377.879 88.1152C378.217 87.7428 378.48 87.3874 378.666 87.0488C378.869 86.6934 378.971 86.3633 378.971 86.0586C378.971 85.7539 378.818 85.5 378.514 85.2969C377.972 85.2969 377.38 85.3223 376.736 85.373C376.093 85.4069 375.45 85.4238 374.807 85.4238C374.163 85.4069 373.537 85.3477 372.928 85.2461C372.335 85.1445 371.802 84.9583 371.328 84.6875C370.854 84.4167 370.473 84.0358 370.186 83.5449C369.915 83.0371 369.779 82.3939 369.779 81.6152C369.779 80.7012 369.949 79.8802 370.287 79.1523C370.643 78.4076 371.108 77.7559 371.684 77.1973C372.259 76.6217 372.902 76.1224 373.613 75.6992C374.341 75.2591 375.069 74.8867 375.797 74.582C376.237 74.7005 376.643 74.9121 377.016 75.2168C377.388 75.5215 377.71 75.86 377.98 76.2324C377.862 76.6048 377.625 76.8926 377.27 77.0957C376.931 77.2988 376.533 77.4766 376.076 77.6289C375.636 77.7812 375.171 77.9421 374.68 78.1113C374.189 78.2806 373.74 78.5091 373.334 78.7969C372.945 79.0677 372.615 79.4316 372.344 79.8887C372.073 80.3288 371.938 80.9128 371.938 81.6406C371.938 82.1823 372.073 82.5801 372.344 82.834C372.615 83.0879 372.97 83.2656 373.41 83.3672C373.85 83.4518 374.35 83.4857 374.908 83.4688C375.467 83.4349 376.034 83.3926 376.609 83.3418C377.202 83.291 377.777 83.2656 378.336 83.2656C378.895 83.2487 379.394 83.3164 379.834 83.4688C380.274 83.6042 380.621 83.8327 380.875 84.1543C381.146 84.4759 381.281 84.9499 381.281 85.5762C381.281 85.847 381.188 86.194 381.002 86.6172C380.833 87.0404 380.596 87.4974 380.291 87.9883C380.003 88.4622 379.656 88.9362 379.25 89.4102C378.861 89.8841 378.446 90.3158 378.006 90.7051C377.583 91.0775 377.151 91.3906 376.711 91.6445C376.288 91.8815 375.89 92 375.518 92C375.162 92 374.925 91.873 374.807 91.6191C374.705 91.3652 374.654 91.1113 374.654 90.8574ZM64.5078 138.846C64.5078 137.796 64.7533 136.823 65.2441 135.926C65.735 135.012 66.3783 134.233 67.1738 133.59C67.9863 132.93 68.8919 132.413 69.8906 132.041C70.9062 131.669 71.9303 131.482 72.9629 131.482C73.5384 131.482 74.0462 131.669 74.4863 132.041C74.9434 132.413 75.3242 132.87 75.6289 133.412C75.9336 133.937 76.1621 134.495 76.3145 135.088C76.4837 135.68 76.5684 136.197 76.5684 136.637C76.5684 137.585 76.3398 138.507 75.8828 139.404C75.4258 140.285 74.8333 141.072 74.1055 141.766C73.3776 142.443 72.5566 142.993 71.6426 143.416C70.7285 143.839 69.8145 144.051 68.9004 144.051C68.0879 144.051 67.4023 143.915 66.8438 143.645C66.2852 143.357 65.8366 142.984 65.498 142.527C65.1595 142.053 64.9056 141.503 64.7363 140.877C64.584 140.234 64.5078 139.557 64.5078 138.846ZM66.666 139.1C66.666 139.54 66.6999 139.929 66.7676 140.268C66.8522 140.589 66.9876 140.868 67.1738 141.105C67.377 141.342 67.6393 141.529 67.9609 141.664C68.2826 141.783 68.6803 141.842 69.1543 141.842C69.7806 141.842 70.4069 141.673 71.0332 141.334C71.6595 140.979 72.2181 140.538 72.709 140.014C73.2168 139.472 73.623 138.88 73.9277 138.236C74.2324 137.593 74.3848 136.967 74.3848 136.357C74.3848 136.087 74.3594 135.79 74.3086 135.469C74.2578 135.147 74.1732 134.851 74.0547 134.58C73.9362 134.309 73.7669 134.081 73.5469 133.895C73.3268 133.708 73.0475 133.615 72.709 133.615C72.4043 133.615 72.0404 133.717 71.6172 133.92C71.2109 134.123 70.7793 134.385 70.3223 134.707C69.8822 135.029 69.4421 135.393 69.002 135.799C68.5788 136.205 68.1895 136.611 67.834 137.018C67.4785 137.424 67.1908 137.813 66.9707 138.186C66.7676 138.558 66.666 138.863 66.666 139.1ZM82.4336 142.857C82.7044 142.671 83.026 142.434 83.3984 142.146C83.7878 141.842 84.1771 141.52 84.5664 141.182C84.9557 140.843 85.3197 140.488 85.6582 140.115C85.9967 139.743 86.2591 139.387 86.4453 139.049C86.6484 138.693 86.75 138.363 86.75 138.059C86.75 137.754 86.5977 137.5 86.293 137.297C85.7513 137.297 85.1589 137.322 84.5156 137.373C83.8724 137.407 83.2292 137.424 82.5859 137.424C81.9427 137.407 81.3164 137.348 80.707 137.246C80.1146 137.145 79.5814 136.958 79.1074 136.688C78.6335 136.417 78.2526 136.036 77.9648 135.545C77.694 135.037 77.5586 134.394 77.5586 133.615C77.5586 132.701 77.7279 131.88 78.0664 131.152C78.4219 130.408 78.8874 129.756 79.4629 129.197C80.0384 128.622 80.6816 128.122 81.3926 127.699C82.1204 127.259 82.8483 126.887 83.5762 126.582C84.0163 126.701 84.4225 126.912 84.7949 127.217C85.1673 127.521 85.4889 127.86 85.7598 128.232C85.6413 128.605 85.4043 128.893 85.0488 129.096C84.7103 129.299 84.3125 129.477 83.8555 129.629C83.4154 129.781 82.9499 129.942 82.459 130.111C81.9681 130.281 81.5195 130.509 81.1133 130.797C80.724 131.068 80.3939 131.432 80.123 131.889C79.8522 132.329 79.7168 132.913 79.7168 133.641C79.7168 134.182 79.8522 134.58 80.123 134.834C80.3939 135.088 80.7493 135.266 81.1895 135.367C81.6296 135.452 82.1289 135.486 82.6875 135.469C83.2461 135.435 83.8132 135.393 84.3887 135.342C84.9811 135.291 85.5566 135.266 86.1152 135.266C86.6738 135.249 87.1732 135.316 87.6133 135.469C88.0534 135.604 88.4004 135.833 88.6543 136.154C88.9251 136.476 89.0605 136.95 89.0605 137.576C89.0605 137.847 88.9674 138.194 88.7812 138.617C88.612 139.04 88.375 139.497 88.0703 139.988C87.7826 140.462 87.4355 140.936 87.0293 141.41C86.64 141.884 86.2253 142.316 85.7852 142.705C85.362 143.077 84.9303 143.391 84.4902 143.645C84.0671 143.882 83.6693 144 83.2969 144C82.9414 144 82.7044 143.873 82.5859 143.619C82.4844 143.365 82.4336 143.111 82.4336 142.857ZM101.223 141.004C101.223 140.022 101.468 139.15 101.959 138.389C102.45 137.627 103.059 136.967 103.787 136.408C104.515 135.833 105.302 135.35 106.148 134.961C106.995 134.555 107.782 134.225 108.51 133.971C109.238 133.7 109.847 133.488 110.338 133.336C110.829 133.167 111.074 133.031 111.074 132.93C111.074 132.337 111.04 131.762 110.973 131.203C110.922 130.628 110.863 130.052 110.795 129.477C110.727 128.901 110.66 128.334 110.592 127.775C110.541 127.2 110.516 126.633 110.516 126.074V124.424C111.21 124.17 111.701 124.195 111.988 124.5C112.293 124.805 112.344 125.329 112.141 126.074C112.208 126.447 112.301 127.031 112.42 127.826C112.538 128.622 112.665 129.519 112.801 130.518C112.953 131.516 113.105 132.566 113.258 133.666C113.427 134.766 113.579 135.824 113.715 136.84C113.867 137.839 113.994 138.736 114.096 139.531C114.197 140.31 114.273 140.894 114.324 141.283C114.341 141.368 114.358 141.537 114.375 141.791C114.392 142.028 114.4 142.29 114.4 142.578C114.417 142.849 114.426 143.103 114.426 143.34C114.443 143.577 114.451 143.746 114.451 143.848C113.808 143.848 113.368 143.822 113.131 143.771C112.911 143.721 112.767 143.619 112.699 143.467C112.648 143.314 112.623 143.094 112.623 142.807C112.623 142.519 112.538 142.121 112.369 141.613C111.743 142.104 111.15 142.51 110.592 142.832C110.033 143.154 109.475 143.416 108.916 143.619C108.357 143.805 107.79 143.932 107.215 144C106.656 144.085 106.055 144.127 105.412 144.127C104.87 144.127 104.346 144.085 103.838 144C103.347 143.898 102.907 143.729 102.518 143.492C102.128 143.255 101.815 142.934 101.578 142.527C101.341 142.121 101.223 141.613 101.223 141.004ZM103.432 140.471C103.432 140.742 103.491 140.962 103.609 141.131C103.728 141.3 103.88 141.444 104.066 141.562C104.253 141.681 104.447 141.766 104.65 141.816C104.87 141.85 105.082 141.867 105.285 141.867C105.878 141.867 106.512 141.757 107.189 141.537C107.883 141.3 108.518 140.979 109.094 140.572C109.686 140.149 110.169 139.65 110.541 139.074C110.93 138.499 111.125 137.872 111.125 137.195C111.125 136.671 111.032 136.307 110.846 136.104C110.66 135.9 110.304 135.799 109.779 135.799C109.238 135.799 108.603 135.926 107.875 136.18C107.164 136.434 106.47 136.772 105.793 137.195C105.133 137.618 104.574 138.118 104.117 138.693C103.66 139.252 103.432 139.844 103.432 140.471ZM117.016 134.479C117.016 134.377 117.016 134.216 117.016 133.996C117.033 133.759 117.041 133.514 117.041 133.26C117.058 133.006 117.066 132.76 117.066 132.523C117.083 132.286 117.092 132.117 117.092 132.016C117.278 131.745 117.515 131.525 117.803 131.355C118.107 131.186 118.412 131.051 118.717 130.949C118.768 131.863 118.911 132.837 119.148 133.869C119.385 134.902 119.639 135.943 119.91 136.992C120.181 138.025 120.418 139.049 120.621 140.064C120.841 141.08 120.951 142.028 120.951 142.908C120.951 143.67 120.562 144.051 119.783 144.051C119.309 144.051 118.911 143.856 118.59 143.467C118.268 143.077 118.006 142.587 117.803 141.994C117.617 141.385 117.464 140.716 117.346 139.988C117.227 139.243 117.143 138.516 117.092 137.805C117.058 137.094 117.033 136.442 117.016 135.85C117.016 135.257 117.016 134.8 117.016 134.479ZM117.371 124.957C117.693 125.092 117.964 125.312 118.184 125.617C118.404 125.922 118.497 126.201 118.463 126.455C118.446 126.692 118.26 126.861 117.904 126.963C117.549 127.048 116.956 126.946 116.127 126.658C116.127 126.201 116.212 125.803 116.381 125.465C116.567 125.126 116.897 124.957 117.371 124.957ZM132.859 140.725C132.216 141.165 131.658 141.562 131.184 141.918C130.727 142.257 130.278 142.544 129.838 142.781C129.398 143.018 128.924 143.196 128.416 143.314C127.925 143.433 127.316 143.492 126.588 143.492C125.014 143.492 123.846 143.077 123.084 142.248C122.322 141.402 121.941 140.149 121.941 138.49C121.941 137.847 122.026 137.178 122.195 136.484C122.365 135.79 122.61 135.105 122.932 134.428C123.27 133.734 123.668 133.082 124.125 132.473C124.582 131.846 125.098 131.296 125.674 130.822C126.249 130.348 126.859 129.976 127.502 129.705C128.162 129.417 128.856 129.273 129.584 129.273C130.803 129.392 131.759 129.697 132.453 130.188C133.147 130.661 133.672 131.279 134.027 132.041C134.383 132.786 134.628 133.624 134.764 134.555C134.899 135.469 135.001 136.417 135.068 137.398C135.153 138.38 135.255 139.362 135.373 140.344C135.492 141.326 135.737 142.231 136.109 143.061C135.889 143.619 135.678 144.008 135.475 144.229C135.288 144.465 135.077 144.508 134.84 144.355C134.603 144.203 134.324 143.831 134.002 143.238C133.697 142.646 133.316 141.808 132.859 140.725ZM124.1 138.541C124.1 139.506 124.277 140.217 124.633 140.674C125.005 141.114 125.657 141.334 126.588 141.334C127.282 141.334 127.942 141.215 128.568 140.979C129.212 140.725 129.77 140.386 130.244 139.963C130.718 139.523 131.099 138.998 131.387 138.389C131.674 137.779 131.818 137.102 131.818 136.357C131.818 136.053 131.827 135.63 131.844 135.088C131.861 134.529 131.827 133.979 131.742 133.438C131.658 132.896 131.497 132.43 131.26 132.041C131.023 131.635 130.667 131.432 130.193 131.432C129.313 131.432 128.501 131.66 127.756 132.117C127.011 132.557 126.368 133.124 125.826 133.818C125.285 134.512 124.861 135.283 124.557 136.129C124.252 136.958 124.1 137.762 124.1 138.541ZM142.584 142.857C142.855 142.671 143.176 142.434 143.549 142.146C143.938 141.842 144.327 141.52 144.717 141.182C145.106 140.843 145.47 140.488 145.809 140.115C146.147 139.743 146.41 139.387 146.596 139.049C146.799 138.693 146.9 138.363 146.9 138.059C146.9 137.754 146.748 137.5 146.443 137.297C145.902 137.297 145.309 137.322 144.666 137.373C144.023 137.407 143.38 137.424 142.736 137.424C142.093 137.407 141.467 137.348 140.857 137.246C140.265 137.145 139.732 136.958 139.258 136.688C138.784 136.417 138.403 136.036 138.115 135.545C137.844 135.037 137.709 134.394 137.709 133.615C137.709 132.701 137.878 131.88 138.217 131.152C138.572 130.408 139.038 129.756 139.613 129.197C140.189 128.622 140.832 128.122 141.543 127.699C142.271 127.259 142.999 126.887 143.727 126.582C144.167 126.701 144.573 126.912 144.945 127.217C145.318 127.521 145.639 127.86 145.91 128.232C145.792 128.605 145.555 128.893 145.199 129.096C144.861 129.299 144.463 129.477 144.006 129.629C143.566 129.781 143.1 129.942 142.609 130.111C142.118 130.281 141.67 130.509 141.264 130.797C140.874 131.068 140.544 131.432 140.273 131.889C140.003 132.329 139.867 132.913 139.867 133.641C139.867 134.182 140.003 134.58 140.273 134.834C140.544 135.088 140.9 135.266 141.34 135.367C141.78 135.452 142.279 135.486 142.838 135.469C143.396 135.435 143.964 135.393 144.539 135.342C145.132 135.291 145.707 135.266 146.266 135.266C146.824 135.249 147.324 135.316 147.764 135.469C148.204 135.604 148.551 135.833 148.805 136.154C149.076 136.476 149.211 136.95 149.211 137.576C149.211 137.847 149.118 138.194 148.932 138.617C148.762 139.04 148.525 139.497 148.221 139.988C147.933 140.462 147.586 140.936 147.18 141.41C146.79 141.884 146.376 142.316 145.936 142.705C145.512 143.077 145.081 143.391 144.641 143.645C144.217 143.882 143.82 144 143.447 144C143.092 144 142.855 143.873 142.736 143.619C142.635 143.365 142.584 143.111 142.584 142.857ZM153.248 141.943C154.01 141.943 154.391 142.341 154.391 143.137C154.204 143.628 153.967 143.949 153.68 144.102C153.392 144.271 153.121 144.33 152.867 144.279C152.63 144.245 152.41 144.127 152.207 143.924C152.021 143.721 151.919 143.492 151.902 143.238C151.885 142.984 151.979 142.739 152.182 142.502C152.385 142.248 152.74 142.062 153.248 141.943Z" fill="#C79BF1"/>
</svg>
