<svg width="477" height="137" viewBox="0 0 477 137" fill="none" xmlns="http://www.w3.org/2000/svg">
<path d="M0.302978 64.5167C-0.334052 61.0743 0.033465 57.9198 1.40553 55.0592C2.77759 52.2049 4.83569 50.0304 7.57982 48.5419C10.324 47.0596 13.4478 46.7411 16.9638 47.5864C15.1629 48.1438 13.8337 49.2035 12.9701 50.7715C12.1187 52.3396 11.6531 54.067 11.5735 55.9413C11.4878 57.8218 11.6041 59.5858 11.9165 61.2335C12.9456 65.7785 15.0833 69.6313 18.3358 72.7981C21.5822 75.971 25.4534 78.3599 29.9494 79.9769C34.4576 81.5818 39.0944 82.3658 43.866 82.329C48.6499 82.28 53.0417 81.3612 57.0477 79.5604C60.4104 77.9923 62.9769 75.922 64.741 73.3371C66.5051 70.74 67.4607 67.9591 67.6077 64.9822C67.7669 62.0115 67.1054 59.1387 65.6231 56.3578C64.1346 53.5647 61.856 51.2003 58.7873 49.2525C54.9651 46.8207 50.7386 45.1547 46.1201 44.2542C41.4956 43.3599 36.8158 42.6555 32.081 42.1471C27.34 41.6265 22.8195 40.818 18.5073 39.7215C15.5978 38.9375 12.9088 37.8594 10.4465 36.4874C7.97797 35.1153 5.9995 33.2961 4.51718 31.0236C3.02873 28.7573 2.28757 25.9764 2.28757 22.6932C2.20182 19.7225 2.80822 17.1988 4.10066 15.1224C5.40534 13.052 7.1143 11.3002 9.2214 9.87911C12.4372 7.61275 16.486 5.97117 21.374 4.95437C26.2742 3.9437 31.4256 3.4353 36.8342 3.4353C43.3331 3.4353 49.6361 4.13971 55.7491 5.5424C61.856 6.95122 66.7501 8.98482 70.4253 11.6432L66.0886 21.0516C62.0827 17.6092 57.6724 14.4976 52.858 11.7167C48.0374 8.92356 42.9656 7.06147 37.6427 6.13043C35.6949 5.73841 33.3857 5.5424 30.7089 5.5424C28.0444 5.5424 25.3677 5.79966 22.6725 6.30194C19.9774 6.81034 17.5273 7.6495 15.3222 8.82556C12.5107 10.314 10.618 12.2557 9.63792 14.6568C8.65787 17.0457 8.65787 19.3733 9.63792 21.6397C10.618 23.9121 12.6761 25.7497 15.8122 27.1524C18.783 28.4142 22.2193 29.2779 26.1272 29.7495C30.0474 30.2089 34.1758 30.6561 38.5248 31.0971C42.8676 31.5259 47.1553 32.3222 51.3879 33.4982C55.6143 34.6743 59.4978 36.6344 63.026 39.3785C66.4684 42.043 69.09 45.3507 70.8908 49.3015C72.7039 53.2584 73.1756 57.6992 72.3119 62.6301C71.6075 66.8627 70.0394 70.446 67.6077 73.3861C65.1698 76.3263 62.1929 78.6967 58.6647 80.4915C55.1488 82.2923 51.4185 83.6031 47.4677 84.4361C43.5108 85.2569 39.6518 85.6612 35.8787 85.6612C32.3627 85.6612 28.6876 85.2937 24.8531 84.5586C21.0126 83.8114 17.368 82.5924 13.9256 80.908C10.4771 79.2296 7.51857 77.0368 5.0562 74.3417C2.58771 71.6343 1.00126 68.3573 0.302978 64.5167Z" fill="#C2B8E5"/>
<path d="M132.995 40.9929L149.867 70.857C150.684 72.2354 151.679 73.9328 152.853 75.9365C154.04 77.9274 155.253 79.829 156.478 81.6285C157.703 83.4153 158.679 84.7617 159.413 85.6615H148.157C146.281 85.6615 144.877 85.2786 143.945 84.5128C143.007 83.7343 142.088 82.5666 141.188 81.0159L119.033 42.0905C118.127 40.4569 117.252 39.538 116.404 39.3338C115.549 39.1296 114.266 39.0275 112.549 39.0275H108.032C107.042 42.7031 106.551 46.3787 106.551 50.0543V72.2099C106.551 75.8025 106.755 78.942 107.164 81.6285C107.572 84.3214 107.776 85.6615 107.776 85.6615H92.8442C92.8442 85.6615 93.0484 84.3214 93.4568 81.6285C93.8652 78.942 94.0694 75.8025 94.0694 72.2099V13.4516C94.0694 9.86536 93.8652 6.7258 93.4568 4.03293C93.0484 1.34644 92.8442 0 92.8442 0H107.776C107.776 0 107.572 1.34644 107.164 4.03293C106.755 6.7258 106.551 9.86536 106.551 13.4516V36.5771C107.604 32.021 109.212 27.5605 111.375 23.2021C113.551 18.831 116.251 14.8938 119.467 11.3841C122.683 7.86166 126.365 5.09221 130.519 3.06298C134.686 1.02099 139.261 0 144.251 0C149.561 0 154.417 0.982707 158.826 2.93536L153.798 15.417C152.164 13.7834 150.058 12.6603 147.493 12.0477C144.921 11.4351 142.414 11.2054 139.963 11.3586C134.909 11.6138 130.251 12.9539 126.001 15.366C121.764 17.7653 118.127 20.8793 115.102 24.7081C112.09 28.5368 109.895 32.7867 108.517 37.445H126.384C128.254 37.445 129.6 37.6364 130.417 38.0065C131.234 38.3639 132.089 39.3594 132.995 40.9929Z" fill="#C2B8E5"/>
<path d="M214.85 37.9762V72.7867C214.85 76.2371 215.022 79.2523 215.365 81.8325C215.721 84.4188 215.905 85.7058 215.905 85.7058H201.564C201.564 85.7058 201.76 84.4188 202.152 81.8325C202.544 79.2523 202.74 76.2371 202.74 72.7867V46.4336L182.271 18.242C181.339 16.906 180.126 15.239 178.643 13.2411C177.153 11.2493 175.658 9.33103 174.156 7.48019C172.667 5.63547 171.417 4.28718 170.406 3.4353H186.512L212.129 38.9322L239.291 3.4353H247.038C245.469 4.28718 243.63 5.53742 241.522 7.18601C239.414 8.84074 237.379 10.5445 235.418 12.3095C233.457 14.0623 231.888 15.6864 230.711 17.1879L214.85 37.9762Z" fill="#C2B8E5"/>
<path d="M272.526 4.47876L321.636 81.4609V25.595C321.636 22.1079 321.23 18.7419 320.425 15.497C319.614 12.252 318.784 9.60646 317.93 7.55417C317.071 5.50793 316.647 4.47876 316.647 4.47876H324.323C324.323 4.47876 324.13 5.75615 323.742 8.30486C323.355 10.8596 323.161 13.8382 323.161 17.2405V84.0036L324.323 85.7471H310.157L261.023 8.76496V64.6067C261.023 68.0938 261.447 71.4477 262.307 74.6563C263.16 77.8709 263.99 80.5286 264.801 82.6233C265.606 84.7058 266.012 85.7471 266.012 85.7471H254.591C254.591 85.7471 257.308 84.8306 257.696 82.2758C258.083 79.7271 257.696 76.37 257.696 72.9616V7.76165L254.591 4.47876H272.526Z" fill="#C2B8E5"/>
<path d="M335.637 68.6001C334.963 64.9276 335.352 61.5622 336.804 58.5104C338.256 55.4652 340.434 53.1454 343.337 51.5574C346.241 49.976 349.546 49.6362 353.267 50.538C351.361 51.1327 349.955 52.2632 349.041 53.9361C348.14 55.609 347.647 57.4518 347.563 59.4514C347.472 61.4576 347.595 63.3396 347.926 65.0975C349.015 69.9463 351.277 74.0567 354.718 77.4352C358.154 80.8202 362.25 83.3687 367.007 85.0939C371.777 86.806 376.684 87.6425 381.733 87.6033C386.794 87.551 391.442 86.5708 395.68 84.6495C399.239 82.9766 401.954 80.7679 403.821 78.0102C405.687 75.2395 406.699 72.2727 406.854 69.0968C407.023 65.9274 406.323 62.8626 404.754 59.8958C403.179 56.9159 400.768 54.3935 397.521 52.3155C393.477 49.7211 389.005 47.9437 384.118 46.9831C379.224 46.029 374.273 45.2775 369.263 44.7351C364.246 44.1797 359.463 43.3171 354.9 42.1473C351.821 41.3109 348.976 40.1608 346.371 38.697C343.759 37.2332 341.665 35.2924 340.097 32.868C338.522 30.4501 337.737 27.4833 337.737 23.9806C337.647 20.8113 338.288 18.119 339.656 15.9037C341.036 13.6949 342.845 11.826 345.074 10.3099C348.477 7.89202 352.761 6.1407 357.933 5.05593C363.118 3.97769 368.569 3.4353 374.292 3.4353C381.169 3.4353 387.838 4.1868 394.306 5.68327C400.768 7.18627 405.947 9.35581 409.835 12.1919L405.247 22.2293C401.008 18.5568 396.341 15.2371 391.247 12.2703C386.146 9.29047 380.78 7.30389 375.148 6.31061C373.086 5.89238 370.643 5.68327 367.811 5.68327C364.991 5.68327 362.159 5.95773 359.307 6.49358C356.455 7.03597 353.863 7.93123 351.53 9.18591C348.555 10.7739 346.552 12.8454 345.515 15.407C344.478 17.9556 344.478 20.4388 345.515 22.8567C346.552 25.2811 348.73 27.2415 352.048 28.738C355.192 30.0841 358.828 31.0055 362.963 31.5087C367.111 31.9988 371.479 32.4759 376.081 32.9464C380.676 33.4038 385.213 34.2533 389.692 35.508C394.164 36.7627 398.273 38.8538 402.006 41.7814C405.649 44.624 408.423 48.1528 410.328 52.3677C412.247 56.5892 412.746 61.3269 411.832 66.5874C411.086 71.103 409.427 74.9258 406.854 78.0625C404.275 81.1992 401.125 83.7281 397.391 85.6428C393.671 87.5641 389.724 88.9625 385.544 89.8512C381.357 90.7269 377.273 91.1582 373.281 91.1582C369.561 91.1582 365.672 90.7661 361.615 89.9819C357.551 89.1847 353.694 87.8843 350.052 86.0872C346.403 84.2967 343.272 81.9572 340.667 79.0819C338.055 76.1935 336.376 72.6974 335.637 68.6001Z" fill="#C2B8E5"/>
<path d="M326.405 118.723H325.034V107.552H327.005L332.033 117.38V107.552H333.348V118.723H331.405L326.405 108.924V118.723Z" fill="#C2B8E5"/>
<path d="M335.381 118.723H334.009L338.123 107.552H339.637L343.751 118.723H342.408L341.409 115.98H336.352L335.381 118.723ZM338.894 108.924L336.809 114.78H340.951L338.894 108.924Z" fill="#C2B8E5"/>
<path d="M348.558 118.723H347.215V108.781H343.444V107.552H352.357V108.781H348.558V118.723Z" fill="#C2B8E5"/>
<path d="M357.046 118.866C355.632 118.866 354.589 118.516 353.903 117.808C353.232 117.087 352.903 116.109 352.903 114.866V107.552H354.246V114.866C354.246 115.723 354.46 116.409 354.903 116.923C355.36 117.423 356.074 117.666 357.046 117.666C358.017 117.666 358.717 117.423 359.16 116.923C359.617 116.409 359.845 115.723 359.845 114.866V107.552H361.188V114.866C361.188 116.109 360.845 117.087 360.16 117.808C359.488 118.516 358.453 118.866 357.046 118.866Z" fill="#C2B8E5"/>
<path d="M368.385 113.752L370.528 118.723H369.042L367.071 114.009H364.043V118.723H362.671V107.552H366.842C367.907 107.552 368.764 107.824 369.414 108.352C370.056 108.888 370.385 109.688 370.385 110.752C370.385 111.495 370.199 112.138 369.842 112.666C369.499 113.18 369.014 113.545 368.385 113.752ZM364.043 112.809H366.671C367.428 112.809 368.014 112.638 368.414 112.295C368.828 111.952 369.042 111.452 369.042 110.781C369.042 110.152 368.828 109.666 368.414 109.324C367.992 108.967 367.414 108.781 366.671 108.781H364.043V112.809Z" fill="#C2B8E5"/>
<path d="M372.036 118.723H370.665L374.779 107.552H376.293L380.407 118.723H379.064L378.064 115.98H373.008L372.036 118.723ZM375.55 108.924L373.465 114.78H377.607L375.55 108.924Z" fill="#C2B8E5"/>
<path d="M387.415 118.723H381.044V107.552H382.415V117.523H387.415V118.723Z" fill="#C2B8E5"/>
<path d="M389.422 118.723H388.051V107.552H390.479L393.479 117.066L396.478 107.552H398.907V118.723H397.564V108.381L394.136 118.723H392.822L389.422 108.438V118.723Z" fill="#C2B8E5"/>
<path d="M407.711 118.723H400.483V107.552H407.711V108.781H401.854V112.523H407.025V113.723H401.854V117.523H407.711V118.723Z" fill="#C2B8E5"/>
<path d="M410.146 118.723H408.775V107.552H410.746L415.774 117.38V107.552H417.088V118.723H415.146L410.146 108.924V118.723Z" fill="#C2B8E5"/>
<path d="M422.864 118.723H421.521V108.781H417.75V107.552H426.663V108.781H422.864V118.723Z" fill="#C2B8E5"/>
<path d="M434.522 118.723H427.294V107.552H434.522V108.781H428.666V112.523H433.837V113.723H428.666V117.523H434.522V118.723Z" fill="#C2B8E5"/>
<path d="M443.652 118.723H442.138L438.024 107.552H439.395L442.909 117.351L446.423 107.552H447.766L443.652 118.723Z" fill="#C2B8E5"/>
<path d="M453.172 118.866C452.294 118.866 451.53 118.716 450.887 118.409C450.237 118.109 449.694 117.687 449.258 117.152C448.837 116.623 448.523 116.009 448.316 115.323C448.101 114.623 448.001 113.888 448.001 113.124C448.001 112.367 448.101 111.638 448.316 110.952C448.523 110.267 448.837 109.66 449.258 109.124C449.694 108.596 450.237 108.174 450.887 107.867C451.53 107.567 452.294 107.41 453.172 107.41C454.044 107.41 454.808 107.567 455.458 107.867C456.122 108.174 456.665 108.596 457.086 109.124C457.522 109.66 457.843 110.267 458.058 110.952C458.265 111.638 458.372 112.367 458.372 113.124C458.372 113.888 458.265 114.623 458.058 115.323C457.843 116.009 457.522 116.623 457.086 117.152C456.665 117.687 456.122 118.109 455.458 118.409C454.808 118.716 454.044 118.866 453.172 118.866ZM453.172 117.666C454.008 117.666 454.715 117.48 455.286 117.095C455.858 116.695 456.286 116.152 456.572 115.466C456.872 114.781 457.029 114.002 457.029 113.124C457.029 112.267 456.872 111.509 456.572 110.838C456.286 110.152 455.858 109.624 455.286 109.238C454.715 108.838 454.008 108.638 453.172 108.638C452.351 108.638 451.658 108.838 451.087 109.238C450.515 109.624 450.073 110.152 449.773 110.838C449.487 111.509 449.344 112.267 449.344 113.124C449.344 114.002 449.487 114.781 449.773 115.466C450.073 116.152 450.515 116.695 451.087 117.095C451.658 117.48 452.351 117.666 453.172 117.666Z" fill="#C2B8E5"/>
<path d="M464.291 118.866C463.412 118.866 462.648 118.716 462.005 118.409C461.355 118.109 460.813 117.687 460.377 117.152C459.955 116.623 459.641 116.009 459.434 115.323C459.241 114.623 459.148 113.888 459.148 113.124C459.148 112.367 459.241 111.652 459.434 110.981C459.641 110.295 459.955 109.688 460.377 109.153C460.813 108.603 461.355 108.174 462.005 107.867C462.648 107.567 463.412 107.41 464.291 107.41C465.105 107.41 465.833 107.553 466.462 107.838C467.09 108.11 467.59 108.488 467.976 108.981C468.376 109.46 468.633 110.01 468.747 110.638H467.29C467.155 110.031 466.812 109.545 466.262 109.181C465.726 108.803 465.062 108.61 464.262 108.61C463.419 108.61 462.72 108.81 462.148 109.21C461.591 109.595 461.177 110.124 460.891 110.81C460.62 111.495 460.491 112.267 460.491 113.124C460.491 114.002 460.62 114.781 460.891 115.466C461.177 116.152 461.591 116.695 462.148 117.095C462.72 117.48 463.419 117.666 464.262 117.666C465.062 117.666 465.726 117.48 466.262 117.095C466.812 116.695 467.155 116.116 467.29 115.352H468.747C468.576 116.438 468.098 117.295 467.319 117.923C466.533 118.552 465.526 118.866 464.291 118.866Z" fill="#C2B8E5"/>
<path d="M472.371 106.609H470.914L473.285 104.124H473.485L475.856 106.609H474.428L473.399 105.352L472.371 106.609ZM476.999 118.723H469.771V107.552H476.999V108.781H471.142V112.523H476.313V113.723H471.142V117.523H476.999V118.723Z" fill="#C2B8E5"/>
<path d="M333.195 136.664H325.967V125.494H333.195V126.722H327.338V130.465H332.509V131.665H327.338V135.464H333.195V136.664Z" fill="#C2B8E5"/>
<path d="M337.319 136.664H334.262V125.494H337.348C339.212 125.494 340.633 125.994 341.604 126.98C342.59 127.951 343.09 129.336 343.09 131.122C343.09 132.893 342.59 134.265 341.604 135.236C340.612 136.193 339.183 136.664 337.319 136.664ZM335.633 126.722V135.464H337.319C337.905 135.464 338.462 135.407 338.976 135.293C339.505 135.164 339.976 134.936 340.376 134.607C340.79 134.286 341.126 133.85 341.376 133.293C341.619 132.722 341.747 132.001 341.747 131.122C341.747 130.036 341.554 129.179 341.176 128.551C340.79 127.908 340.269 127.437 339.605 127.151C338.955 126.865 338.19 126.722 337.319 126.722H335.633Z" fill="#C2B8E5"/>
<path d="M345.625 136.664H344.253V125.494H345.625V136.664Z" fill="#C2B8E5"/>
<path d="M354.721 136.664H346.893V135.464L350.464 132.522C351.185 131.915 351.757 131.315 352.178 130.722C352.614 130.136 352.835 129.465 352.835 128.722C352.835 128.058 352.664 127.537 352.321 127.151C351.978 126.772 351.45 126.58 350.75 126.58C350.021 126.58 349.45 126.801 349.036 127.237C348.636 127.679 348.407 128.344 348.35 129.236H347.007C347.022 128.458 347.186 127.779 347.493 127.208C347.814 126.637 348.243 126.194 348.779 125.865C349.329 125.544 349.986 125.38 350.75 125.38C351.435 125.38 352.021 125.515 352.521 125.78C353.035 126.051 353.435 126.43 353.721 126.922C354.021 127.401 354.178 127.965 354.178 128.608C354.178 129.258 354.042 129.865 353.778 130.436C353.528 130.993 353.185 131.508 352.75 131.979C352.307 132.457 351.821 132.922 351.293 133.379L348.779 135.464H354.721V136.664Z" fill="#C2B8E5"/>
<path d="M359.653 136.807C358.467 136.807 357.524 136.336 356.824 135.379C356.139 134.429 355.796 132.993 355.796 131.065C355.796 129.143 356.124 127.715 356.796 126.779C357.481 125.829 358.41 125.351 359.596 125.351C360.795 125.351 361.738 125.829 362.424 126.779C363.109 127.736 363.452 129.179 363.452 131.122C363.452 133.029 363.109 134.457 362.424 135.407C361.752 136.343 360.831 136.807 359.653 136.807ZM359.624 135.578C360.381 135.578 360.981 135.221 361.424 134.493C361.881 133.772 362.11 132.636 362.11 131.093C362.11 129.551 361.881 128.422 361.424 127.694C360.967 126.951 360.345 126.579 359.567 126.579C358.803 126.579 358.203 126.951 357.767 127.694C357.346 128.422 357.139 129.543 357.139 131.065C357.139 132.607 357.353 133.75 357.796 134.493C358.253 135.221 358.86 135.578 359.624 135.578Z" fill="#C2B8E5"/>
<path d="M372.392 136.664H364.564V135.464L368.135 132.522C368.856 131.915 369.428 131.315 369.849 130.722C370.285 130.136 370.506 129.465 370.506 128.722C370.506 128.058 370.335 127.537 369.992 127.151C369.649 126.772 369.121 126.58 368.421 126.58C367.692 126.58 367.121 126.801 366.707 127.237C366.307 127.679 366.078 128.344 366.021 129.236H364.678C364.693 128.458 364.857 127.779 365.164 127.208C365.485 126.637 365.914 126.194 366.449 125.865C366.999 125.544 367.657 125.38 368.421 125.38C369.106 125.38 369.692 125.515 370.192 125.78C370.706 126.051 371.106 126.43 371.392 126.922C371.692 127.401 371.849 127.965 371.849 128.608C371.849 129.258 371.713 129.865 371.449 130.436C371.199 130.993 370.856 131.508 370.421 131.979C369.978 132.457 369.492 132.922 368.964 133.379L366.449 135.464H372.392V136.664Z" fill="#C2B8E5"/>
<path d="M377.209 136.807C376.523 136.807 375.909 136.664 375.38 136.379C374.845 136.093 374.409 135.707 374.066 135.207C373.738 134.715 373.538 134.136 373.466 133.465H374.838C374.93 134.15 375.209 134.679 375.666 135.036C376.123 135.4 376.666 135.579 377.294 135.579C377.823 135.579 378.266 135.464 378.609 135.236C378.966 134.993 379.244 134.657 379.437 134.236C379.623 133.822 379.723 133.35 379.723 132.836C379.723 132.058 379.501 131.436 379.066 130.979C378.623 130.522 378.023 130.294 377.266 130.294C376.787 130.294 376.352 130.422 375.952 130.665C375.566 130.915 375.273 131.251 375.066 131.665H373.581L374.695 125.494H380.551V126.722H375.723L375.123 130.122C375.466 129.801 375.837 129.551 376.237 129.379C376.652 129.194 377.095 129.094 377.552 129.094C378.237 129.094 378.844 129.258 379.38 129.579C379.909 129.886 380.33 130.315 380.637 130.865C380.937 131.422 381.094 132.065 381.094 132.808C381.094 133.55 380.923 134.229 380.58 134.836C380.251 135.45 379.794 135.936 379.209 136.293C378.637 136.636 377.966 136.807 377.209 136.807Z" fill="#C2B8E5"/>
</svg>
