<svg width="141" height="32" viewBox="0 0 141 32" fill="none" xmlns="http://www.w3.org/2000/svg">
<path d="M0.586337 22.823C0.369902 21.6541 0.494768 20.5829 0.960936 19.6115C1.4271 18.6422 2.12636 17.9038 3.05869 17.3983C3.99103 16.895 5.05239 16.7868 6.24695 17.0739C5.6351 17.2631 5.1835 17.623 4.89007 18.1555C4.60079 18.688 4.44263 19.2745 4.41557 19.911C4.38644 20.5496 4.42598 21.1486 4.53212 21.7082C4.88174 23.2515 5.60805 24.5599 6.71312 25.6352C7.8161 26.7127 9.13136 27.5239 10.6589 28.073C12.1906 28.618 13.766 28.8842 15.3872 28.8718C17.0125 28.8551 18.5047 28.5431 19.8657 27.9316C21.0082 27.3991 21.8802 26.6961 22.4796 25.8183C23.0789 24.9363 23.4036 23.992 23.4535 22.9811C23.5077 21.9723 23.2829 20.9968 22.7793 20.0525C22.2736 19.104 21.4994 18.3011 20.4567 17.6396C19.1581 16.8139 17.7222 16.2481 16.153 15.9423C14.5818 15.6386 12.9918 15.3994 11.3831 15.2268C9.77234 15.05 8.23649 14.7754 6.77139 14.4031C5.78286 14.1369 4.86926 13.7708 4.03265 13.3049C3.19396 12.8389 2.52177 12.2212 2.01814 11.4495C1.51243 10.6799 1.26062 9.73554 1.26062 8.62065C1.23148 7.61184 1.43751 6.75487 1.87662 6.04974C2.3199 5.34669 2.90053 4.7518 3.61643 4.26924C4.70901 3.49963 6.08462 2.94218 7.74535 2.5969C9.41023 2.2537 11.1604 2.08105 12.9981 2.08105C15.2061 2.08105 17.3476 2.32026 19.4245 2.79658C21.4994 3.27499 23.1622 3.96556 24.4109 4.86829L22.9374 8.0632C21.5764 6.89423 20.078 5.83758 18.4422 4.89325C16.8044 3.94476 15.0812 3.31243 13.2728 2.99626C12.611 2.86314 11.8264 2.79658 10.917 2.79658C10.0117 2.79658 9.10223 2.88394 8.18654 3.05451C7.27085 3.22715 6.43841 3.51211 5.68921 3.91148C4.73398 4.41692 4.09092 5.07629 3.75794 5.89166C3.42497 6.70287 3.42497 7.49328 3.75794 8.26288C4.09092 9.03457 4.79017 9.65858 5.8557 10.1349C6.86504 10.5634 8.03254 10.8567 9.36028 11.0168C10.6922 11.1728 12.0949 11.3247 13.5724 11.4744C15.0479 11.62 16.5047 11.8904 17.9428 12.2898C19.3787 12.6892 20.6982 13.3548 21.8969 14.2866C23.0665 15.1914 23.9572 16.3147 24.569 17.6563C25.185 19 25.3453 20.508 25.0518 22.1824C24.8125 23.6197 24.2797 24.8365 23.4535 25.8349C22.6253 26.8333 21.6138 27.6383 20.4151 28.2477C19.2206 28.8593 17.9532 29.3044 16.6109 29.5873C15.2665 29.866 13.9554 30.0033 12.6734 30.0033C11.4789 30.0033 10.2302 29.8785 8.92741 29.6289C7.62256 29.3751 6.3843 28.9612 5.21472 28.3892C4.04306 27.8193 3.03788 27.0746 2.20128 26.1594C1.36259 25.24 0.823583 24.1272 0.586337 22.823Z" fill="#C2B8E5"/>
<path d="M45.6688 14.8349L51.4011 24.9762C51.6786 25.4442 52.0169 26.0206 52.4158 26.701C52.819 27.3771 53.231 28.0229 53.6472 28.6339C54.0635 29.2407 54.3952 29.6979 54.6445 30.0034H50.8201C50.1827 30.0034 49.7057 29.8734 49.3892 29.6134C49.0705 29.349 48.7583 28.9525 48.4526 28.4259L40.9251 15.2076C40.6172 14.6529 40.3202 14.3409 40.0318 14.2715C39.7413 14.2022 39.3055 14.1675 38.7223 14.1675H37.1873C36.8513 15.4157 36.6843 16.6638 36.6843 17.912V25.4355C36.6843 26.6555 36.7537 27.7217 36.8925 28.6339C37.0312 29.5484 37.1006 30.0034 37.1006 30.0034H32.0273C32.0273 30.0034 32.0967 29.5484 32.2355 28.6339C32.3742 27.7217 32.4436 26.6555 32.4436 25.4355V5.48244C32.4436 4.26463 32.3742 3.1985 32.2355 2.28405C32.0967 1.37177 32.0273 0.914551 32.0273 0.914551H37.1006C37.1006 0.914551 37.0312 1.37177 36.8925 2.28405C36.7537 3.1985 36.6843 4.26463 36.6843 5.48244V13.3354C37.0421 11.7882 37.5884 10.2735 38.3234 8.79351C39.0627 7.30916 39.9798 5.97217 41.0725 4.78036C42.1652 3.58421 43.4162 2.64376 44.8276 1.95468C46.2433 1.26126 47.7978 0.914551 49.4932 0.914551C51.2971 0.914551 52.947 1.24826 54.4451 1.91134L52.7367 6.14986C52.1816 5.59512 51.4662 5.21374 50.5946 5.00572C49.7209 4.79769 48.8688 4.71968 48.0363 4.77169C46.3192 4.85836 44.7365 5.31342 43.2926 6.13252C41.853 6.94729 40.6172 8.00475 39.5895 9.30491C38.5662 10.6051 37.8204 12.0482 37.3521 13.6301H43.4227C44.0579 13.6301 44.5154 13.6951 44.7929 13.8208C45.0704 13.9421 45.3609 14.2802 45.6688 14.8349Z" fill="#C2B8E5"/>
<path d="M73.4803 13.8104V25.6314C73.4803 26.803 73.5386 27.827 73.6552 28.7031C73.7759 29.5814 73.8384 30.0184 73.8384 30.0184H68.966C68.966 30.0184 69.0326 29.5814 69.1659 28.7031C69.2991 27.827 69.3658 26.803 69.3658 25.6314V16.6824L62.4111 7.10912C62.0946 6.65542 61.6823 6.08935 61.1784 5.4109C60.6724 4.73452 60.1644 4.08312 59.6542 3.45461C59.1482 2.82819 58.7235 2.37033 58.3799 2.08105H63.852L72.5557 14.1351L81.7842 2.08105H84.4162C83.8831 2.37033 83.2584 2.79489 82.5421 3.35472C81.8259 3.91663 81.1345 4.49519 80.4682 5.09456C79.8019 5.68977 79.2689 6.24128 78.8691 6.75116L73.4803 13.8104Z" fill="#C2B8E5"/>
<path d="M93.0759 2.43506L109.761 28.5766V9.60569C109.761 8.42155 109.623 7.27853 109.35 6.17662C109.074 5.07471 108.793 4.17632 108.502 3.47941C108.21 2.78454 108.066 2.43506 108.066 2.43506H110.675C110.675 2.43506 110.609 2.86883 110.477 3.73432C110.345 4.60187 110.28 5.61333 110.28 6.76869V29.4401L110.675 30.0321H105.861L89.1679 3.89057V22.8533C89.1679 24.0374 89.3119 25.1763 89.6039 26.2659C89.894 27.3575 90.1758 28.26 90.4514 28.9713C90.7249 29.6785 90.8628 30.0321 90.8628 30.0321H86.9824C86.9824 30.0321 87.9056 29.7209 88.0373 28.8534C88.1689 27.9879 88.0373 26.8478 88.0373 25.6904V3.54986L86.9824 2.43506H93.0759Z" fill="#C2B8E5"/>
<path d="M114.518 24.2097C114.289 22.9626 114.421 21.8197 114.914 20.7834C115.408 19.7494 116.148 18.9616 117.134 18.4223C118.121 17.8853 119.244 17.7699 120.508 18.0762C119.86 18.2781 119.382 18.662 119.072 19.2301C118.766 19.7982 118.599 20.424 118.57 21.103C118.539 21.7842 118.581 22.4233 118.693 23.0203C119.063 24.6668 119.832 26.0626 121.001 27.2099C122.168 28.3594 123.56 29.2248 125.176 29.8106C126.797 30.392 128.464 30.6761 130.179 30.6628C131.899 30.645 133.478 30.3122 134.918 29.6598C136.127 29.0917 137.05 28.3416 137.684 27.4052C138.318 26.4643 138.662 25.4568 138.714 24.3783C138.772 23.3021 138.534 22.2613 138.001 21.2539C137.466 20.242 136.647 19.3854 135.543 18.6798C134.169 17.7988 132.65 17.1952 130.99 16.869C129.327 16.545 127.645 16.2898 125.942 16.1056C124.238 15.917 122.613 15.6241 121.063 15.2269C120.017 14.9428 119.05 14.5523 118.165 14.0552C117.277 13.5581 116.566 12.8991 116.033 12.0758C115.498 11.2547 115.232 10.2473 115.232 9.05784C115.201 7.98158 115.419 7.06732 115.883 6.31505C116.352 5.56501 116.967 4.93035 117.724 4.41552C118.88 3.59447 120.336 2.99975 122.093 2.63139C123.855 2.26524 125.707 2.08105 127.651 2.08105C129.988 2.08105 132.254 2.33625 134.451 2.84442C136.647 3.35481 138.406 4.09154 139.727 5.05462L138.168 8.46312C136.728 7.216 135.143 6.08871 133.412 5.08125C131.679 4.06935 129.855 3.39475 127.942 3.05745C127.242 2.91543 126.411 2.84442 125.449 2.84442C124.491 2.84442 123.529 2.93762 122.56 3.11958C121.591 3.30377 120.71 3.60778 119.918 4.03384C118.907 4.57308 118.226 5.27653 117.874 6.1464C117.522 7.01185 117.522 7.85509 117.874 8.67615C118.226 9.49943 118.966 10.1652 120.094 10.6733C121.162 11.1305 122.397 11.4433 123.802 11.6142C125.211 11.7806 126.696 11.9426 128.259 12.1024C129.82 12.2577 131.362 12.5462 132.883 12.9723C134.403 13.3984 135.799 14.1085 137.067 15.1026C138.305 16.0679 139.247 17.2662 139.895 18.6975C140.547 20.131 140.716 21.7399 140.406 23.5262C140.152 25.0596 139.589 26.3578 138.714 27.4229C137.838 28.4881 136.768 29.3469 135.499 29.9971C134.235 30.6495 132.894 31.1243 131.474 31.4261C130.051 31.7235 128.664 31.87 127.308 31.87C126.044 31.87 124.722 31.7368 123.344 31.4705C121.963 31.1998 120.653 30.7582 119.415 30.1479C118.176 29.5399 117.112 28.7455 116.227 27.7691C115.339 26.7883 114.769 25.6011 114.518 24.2097Z" fill="#C2B8E5"/>
</svg>
