<svg width="94" height="94" viewBox="0 0 94 94" fill="none" xmlns="http://www.w3.org/2000/svg">
<circle cx="46.9102" cy="46.9102" r="46.9102" fill="#D9D9D9" fill-opacity="0.86"/>
<g clip-path="url(#clip0_176_543)">
<path fill-rule="evenodd" clip-rule="evenodd" d="M57.6854 50.4678H35.5177C31.4021 50.4678 27.4552 52.1027 24.545 55.0128C21.6349 57.923 20 61.87 20 65.9855V70.4179C20 72.1819 20.7005 73.8736 21.9476 75.1212C23.1946 76.3688 24.8861 77.07 26.65 77.0708H66.5531C68.3168 77.0708 70.0083 76.3702 71.2554 75.123C72.5025 73.8759 73.2031 72.1845 73.2031 70.4208V65.9855C73.2031 61.87 71.5682 57.923 68.6581 55.0128C65.748 52.1027 61.801 50.4678 57.6854 50.4678ZM35.5177 54.9031H57.6854C60.6254 54.9031 63.445 56.071 65.5239 58.1499C67.6028 60.2287 68.7707 63.0483 68.7707 65.9883V70.4208C68.7711 70.7121 68.714 71.0006 68.6027 71.2698C68.4914 71.5391 68.328 71.7837 68.122 71.9897C67.916 72.1957 67.6714 72.359 67.4022 72.4703C67.133 72.5816 66.8444 72.6387 66.5531 72.6384H26.65C26.0619 72.6384 25.4978 72.4047 25.0819 71.9888C24.666 71.573 24.4324 71.0089 24.4324 70.4208V65.9855C24.4332 63.046 25.6014 60.2271 27.6802 58.1489C29.759 56.0706 32.5782 54.9031 35.5177 54.9031ZM46.603 15C43.5339 15 40.5337 15.9101 37.9818 17.6152C35.4299 19.3203 33.441 21.7438 32.2665 24.5793C31.092 27.4148 30.7847 30.5349 31.3835 33.5451C31.9822 36.5552 33.4601 39.3202 35.6303 41.4904C37.8005 43.6606 40.5655 45.1385 43.5756 45.7372C46.5858 46.336 49.7058 46.0287 52.5413 44.8542C55.3768 43.6797 57.8004 41.6907 59.5055 39.1389C61.2106 36.587 62.1207 33.5868 62.1207 30.5177C62.1207 26.4021 60.4858 22.4552 57.5756 19.545C54.6655 16.6349 50.7185 15 46.603 15ZM46.603 19.4324C48.7954 19.4324 50.9386 20.0826 52.7616 21.3006C54.5846 22.5187 56.0054 24.25 56.8445 26.2755C57.6835 28.3011 57.903 30.53 57.4752 32.6803C57.0475 34.8307 55.9918 36.8059 54.4415 38.3562C52.8912 39.9065 50.9159 40.9622 48.7656 41.39C46.6153 41.8177 44.3864 41.5982 42.3608 40.7592C40.3352 39.9201 38.604 38.4993 37.3859 36.6763C36.1678 34.8534 35.5177 32.7102 35.5177 30.5177C35.5184 27.5779 36.6866 24.7588 38.7653 22.68C40.8441 20.6013 43.6632 19.4332 46.603 19.4324Z" fill="#707070" fill-opacity="0.4"/>
</g>
<defs>
<clipPath id="clip0_176_543">
<rect width="53.2031" height="62.0708" fill="white" transform="translate(20 15)"/>
</clipPath>
</defs>
</svg>
